<?xml version="1.0" encoding="utf-8"?>
<!-- Generator: Adobe Illustrator 23.0.2, SVG Export Plug-In . SVG Version: 6.00 Build 0)  -->
<svg version="1.1" id="Layer_1" xmlns="http://www.w3.org/2000/svg" xmlns:xlink="http://www.w3.org/1999/xlink" x="0px" y="0px"
	 width="156px" height="156px" viewBox="0 0 156 156" style="enable-background:new 0 0 156 156;" xml:space="preserve">
<style type="text/css">
	.st0{fill:#287BFF;}
	.st1{fill:#2182ED;}
	.st2{fill-rule:evenodd;clip-rule:evenodd;fill:#FFFFFF;}
</style>
<circle id="Ellipse_2_copy_12" class="st0" cx="77.2" cy="77.2" r="37.9"/>
<path class="st1" d="M77.5,132C47.4,132,23,107.6,23,77.5C23,47.4,47.4,23,77.5,23c30.1,0,54.5,24.4,54.5,54.5
	C132,107.6,107.6,132,77.5,132z M77.5,25C48.6,25,25,48.6,25,77.5c0,28.9,23.6,52.5,52.5,52.5c28.9,0,52.5-23.6,52.5-52.5
	C130,48.6,106.4,25,77.5,25z"/>
<path id="Rectangle_14_copy_8" class="st2" d="M73.7,67.9l13.5,10.4l-13.5,9.6"/>
</svg>
