<?xml version="1.0" encoding="utf-8"?>
<!-- Generator: Adobe Illustrator 23.0.2, SVG Export Plug-In . SVG Version: 6.00 Build 0)  -->
<svg version="1.1" id="Layer_2" xmlns="http://www.w3.org/2000/svg" xmlns:xlink="http://www.w3.org/1999/xlink" x="0px" y="0px"
	 width="556.5px" height="304.5px" viewBox="0 0 556.5 304.5" style="enable-background:new 0 0 556.5 304.5;" xml:space="preserve"
	>
<style type="text/css">
	.st0{fill:#BF8929;}
</style>
<g>
	<g>
		<path class="st0" d="M145.4,274.9l-5.8,1.8c-9.9,3.1-18.4,9.8-25.1,19.9c-0.6,0.9-0.7,2.1-0.4,3.1c0.4,1,1.2,1.8,2.2,2.2
			c3.1,1,9.5,2.7,17.6,2.7c12.2,0,28.2-3.9,35.1-22.3c0-0.1,0.1-0.2,0.1-0.3l0-0.2c0-0.1,0.1-0.2,0.1-0.3
			c5.8-27.1-19.6-41.2-33.9-44.9l0,0c-0.3-0.1-0.6-0.1-0.9-0.1c-0.8,0-1.6,0.3-2.2,0.8c-0.9,0.7-1.3,1.7-1.3,2.8
			c0.2,12.2,3.8,22.3,10.5,30.3L145.4,274.9z M157.1,288.6c-5.3,5.8-13.2,8.8-22.9,8.8c-0.9,0-1.9,0-2.8-0.1l-9.9-0.6l7.5-6.5
			c5.8-5,12.4-7.8,19.6-8.4c1.9-0.2,3.9-0.2,5.8,0l8.2,0.6L157.1,288.6z M137,243.5l8.7,4.8c9.6,5.4,15.5,12.7,17,21.2l1.4,8.1
			l-7.2-3.8c-1.7-0.9-3.4-2-4.9-3.1c-5.8-4.4-9.8-10.3-12-17.6L137,243.5z"/>
		<path class="st0" d="M101.5,207.8c-0.8-0.7-1.9-1-3-0.8c-1.1,0.2-2,0.9-2.5,1.9c-5.3,10.9-6.7,21.6-4.3,31.7l1.4,5.9l-6-1
			c-2.3-0.4-4.7-0.6-7-0.6c-8,0-16.2,2.3-24.4,6.9c-0.9,0.5-1.6,1.5-1.7,2.6c-0.1,1.1,0.2,2.2,1,2.9c7.1,7.1,20.2,15.4,33.7,15.4
			c8.2,0,15.6-3.1,22.2-9.1l0.6-0.6C128.9,241.6,112.6,217.5,101.5,207.8z M97.3,264.2c-2.8,1.1-5.8,1.6-8.9,1.6
			c-5.7,0-11.8-1.8-18-5.4l-8.6-5l9.6-2.4c7.4-1.8,14.6-1.3,21.3,1.4c1.8,0.7,3.5,1.6,5.2,2.6l7,4.3L97.3,264.2z M111,249.6
			l-2.4,7.8l-4.7-6.7c-1-1.4-1.9-2.9-2.7-4.4c-3.4-6.7-4.4-14-3.1-21.8l1.7-9.8l5.5,8.2C111.6,232.2,113.5,241.4,111,249.6z"/>
		<path class="st0" d="M73.2,165.2c-1.1-0.1-2.2,0.3-2.9,1.1c-8.2,9-12.7,18.8-13.3,29.1l-0.3,6.1l-5.4-2.7
			c-5.9-2.9-12.4-4.4-19.4-4.4c-4,0-8.2,0.5-12.5,1.5c-1.1,0.2-2,1-2.4,2c-0.5,1-0.4,2.2,0.1,3.1c5.1,9.6,18.7,25.8,36.7,25.8
			c4.9,0,9.9-1.2,14.9-3.6c0.1-0.1,0.2-0.1,0.4-0.2l0.1-0.1c0.1-0.1,0.2-0.1,0.3-0.2c22.8-15.6,14.1-43.3,6.3-55.8
			C75.2,165.9,74.2,165.3,73.2,165.2z M55.5,219.6c-0.6,0-1.1,0.1-1.7,0.1c-8,0-15.9-3.9-23-11.5l-6.8-7.2l9.9,0.5
			c7.6,0.4,14.3,2.9,20,7.5c1.5,1.2,2.9,2.5,4.2,4l5.5,6.1L55.5,219.6z M72.8,209.6l-4.6,6.8l-2.6-7.8c-0.5-1.7-1-3.3-1.3-5
			c-1.3-7.4-0.2-14.7,3.3-21.7l4.5-8.8l2.9,9.5C78.4,193.1,77.6,202.5,72.8,209.6z"/>
		<path class="st0" d="M40.5,166.9c0.2,0,0.3-0.1,0.4-0.1l0.1,0c0.1,0,0.2,0,0.3-0.1c25.5-7.4,26-35.2,22.7-49c-0.3-1.1-1-1.9-2-2.4
			c-1-0.4-2.2-0.4-3.1,0.2c-10,5.6-17,13.1-20.7,22.2l-2.2,5.5l-4.2-4.1c-7.1-6.9-16.4-10.9-27.9-12c-0.1,0-0.2,0-0.3,0
			c-1,0-1.9,0.4-2.6,1.1c-0.7,0.8-1.1,1.9-0.9,3c2.2,12.5,12.4,36.1,35.5,36.1C37.1,167.2,38.8,167.1,40.5,166.9L40.5,166.9z
			 M42.2,152.1c0.1-5.8,1.8-14.4,9.3-22.2l7.3-7.7l-0.4,10.6c-0.1,1.6-0.2,3.1-0.4,4.5c-1.1,7.9-4.2,13.9-9.2,18l-6.6,5.3
			L42.2,152.1z M29.1,159.4c-6.1-1.7-11.3-5.8-15.4-12.4h0c-0.9-1.4-1.7-2.8-2.4-4.3l-4.6-9.5l9.8,4.1c10,4.2,15,11.4,17.4,16.7
			l3.5,7.8L29.1,159.4z"/>
		<path class="st0" d="M29.6,106l0.5,0.1l0.3,0c1,0.1,2.1,0.1,3.1,0.1c24.4,0,33.8-24.9,35.4-38c0.1-1.1-0.3-2.2-1-2.9
			c-0.8-0.8-1.9-1.1-3-0.9c-11.3,1.7-20.5,6.3-27.2,13.5l-4,4.4l-2.5-5.4c-4.2-8.9-11.6-16-21.9-21c-1-0.5-2.1-0.5-3.1,0
			c-1,0.5-1.7,1.4-1.9,2.5C1.7,72.2,3.7,100,29.6,106z M36.4,92.8c2.1-5.4,6.7-12.8,16.5-17.6l9.6-4.6l-4.1,9.8
			c-0.6,1.4-1.3,2.8-2,4.1c-3.8,7-8.8,11.5-15,13.6l-8.1,2.7L36.4,92.8z M10.8,73l-1-10.6l7.7,7.3c7.9,7.5,10,15.9,10.4,21.7
			l0.6,8.5l-6.9-5c-5.1-3.7-8.5-9.4-10.1-17C11.2,76.4,11,74.7,10.8,73z"/>
		<path class="st0" d="M41.4,51c25.8-6.5,27.2-34.4,24.3-48.3c-0.2-1.1-0.9-2-1.9-2.4c-0.5-0.2-1-0.3-1.5-0.3
			c-0.6,0-1.1,0.1-1.6,0.4C34.4,14,33.8,37.9,37.2,48.7C37.8,50.4,39.6,51.5,41.4,51z M42.8,36.5c0.3-5.8,2.2-14.3,10-21.9l7.6-7.4
			l-0.8,10.6c-0.1,1.6-0.3,3.1-0.5,4.5c-1.4,7.8-4.6,13.8-9.8,17.7L42.4,45L42.8,36.5z"/>
		<path class="st0" d="M422.1,236.4c-0.3,0-0.6,0-0.9,0.1c-14.3,3.7-39.7,17.7-33.9,44.9c0,0.1,0.1,0.2,0.1,0.3l0,0.1
			c0,0.1,0.1,0.2,0.1,0.3c6.9,18.5,22.9,22.3,35.1,22.3c8.1,0,14.5-1.7,17.6-2.7c1-0.3,1.9-1.2,2.2-2.2c0.4-1,0.2-2.2-0.4-3.1
			c-6.7-10.1-15.2-16.8-25.1-19.9l-5.8-1.8l3.9-4.6c6.7-7.9,10.3-18.1,10.5-30.3c0-1.1-0.5-2.1-1.3-2.8
			C423.6,236.7,422.9,236.4,422.1,236.4z M427.6,290.4l7.5,6.5l-9.9,0.6c-0.9,0.1-1.9,0.1-2.8,0.1c-9.7,0-17.6-3-22.9-8.8l-5.5-6
			l8.1-0.6c1.7-0.1,3.5-0.2,5.2,0C414.8,282.4,421.6,285.3,427.6,290.4z M416.7,252.9c-2.2,7.3-6.3,13.2-12,17.6
			c-1.5,1.2-3.2,2.2-4.9,3.1l-7.2,3.8l1.4-8.1c1.5-8.5,7.3-15.8,17-21.2l8.7-4.8L416.7,252.9z"/>
		<path class="st0" d="M445.5,263.6l0.2,0.2c6.5,6,14,9.1,22.2,9.1c13.5,0,26.6-8.3,33.7-15.4c0.8-0.8,1.1-1.9,1-2.9
			c-0.1-1.1-0.8-2-1.7-2.6c-10.6-6-21.1-8.1-31.4-6.4l-6,1l1.4-5.9c2.4-10.1,1-20.8-4.3-31.7c-0.5-1-1.4-1.7-2.5-1.9
			c-1.1-0.2-2.2,0.1-3,0.8c-11.1,9.7-27.4,33.8-9.9,55.4L445.5,263.6z M463.1,254.6c6.9-3,14.3-3.5,21.9-1.6l9.6,2.4l-8.6,5
			c-6.2,3.6-12.3,5.4-18,5.4c-3.1,0-6.1-0.5-8.9-1.6l-7.6-2.9l7-4.3C460,256.1,461.6,255.3,463.1,254.6z M451.1,223l5.5-8.2l1.7,9.8
			c1.3,7.5,0.4,14.6-2.8,21.2c-0.8,1.7-1.8,3.4-3,5l-4.7,6.7l-2.4-7.8C443,241.4,445,232.2,451.1,223z"/>
		<path class="st0" d="M537.2,195.9c-11.9-2.7-22.6-1.7-31.9,3l-5.4,2.7l-0.3-6.1c-0.6-10.4-5.1-20.2-13.3-29.2
			c-0.7-0.8-1.8-1.2-2.9-1.1c-1.1,0.1-2.1,0.7-2.6,1.6c-7.8,12.5-16.5,40.1,6.3,55.8c0.1,0.1,0.2,0.1,0.3,0.2l0.1,0.1
			c0.2,0.1,0.3,0.2,0.4,0.2c5,2.4,10,3.6,14.9,3.6c18.1,0,31.6-16.2,36.7-25.8c0.5-1,0.6-2.1,0.1-3.1
			C539.2,196.8,538.3,196.1,537.2,195.9z M492.2,203c-0.3,1.9-0.8,3.8-1.4,5.7l-2.6,7.8l-4.6-6.8c-4.8-7.1-5.6-16.5-2.3-27.1
			l2.9-9.5l4.5,8.8C492.2,188.7,493.4,195.8,492.2,203z M525.5,208.2c-1.4,1.4-2.7,2.8-4.2,4c-6,5-12.2,7.6-18.6,7.6
			c-0.6,0-1.3,0-1.9-0.1l-8-0.7l5.3-6c1.3-1.5,2.8-2.9,4.3-4.1c5.6-4.5,12.3-7.1,19.9-7.5l10-0.5L525.5,208.2z"/>
		<path class="st0" d="M552.7,127c-11.4,1.1-20.8,5.2-27.9,12l-4.2,4.1l-2.2-5.5c-3.7-9.1-10.7-16.6-20.7-22.2
			c-0.9-0.5-2.1-0.6-3.1-0.2c-1,0.4-1.7,1.3-2,2.4c-3.3,13.7-2.9,41.6,22.7,49c0.1,0,0.2,0,0.3,0.1l0.1,0c0.1,0,0.3,0.1,0.4,0.1
			c1.7,0.2,3.4,0.3,5,0.3c23.1,0,33.3-23.6,35.5-36.1c0.2-1.1-0.1-2.2-0.9-3C554.9,127.3,553.8,126.9,552.7,127z M507.9,155.3
			c-4.9-4-8-9.9-9.2-17.6l0,0c-0.2-1.6-0.4-3.2-0.5-4.9l-0.4-10.6l7.3,7.7c7.5,7.9,9.2,16.4,9.3,22.2l0.1,8.5L507.9,155.3z
			 M545.3,142.6c-0.7,1.5-1.6,3-2.4,4.3c-4.1,6.6-9.3,10.7-15.4,12.4l-8.2,2.2l3.5-7.8c2.4-5.3,7.4-12.5,17.4-16.7l9.8-4.1
			L545.3,142.6z"/>
		<path class="st0" d="M523,106.3c1,0,2,0,3.1-0.1l0.8-0.1c25.9-6,27.9-33.8,25.3-47.7c-0.2-1.1-0.9-2-1.9-2.5c-1-0.5-2.1-0.5-3.1,0
			c-10.3,5.1-17.7,12.1-21.9,21l-2.5,5.4l-4-4.4c-6.7-7.2-15.8-11.8-27.2-13.5c-0.2,0-0.3,0-0.5,0c-0.9,0-1.8,0.4-2.4,1
			c-0.8,0.8-1.2,1.9-1,2.9C489.2,81.4,498.6,106.3,523,106.3z M528.6,91.5c0.4-5.8,2.5-14.3,10.4-21.7l7.7-7.3l-1,10.6
			c-0.1,1.6-0.4,3.1-0.6,4.5c-1.5,7.8-5,13.7-10.2,17.4l-6.9,5L528.6,91.5z M503.6,75.2c9.8,4.7,14.4,12.2,16.5,17.6l3.1,7.9
			l-8.1-2.7c-6-2-11-6.4-14.8-13.2c-0.8-1.4-1.5-2.9-2.2-4.5l-4.1-9.8L503.6,75.2z"/>
		<path class="st0" d="M515.1,51L515.1,51c1.8,0.5,3.6-0.6,4.2-2.3c3.4-10.8,2.9-34.7-23.4-48.3c-1-0.5-2.1-0.5-3.1-0.1
			c-1,0.5-1.7,1.4-1.9,2.4C487.9,16.6,489.3,44.5,515.1,51z M497,17.6l-0.8-10.6l7.6,7.4c7.7,7.6,9.7,16.1,10,22l0.4,8.5l-6.8-5.1
			c-5.1-3.8-8.3-9.6-9.7-17.3C497.3,21,497.1,19.3,497,17.6z"/>
	</g>
	<path class="st0" d="M338.7,153.5l-45.2-26.9l-45.2,26.8l11.8-50.5l-40.5-36.5l51.6,0.2l22.4-52.4l22,52.4l52-0.1L327,102.9
		L338.7,153.5z M293.5,116.1l31.7,18.8L317,99.8l27-24.2l-34.4,0.1l-16.1-38.3l-16.4,38.3l-34-0.1L270,99.8l-8.2,35.1L293.5,116.1z"
		/>
	<path class="st0" d="M209.4,173.5L183.2,158L157,173.5l6.8-29.3l-23.7-21.3l30.3,0.1l12.8-30l12.6,30l30.4-0.1l-23.7,21.3
		L209.4,173.5z M183.2,148.7l14.1,8.4l-3.6-15.6l11.6-10.5l-14.8,0l-7.4-17.5l-7.5,17.5l-14.6,0l11.6,10.5l-3.6,15.6L183.2,148.7z"
		/>
	<path class="st0" d="M425.4,173.5L399.2,158L373,173.5l6.8-29.3l-23.7-21.3l30.3,0.1l12.8-30l12.6,30l30.4-0.1l-23.7,21.3
		L425.4,173.5z M399.2,148.7l14.1,8.4l-3.6-15.6l11.6-10.5l-14.8,0l-7.4-17.5l-7.5,17.5l-14.6,0l11.6,10.5l-3.6,15.6L399.2,148.7z"
		/>
</g>
</svg>
