<?xml version="1.0" encoding="utf-8"?>
<!-- Generator: Adobe Illustrator 23.0.2, SVG Export Plug-In . SVG Version: 6.00 Build 0)  -->
<svg version="1.1" id="Layer_1" xmlns="http://www.w3.org/2000/svg" xmlns:xlink="http://www.w3.org/1999/xlink" x="0px" y="0px"
	 width="64px" height="124px" viewBox="0 0 64 124" style="enable-background:new 0 0 64 124;" xml:space="preserve">
<style type="text/css">
	.st0{fill-rule:evenodd;clip-rule:evenodd;fill:#0B0B1C;}
	.st1{enable-background:new    ;}
	.st2{fill:#287BFF;}
	.st3{fill:#BF8929;}
</style>
<polygon class="st0" points="64.2,-0.6 0.2,-0.6 0.2,104.4 13.6,104.4 33,123.8 52.4,104.4 64.2,104.4 "/>
<g class="st1">
	<path class="st2" d="M37.9,33.6c-0.4,0.8-1.1,1.4-1.9,1.9c-0.8,0.5-1.8,0.7-2.9,0.7h-4.2V25.6H33c1.1,0,2.1,0.2,2.9,0.7
		c0.8,0.4,1.5,1.1,1.9,1.9s0.7,1.7,0.7,2.7S38.3,32.8,37.9,33.6z M34.8,32.9c0.5-0.5,0.8-1.1,0.8-2c0-0.8-0.2-1.5-0.8-2
		c-0.5-0.5-1.2-0.7-2.1-0.7h-1v5.4h1C33.6,33.6,34.3,33.3,34.8,32.9z"/>
</g>
<g class="st1">
	<path class="st3" d="M35.9,49.8v2.4h-6.8v-2.4H35.9z"/>
</g>
<g class="st1">
	<path class="st2" d="M38.2,65.6v10.6h-2.9v-6l-2,6h-2.5l-2-6v6h-3V65.6h3.6l2.6,6.9l2.5-6.9H38.2z"/>
</g>
</svg>
