<svg id="logo_footer" data-name="Layer 1" xmlns="http://www.w3.org/2000/svg" viewBox="0 0 154 27.84">
  <defs>
    <style>
      .logo_footer-cls-1 {
        fill: #fff;
      }

      .logo_footer-cls-2 {
        fill: #be892c;
      }
    </style>
  </defs>
  <title>logo-footer</title>
  <g>
    <g>
      <path class="logo_footer-cls-1" d="M52.4,22.9v.6c0,.1,0,.1-.1.1H51v4c0,.1,0,.1-.1.1h-.8c-.1,0-.1,0-.1-.1v-4H48.8c-.1,0-.1,0-.1-.1v-.6c0-.1,0-.1.1-.1h3.6Z"/>
      <path class="logo_footer-cls-1" d="M60.1,27.7l-.9-2h-.8v1.9c0,.1,0,.1-.1.1h-.8c-.1,0-.1,0-.1-.1V22.7c0-.1,0-.1.1-.1h2a1.88,1.88,0,0,1,.8.2,1.21,1.21,0,0,1,.5.5,1.88,1.88,0,0,1,.2.8,2.92,2.92,0,0,1-.2.9,1.79,1.79,0,0,1-.7.5h0l1,2v.2h-.9C60.2,27.8,60.2,27.8,60.1,27.7Zm-1.6-4v1.2h.9a.7.7,0,1,0,0-1.4l-.9.2Z"/>
      <path class="logo_footer-cls-1" d="M66.3,27.7V22.9c0-.1,0-.1.1-.1h.8c.1,0,.1,0,.1.1v4.8c0,.1,0,.1-.1.1h-.8C66.3,27.8,66.3,27.8,66.3,27.7Z"/>
      <path class="logo_footer-cls-1" d="M75.7,27.7l-.2-.7H73.7l-.2.7a.1.1,0,0,1-.1.1h-.9v-.1l1.6-4.9a.1.1,0,0,1,.1-.1h1.1c.1,0,.1,0,.1.1L77,27.7h0v.1h-.9C75.8,27.8,75.7,27.8,75.7,27.7Zm-1.8-1.5h1.3v-.1l-.7-2.2h0l-.6,2.3Z"/>
      <path class="logo_footer-cls-1" d="M81.8,27.7V22.9c0-.1,0-.1.1-.1h.8c.1,0,.1,0,.1.1v4h2.3c.1,0,.1,0,.1.1v.6c0,.1,0,.1-.1.1H82C81.9,27.8,81.8,27.8,81.8,27.7Z"/>
      <path class="logo_footer-cls-1" d="M96.2,27.7V22.9c0-.1,0-.1.1-.1h.8c.1,0,.1,0,.1.1v4h2.3c.1,0,.1,0,.1.1v.6c0,.1,0,.1-.1.1Z"/>
      <path class="logo_footer-cls-1" d="M108,27.7l-.2-.7H106l-.2.7a.1.1,0,0,1-.1.1h-.9v-.1l1.6-4.9a.1.1,0,0,1,.1-.1h1.1c.1,0,.1,0,.1.1l1.6,4.9h0v.1h-.9C108,27.8,108,27.8,108,27.7Zm-1.8-1.5h1.3v-.1l-.7-2.2h0l-.6,2.3Z"/>
      <path class="logo_footer-cls-1" d="M114.2,27.7l-1.3-4.8h0c0-.1,0-.1.1-.1h.8c.1,0,.1,0,.1.1l.7,2.9h0l.7-2.9a.1.1,0,0,1,.1-.1h.8c.1,0,.1,0,.1.1l.7,2.9h0l.7-2.9a.1.1,0,0,1,.1-.1h.9v.1l-1.2,4.8a.1.1,0,0,1-.1.1h-.8c-.1,0-.1,0-.1-.1l-.7-3.1h0l-.7,3.1a.1.1,0,0,1-.1.1h-.7A.1.1,0,0,1,114.2,27.7Z"/>
      <path class="logo_footer-cls-1" d="M125.2,27.7V25.8l-1.5-3v-.2h.9c.1,0,.1,0,.1.1l.9,1.9h0l.9-1.9a.1.1,0,0,1,.1-.1h.9c.1,0,.1,0,.1.1v.1l-1.5,3v1.9c0,.1,0,.1-.1.1h-.8Z"/>
      <path class="logo_footer-cls-1" d="M136.1,23.6h-2.3v1.1h1.5c.1,0,.1,0,.1.1v.6c0,.1,0,.1-.1.1h-1.5v1.2h2.3c.1,0,.1,0,.1.1v.6c0,.1,0,.1-.1.1h-3.3c-.1,0-.1,0-.1-.1V22.6c0-.1,0-.1.1-.1h3.3c.1,0,.1,0,.1.1v.6C136.2,23.6,136.2,23.6,136.1,23.6Z"/>
      <path class="logo_footer-cls-1" d="M144,27.7l-.9-2h-.8v1.9c0,.1,0,.1-.1.1h-.8c-.1,0-.1,0-.1-.1V22.7c0-.1,0-.1.1-.1h2a1.88,1.88,0,0,1,.8.2,1.21,1.21,0,0,1,.5.5,1.88,1.88,0,0,1,.2.8,2.92,2.92,0,0,1-.2.9,1.79,1.79,0,0,1-.7.5h0l1,2v.2h-.9C144.1,27.8,144,27.8,144,27.7Zm-1.7-4v1.2h.9a.7.7,0,1,0,0-1.4l-.9.2Z"/>
      <path class="logo_footer-cls-1" d="M150.9,27.7a1.79,1.79,0,0,1-.7-.5,1.08,1.08,0,0,1-.2-.8v-.1c0-.1,0-.1.1-.1h.8c.1,0,.1,0,.1.1v.1a.55.55,0,0,0,.3.5,1.45,1.45,0,0,0,.7.2,1.07,1.07,0,0,0,.6-.2.52.52,0,0,0,.2-.4.37.37,0,0,0-.1-.3c-.1-.1-.2-.1-.3-.2s-.3-.1-.6-.3a6.89,6.89,0,0,1-.8-.3,2.65,2.65,0,0,1-.6-.5.84.84,0,0,1-.2-.7,2.35,2.35,0,0,1,.2-.8,1.47,1.47,0,0,1,.6-.5,2.92,2.92,0,0,1,.9-.2,3,3,0,0,1,1,.2,1.34,1.34,0,0,1,.7.6,1.08,1.08,0,0,1,.2.8v.1c0,.1,0,.1-.1.1h-.8c-.1,0-.1,0-.1-.1v-.1a.55.55,0,0,0-.3-.5,1.45,1.45,0,0,0-.7-.2.75.75,0,0,0-.5.1.52.52,0,0,0-.2.4.37.37,0,0,0,.1.3c.1.1.2.2.3.2a2.39,2.39,0,0,0,.7.3,6.89,6.89,0,0,1,.8.3,1,1,0,0,1,.5.4.84.84,0,0,1,.2.7,1.88,1.88,0,0,1-.2.8,2.65,2.65,0,0,1-.6.5,3,3,0,0,1-1,.2A1.64,1.64,0,0,1,150.9,27.7Z"/>
    </g>
    <rect class="logo_footer-cls-2" y="15.9" width="154" height="1"/>
    <g>
      <path class="logo_footer-cls-1" d="M.1,9.1h0L0,8.8H.4a.6.6,0,0,0,.4-.1c.1,0,.2-.1.3-.2A.55.55,0,0,0,1.3,8V1.3A.37.37,0,0,0,1.2,1,.22.22,0,0,0,1,.8C.9.7.9.7.7.7H.1V.3H5.7a1.27,1.27,0,0,1,.6.1c.2,0,.4.1.7.1A2.08,2.08,0,0,1,8.2,1a9,9,0,0,1,1,.9,7.46,7.46,0,0,1,.7,1.2,3.18,3.18,0,0,1,.2,1.4,5.07,5.07,0,0,1-.2,1.3,2.1,2.1,0,0,1-.4,1.1,3.63,3.63,0,0,1-.8.9,3,3,0,0,1-1,.7A6.12,6.12,0,0,1,6.5,9a5.7,5.7,0,0,1-1.3.1H.1Zm3-.9a.35.35,0,0,0,.4.4.6.6,0,0,1,.4.1h.5a3.56,3.56,0,0,0,2.8-1,4.48,4.48,0,0,0,.9-3A3.24,3.24,0,0,0,8.1,3a3.46,3.46,0,0,0-.7-1.2A2.26,2.26,0,0,0,6.3,1,3.34,3.34,0,0,0,4.8.7H3.2V8.2Z"/>
      <path class="logo_footer-cls-1" d="M12.1,8.8h0a.37.37,0,0,1,.3-.1c.1,0,.2-.1.3-.1l.3-.3a2.19,2.19,0,0,0,.3-.5L15.8.5h0V.3h1.8l2.7,7.5c0,.1.1.2.1.3a.35.35,0,0,0,.1.2l.2.2c.1.1.2.1.3.2s.1.1.2.1.2.1.3.1h0v.2H17.1V8.8h.6a.37.37,0,0,0,.3-.1c.1,0,.2-.1.3-.1a.22.22,0,0,0,.2-.2.37.37,0,0,0,.1-.3V8l-.8-2.3V5.6a.1.1,0,0,0-.1-.1l-.1-.1H15.1a.49.49,0,0,1-.1.3.1.1,0,0,1-.1.1v.1c-.1.4-.2.7-.3,1a2.54,2.54,0,0,0-.2.7.76.76,0,0,0-.1.4.35.35,0,0,1-.1.2v.1h0c0,.1.1.2.2.3s.2.1.3.2.2.1.4.1h.5v.2H12.2a.1.1,0,0,1-.1-.1Zm3.3-4.2c-.1,0-.1.1,0,0v.2h2.1V4.5l-.8-2.3a.1.1,0,0,0-.1-.1h-.2l-.1.1Z"/>
      <path class="logo_footer-cls-1" d="M24.1,9.1h0V8.8a.1.1,0,0,1,.1-.1h.7c.1-.1.2-.1.3-.2s.1-.2.2-.3.1-.2.1-.4V1.2a.37.37,0,0,0-.1-.3c-.1-.1-.2-.1-.3-.2s-.2-.1-.4-.1h-.3V.3h2.9l5.4,6h0V1.5a1.42,1.42,0,0,0-.2-.6L32.2.6a.75.75,0,0,0-.5-.1h-.3V.3h3.5V.6h0a.37.37,0,0,0-.3.1c-.1,0-.3.1-.4.1a2.12,2.12,0,0,0-.7.3.37.37,0,0,0-.1.3V8.8c0,.1,0,.1-.1.2l-.1.1c-.1,0-.1.1-.2.1h-.2a.37.37,0,0,1-.3-.1c-.1,0-.2-.1-.3-.2L26.3,2.3a.1.1,0,0,1-.1-.1h-.1V8a.37.37,0,0,0,.1.3c.1.1.1.2.2.2a.37.37,0,0,0,.3.1c.1,0,.2.1.3.1h.5V9h0l-3.4.1Z"/>
      <path class="logo_footer-cls-1" d="M38.3,1.4a.6.6,0,0,0-.1-.4c-.1-.1-.2-.2-.3-.2a.6.6,0,0,0-.4-.1.6.6,0,0,1-.4-.1A.1.1,0,0,1,37,.5V.2h4.3V.4h-.5c-.1,0-.3.1-.4.1s-.2.1-.3.2-.1.2-.1.4V4.4c0,.1,0,.1.1.1h.2c.2-.1.5-.2.6-.4s.4-.3.5-.5A1.7,1.7,0,0,0,42,3c.1-.2.3-.4.4-.6s.2-.2.2-.3.2-.2.2-.3c.2-.2.2-.3.3-.4s.1-.2.1-.3a.37.37,0,0,0-.1-.3C43,.7,43,.7,42.9.7s-.2-.1-.3-.1h-.4V.3H46V.5h-.1a1.48,1.48,0,0,0-.7.1,1.42,1.42,0,0,0-.6.2c-.2.1-.2.2-.3.4a2.18,2.18,0,0,0-.4.5,8.79,8.79,0,0,1-.6,1,4.23,4.23,0,0,1-.5.7c-.1.2-.3.3-.3.4s-.2.2-.2.3l-.2.2-.1.1a.35.35,0,0,1,.1.2l.3.3.4.4.6.6a3.51,3.51,0,0,1,.7.9c.3.3.5.7.9,1.2a1,1,0,0,0,.6.5c.2.1.5.2.7.3a1,1,0,0,1,.3.1H47v.2a.1.1,0,0,1-.1.1H42.2a.1.1,0,0,1-.1-.1V8.9l.1-.1h.5c.1,0,.2,0,.2-.1s.1-.1.1-.2-.1-.2-.1-.3c.2-.2.1-.3,0-.5s-.3-.3-.4-.5-.3-.3-.4-.5-.3-.3-.4-.5-.3-.3-.4-.5-.3-.3-.4-.3a.9.9,0,0,0-.5-.1h-.2V8c0,.2,0,.3.1.4s.2.2.3.2a.6.6,0,0,0,.4.1h.4v.2H37.1v0a.1.1,0,0,1,.1-.1.6.6,0,0,0,.4-.1c.1,0,.3-.1.4-.1s.2-.1.3-.2.1-.2.1-.4V1.4Z"/>
      <path class="logo_footer-cls-1" d="M53.6,9.3H53c-.2,0-.5-.1-.7-.1s-.5-.2-.8-.3a2,2,0,0,1-.8-.4c-.3-.2-.5-.4-.8-.6a5.72,5.72,0,0,1-.7-.8A4.87,4.87,0,0,1,48.8,6a5.07,5.07,0,0,1-.2-1.3,5.85,5.85,0,0,1,.2-1.3,3.7,3.7,0,0,1,.5-1.1,3.45,3.45,0,0,1,.8-.9A4.13,4.13,0,0,1,51.2.7c.4-.2.8-.3,1.3-.5A3.4,3.4,0,0,1,53.9,0a5.85,5.85,0,0,1,1.3.2,3.7,3.7,0,0,1,1.1.5,3.59,3.59,0,0,1,1,.7c.3.3.5.6.8.9a2.22,2.22,0,0,1,.5,1.1,5,5,0,0,1,.2,1.2,5,5,0,0,1-.2,1.2,3.7,3.7,0,0,1-.5,1.1,3.92,3.92,0,0,1-.8,1,3.92,3.92,0,0,1-1,.8c-.4.1-.8.3-1.3.4A6.75,6.75,0,0,1,53.6,9.3ZM50.4,4.4a3.4,3.4,0,0,0,.1,1c.1.3.2.7.3,1l.6.9A4.35,4.35,0,0,0,52,8a3.51,3.51,0,0,0,.8.5,3,3,0,0,0,1,.2,2.77,2.77,0,0,0,1.3-.3,2,2,0,0,0,.9-.9,6.12,6.12,0,0,0,.5-1.2,6.75,6.75,0,0,0,.2-1.4,4.1,4.1,0,0,0-.1-1.1c-.1-.3-.2-.7-.3-1a4.05,4.05,0,0,0-.5-.9,2.34,2.34,0,0,0-.7-.7C55,1,54.7.9,54.4.8a3,3,0,0,0-1-.2,2.92,2.92,0,0,0-.9.2,1.61,1.61,0,0,0-.7.4l-.6.6a2,2,0,0,0-.4.8l-.3.9C50.5,3.8,50.4,4.1,50.4,4.4Z"/>
      <path class="logo_footer-cls-1" d="M66.9,8.8h0a2,2,0,0,1,.7-.1q.3-.15.3-.3c.1-.1.1-.3.2-.4s0-.3,0-.5c0-.5.1-1.1.1-1.6s.1-1,.1-1.5.1-1,.1-1.5V1.2a.37.37,0,0,0-.1-.3L68.1.7a.37.37,0,0,0-.3-.1h-.2a.1.1,0,0,1-.1-.1V.3h2.3l.1.1,2.7,6.1a.1.1,0,0,0,.1.1h.1l.1-.1,2.7-6c0-.1.1-.1.1-.2l.1-.1H78V.5h-.1a.37.37,0,0,0-.3.1c-.1,0-.2.1-.3.2s-.1.2-.1.4L77.7,8a.37.37,0,0,0,.1.3l.2.2a1,1,0,0,0,.3.1.37.37,0,0,1,.3.1h.3V9H74.8a.1.1,0,0,1-.1-.1V8.8a.1.1,0,0,1,.1-.1h.3a.6.6,0,0,0,.4-.1c.1-.1.2-.1.3-.2a.37.37,0,0,0,.1-.3L75.6,3V2.9l-.1.1L72.7,9a.1.1,0,0,1-.1.1h-.5c-.1,0-.1,0-.1-.1L69.3,3.1V3h0v.7a2.49,2.49,0,0,1-.1.8,3.75,3.75,0,0,1-.1,1,3.4,3.4,0,0,1-.1,1,2.77,2.77,0,0,1-.1.9v1a.35.35,0,0,0,.1.2c.1.1.2.1.3.2a.37.37,0,0,0,.3.1H70v.4H66.9a.1.1,0,0,1-.1-.1V8.8Z"/>
      <path class="logo_footer-cls-1" d="M81.2,8.8h0l.2-.1h.5a.75.75,0,0,0,.5-.1.52.52,0,0,0,.4-.2.59.59,0,0,0,.2-.5V1.5c0-.2,0-.3-.1-.4s-.2-.2-.3-.2-.2-.1-.4-.1-.3-.1-.4-.1h-.1V.3h6.5a.35.35,0,0,1,.1.2l.1,2H88a.35.35,0,0,1-.1-.2V2a.37.37,0,0,0-.1-.3c0-.1-.1-.2-.1-.3s-.1-.2-.2-.2-.2-.1-.4-.1H84.9c-.1,0-.1,0-.1.1v3a.1.1,0,0,0,.1.1H87c.1,0,.2-.1.3-.1s.1-.2.2-.3a4.33,4.33,0,0,0,.1-.5.1.1,0,0,1,.1-.1h.2a.1.1,0,0,1,.1.1V6.3h-.2a1.27,1.27,0,0,0-.1-.6c0-.1-.1-.3-.2-.3-.4-.3-.5-.3-.6-.4H84.8a.1.1,0,0,0-.1.1V7.8a.37.37,0,0,0,.1.3c0,.1.1.1.2.2s.1.1.2.1h2a1.42,1.42,0,0,0,.6-.2.78.78,0,0,0,.4-.4c.1-.2.2-.3.2-.5s.1-.3.1-.4,0-.1.1-.1h.3v.1L88.6,9v.1H81.2V8.8Z"/>
      <path class="logo_footer-cls-1" d="M91.6,8.8h0c.1-.1.1-.1.2-.1h.5c.2-.1.4-.1.5-.3a.75.75,0,0,0,.1-.5V1.5a.75.75,0,0,0-.1-.5L92.5.7a.37.37,0,0,0-.3-.1h-.4V.3H96a3.55,3.55,0,0,1,1,.2,2.62,2.62,0,0,1,.9.5,2.7,2.7,0,0,1,.7.8,2,2,0,0,1,.3,1.1,1.48,1.48,0,0,1-.1.7l-.3.6a1,1,0,0,1-.5.4l-.6.3,1.9,3a4.35,4.35,0,0,0,.6.7,1.23,1.23,0,0,0,.8.4h.1v.1c0,.1,0,.1-.1.1h-.8c-.2,0-.4-.1-.7-.1a1.42,1.42,0,0,1-.6-.2,2.19,2.19,0,0,1-.5-.3l-.4-.4c-.1-.2-.3-.4-.4-.6s-.3-.4-.4-.6a4.35,4.35,0,0,1-.4-.7c-.1-.2-.3-.4-.4-.6s-.2-.3-.3-.5l-1-.1h-.2V8.2a.35.35,0,0,0,.1.2.37.37,0,0,0,.3.1c.1,0,.2.1.4.1H96v.3H91.6V8.8Zm3.1-4.3h0a.1.1,0,0,0,.1.1h.5a2,2,0,0,0,.9-.2,2.65,2.65,0,0,0,.6-.5c.1,0,.2-.2.2-.5a2,2,0,0,0,.1-.8,2.2,2.2,0,0,0-.1-.8,1.61,1.61,0,0,0-.4-.7A1.27,1.27,0,0,0,96,.7a1.85,1.85,0,0,0-.7-.2h-.6a.1.1,0,0,0-.1.1V4.2Z"/>
      <path class="logo_footer-cls-1" d="M102.8,8.8h0l.2-.1h.5a.75.75,0,0,0,.5-.1.52.52,0,0,0,.4-.2.75.75,0,0,0,.1-.5V1.5c0-.2,0-.3-.1-.4s-.2-.2-.3-.2-.2-.1-.4-.1-.3-.1-.4-.1h-.1V.3h6.5a.35.35,0,0,1,.1.2l.1,2h-.4a.35.35,0,0,1-.1-.2V2a.37.37,0,0,0-.1-.3c0-.1-.1-.2-.1-.3s-.1-.2-.2-.2-.2-.1-.4-.1h-2.2c-.1,0-.1,0-.1.1v3a.1.1,0,0,0,.1.1h2.1c.1,0,.2-.1.3-.1s.1-.2.2-.3a4.33,4.33,0,0,0,.1-.5.1.1,0,0,1,.1-.1h.2a.1.1,0,0,1,.1.1V6.3h-.2a1.27,1.27,0,0,0-.1-.6c0-.1-.1-.3-.2-.3s-.2-.1-.3-.2h-2.1a.1.1,0,0,0-.1.1V8a.37.37,0,0,0,.1.3c0,.1.1.1.2.2s.1.1.2.1h2a1.42,1.42,0,0,0,.6-.2A.78.78,0,0,0,110,8c.1-.2.2-.3.2-.5s.1-.3.1-.4,0-.1.1-.1h.3v.1L110.2,9v.1h-7.4V8.8Z"/>
      <path class="logo_footer-cls-1" d="M113.3,9.1h0l-.1-.3h.4a.6.6,0,0,0,.4-.1c.1,0,.2-.1.3-.2s.1-.2.1-.4V1.3a.37.37,0,0,0-.1-.3c-.1-.1-.1-.2-.2-.2a.37.37,0,0,0-.3-.1h-.7V.3h5.6a1.27,1.27,0,0,1,.6.1c.2,0,.4.1.7.1a5,5,0,0,1,1.3.5,9,9,0,0,1,1,.9,7.46,7.46,0,0,1,.7,1.2,3.18,3.18,0,0,1,.2,1.4,5.07,5.07,0,0,1-.2,1.3,3.7,3.7,0,0,1-.5,1.1,6.47,6.47,0,0,1-.8.9,3.59,3.59,0,0,1-1,.7,5.64,5.64,0,0,1-1.2.4,5.07,5.07,0,0,1-1.3.2h-4.9Zm3-.9a.35.35,0,0,0,.4.4.6.6,0,0,1,.4.1h.5a3.56,3.56,0,0,0,2.8-1,4.48,4.48,0,0,0,.9-3,7.77,7.77,0,0,0-.2-1.6,3.37,3.37,0,0,0-.6-1.2,3.13,3.13,0,0,0-1.1-.8,3.34,3.34,0,0,0-1.5-.3h-1.6V8.2Z"/>
      <path class="logo_footer-cls-1" d="M129,8.3a.22.22,0,0,0,.2.2.37.37,0,0,0,.3.1h.4a.1.1,0,0,1,.1.1V9h-3.7V8.7h.4c.1,0,.2-.1.3-.1s.1-.2.2-.3a4.33,4.33,0,0,0,.1-.5V1.5a.6.6,0,0,0-.1-.4.22.22,0,0,0-.2-.2.37.37,0,0,0-.3-.1h-.4a.1.1,0,0,1-.1-.1V.3a.1.1,0,0,1,.1-.1H130V.5h-.4c-.1,0-.2.1-.3.1s-.3.4-.3.5a4.33,4.33,0,0,0-.1.5V7.9C128.9,8.1,128.9,8.2,129,8.3Z"/>
      <path class="logo_footer-cls-1" d="M135.8,1.1h-2.2a.52.52,0,0,0-.4.2c-.1.1-.2.2-.2.3s-.1.3-.1.4-.1.3-.1.4v.2h-.2V2.4l.2-2.2a.1.1,0,0,1,.1-.1A.1.1,0,0,0,133,0h.1a.1.1,0,0,1,.1.1l.1.1h7.2l.1-.1a.1.1,0,0,0,.1-.1h.1c.1,0,.1,0,.1.1s0,.1.1.1l.2,2.2v.2H141V2.4c0-.1-.1-.3-.1-.4s-.1-.3-.1-.4-.1-.2-.2-.3a.52.52,0,0,0-.4-.2H138l-.1.1V7.9a.37.37,0,0,0,.1.3c.1.1.1.2.3.3s.2.1.4.2a4.33,4.33,0,0,0,.5.1h.4V9h-4.9V8.8h.4a.9.9,0,0,0,.5-.1.76.76,0,0,0,.4-.2l.3-.3a.37.37,0,0,0,.1-.3V1.2A4.55,4.55,0,0,0,135.8,1.1Z"/>
      <path class="logo_footer-cls-1" d="M143.4,9.1h0V8.7h.4c.1,0,.3-.1.4-.1l.3-.3a.75.75,0,0,0,.1-.5V1.5a.6.6,0,0,0-.1-.4c-.1-.1-.1-.2-.2-.2a.37.37,0,0,0-.3-.1.76.76,0,0,1-.4-.1.1.1,0,0,1-.1-.1V.2h3.7V.5h-.5c-.1,0-.2.1-.3.1s-.2.2-.2.3a.75.75,0,0,0-.1.5V4.1h4.6V1.5a.6.6,0,0,0-.1-.4c-.1-.1-.2-.2-.3-.2a.75.75,0,0,0-.5-.1.9.9,0,0,1-.5-.1.1.1,0,0,1-.1-.1V.2h4.2V.5h-.5c-.1,0-.2.1-.3.1s-.2.2-.2.3a.75.75,0,0,0-.1.5V7.9c0,.1.1.2.1.3s.2.2.3.2a1.48,1.48,0,0,0,.7.1.1.1,0,0,1,.1.1v.3a.1.1,0,0,1-.1.1h-4.6V8.7h.5a4.33,4.33,0,0,0,.5-.1c.2-.1.3-.1.4-.2a.76.76,0,0,0,.2-.4V5.1h-4.6V8a.6.6,0,0,0,.1.4c.1.1.1.2.2.2s.2.1.4.1h.4V9h0l-3.5.1Z"/>
    </g>
  </g>
</svg>
