<?xml version="1.0" encoding="utf-8"?>
<!-- Generator: Adobe Illustrator 23.0.2, SVG Export Plug-In . SVG Version: 6.00 Build 0)  -->
<svg version="1.1" id="Layer_1" xmlns="http://www.w3.org/2000/svg" xmlns:xlink="http://www.w3.org/1999/xlink" x="0px" y="0px"
	 width="154px" height="27.9px" viewBox="0 0 154 27.9" style="enable-background:new 0 0 154 27.9;" xml:space="preserve">
<style type="text/css">
	.st0{fill:#BE892C;}
</style>
<g>
	<g>
		<path d="M52.4,22.9v0.6c0,0.1,0,0.1-0.1,0.1h-1.3c0,0,0,0,0,0v4c0,0.1,0,0.1-0.1,0.1h-0.8c-0.1,0-0.1,0-0.1-0.1v-4c0,0,0,0,0,0
			h-1.2c-0.1,0-0.1,0-0.1-0.1v-0.6c0-0.1,0-0.1,0.1-0.1h3.6C52.4,22.7,52.4,22.8,52.4,22.9z"/>
		<path d="M60.1,27.7l-0.9-2c0,0,0,0-0.1,0h-0.7c0,0,0,0,0,0v1.9c0,0.1,0,0.1-0.1,0.1h-0.8c-0.1,0-0.1,0-0.1-0.1v-4.9
			c0-0.1,0-0.1,0.1-0.1h2c0.3,0,0.6,0.1,0.8,0.2c0.2,0.1,0.4,0.3,0.5,0.5c0.1,0.2,0.2,0.5,0.2,0.8c0,0.3-0.1,0.6-0.2,0.9
			c-0.2,0.2-0.4,0.4-0.7,0.5c0,0,0,0,0,0c0,0,0,0,0,0l1,2c0,0,0,0,0,0.1c0,0,0,0,0,0.1c0,0,0,0-0.1,0h-0.8
			C60.2,27.8,60.2,27.8,60.1,27.7z M58.5,23.7v1.2c0,0,0,0,0,0h0.9c0.2,0,0.4-0.1,0.5-0.2c0.1-0.1,0.2-0.3,0.2-0.5
			c0-0.2-0.1-0.4-0.2-0.5c-0.1-0.1-0.3-0.2-0.5-0.2L58.5,23.7C58.5,23.6,58.5,23.6,58.5,23.7z"/>
		<path d="M66.3,27.7v-4.8c0-0.1,0-0.1,0.1-0.1h0.8c0.1,0,0.1,0,0.1,0.1v4.8c0,0.1,0,0.1-0.1,0.1h-0.8
			C66.3,27.8,66.3,27.8,66.3,27.7z"/>
		<path d="M75.7,27.7L75.5,27c0,0,0,0,0,0h-1.8c0,0,0,0,0,0l-0.2,0.7c0,0.1-0.1,0.1-0.1,0.1h-0.8c0,0-0.1,0-0.1,0c0,0,0-0.1,0-0.1
			l1.6-4.9c0-0.1,0.1-0.1,0.1-0.1h1.1c0.1,0,0.1,0,0.1,0.1l1.6,4.9c0,0,0,0,0,0c0,0,0,0.1,0,0.1c0,0,0,0-0.1,0h-0.8
			C75.8,27.8,75.7,27.8,75.7,27.7z M73.9,26.2h1.3c0,0,0,0,0-0.1l-0.7-2.2c0,0,0,0,0,0c0,0,0,0,0,0L73.9,26.2
			C73.9,26.2,73.9,26.2,73.9,26.2z"/>
		<path d="M81.8,27.7v-4.8c0-0.1,0-0.1,0.1-0.1h0.8c0.1,0,0.1,0,0.1,0.1v4c0,0,0,0,0,0h2.3c0.1,0,0.1,0,0.1,0.1v0.6
			c0,0.1,0,0.1-0.1,0.1H82C81.9,27.8,81.8,27.8,81.8,27.7z"/>
		<path d="M96.2,27.7v-4.8c0-0.1,0-0.1,0.1-0.1h0.8c0.1,0,0.1,0,0.1,0.1v4c0,0,0,0,0,0h2.3c0.1,0,0.1,0,0.1,0.1v0.6
			c0,0.1,0,0.1-0.1,0.1h-3.3C96.2,27.8,96.2,27.8,96.2,27.7z"/>
		<path d="M108,27.7l-0.2-0.7c0,0,0,0,0,0h-1.8c0,0,0,0,0,0l-0.2,0.7c0,0.1-0.1,0.1-0.1,0.1h-0.8c0,0-0.1,0-0.1,0c0,0,0-0.1,0-0.1
			l1.6-4.9c0-0.1,0.1-0.1,0.1-0.1h1.1c0.1,0,0.1,0,0.1,0.1l1.6,4.9c0,0,0,0,0,0c0,0,0,0.1,0,0.1c0,0,0,0-0.1,0h-0.8
			C108,27.8,108,27.8,108,27.7z M106.2,26.2h1.3c0,0,0,0,0-0.1l-0.7-2.2c0,0,0,0,0,0c0,0,0,0,0,0L106.2,26.2
			C106.1,26.2,106.2,26.2,106.2,26.2z"/>
		<path d="M114.2,27.7l-1.3-4.8c0,0,0,0,0,0c0-0.1,0-0.1,0.1-0.1h0.8c0.1,0,0.1,0,0.1,0.1l0.7,2.9c0,0,0,0,0,0c0,0,0,0,0,0l0.7-2.9
			c0-0.1,0.1-0.1,0.1-0.1h0.8c0.1,0,0.1,0,0.1,0.1l0.7,2.9c0,0,0,0,0,0s0,0,0,0l0.7-2.9c0-0.1,0.1-0.1,0.1-0.1h0.8c0,0,0.1,0,0.1,0
			c0,0,0,0.1,0,0.1l-1.2,4.8c0,0.1-0.1,0.1-0.1,0.1h-0.8c-0.1,0-0.1,0-0.1-0.1l-0.7-3.1c0,0,0,0,0,0c0,0,0,0,0,0l-0.7,3.1
			c0,0.1-0.1,0.1-0.1,0.1h-0.7C114.3,27.8,114.2,27.8,114.2,27.7z"/>
		<path d="M125.2,27.7v-1.8l0-0.1l-1.5-3c0,0,0,0,0-0.1c0,0,0,0,0-0.1c0,0,0,0,0.1,0h0.8c0.1,0,0.1,0,0.1,0.1l0.9,1.9c0,0,0,0,0,0
			c0,0,0,0,0,0l0.9-1.9c0-0.1,0.1-0.1,0.1-0.1h0.9c0.1,0,0.1,0,0.1,0.1c0,0,0,0,0,0.1l-1.5,3l0,0.1v1.8c0,0.1,0,0.1-0.1,0.1h-0.8
			C125.2,27.8,125.2,27.8,125.2,27.7z"/>
		<path d="M136.1,23.6h-2.3c0,0,0,0,0,0v1.1c0,0,0,0,0,0h1.5c0.1,0,0.1,0,0.1,0.1v0.6c0,0.1,0,0.1-0.1,0.1h-1.5c0,0,0,0,0,0v1.2
			c0,0,0,0,0,0h2.3c0.1,0,0.1,0,0.1,0.1v0.6c0,0.1,0,0.1-0.1,0.1h-3.3c-0.1,0-0.1,0-0.1-0.1v-4.8c0-0.1,0-0.1,0.1-0.1h3.3
			c0.1,0,0.1,0,0.1,0.1v0.6C136.2,23.6,136.2,23.6,136.1,23.6z"/>
		<path d="M144,27.7l-0.9-2c0,0,0,0-0.1,0h-0.7c0,0,0,0,0,0v1.9c0,0.1,0,0.1-0.1,0.1h-0.8c-0.1,0-0.1,0-0.1-0.1v-4.9
			c0-0.1,0-0.1,0.1-0.1h2c0.3,0,0.6,0.1,0.8,0.2c0.2,0.1,0.4,0.3,0.5,0.5c0.1,0.2,0.2,0.5,0.2,0.8c0,0.3-0.1,0.6-0.2,0.9
			c-0.2,0.2-0.4,0.4-0.7,0.5c0,0,0,0,0,0c0,0,0,0,0,0l1,2c0,0,0,0,0,0.1c0,0,0,0,0,0.1c0,0,0,0-0.1,0h-0.8
			C144.1,27.8,144,27.8,144,27.7z M142.3,23.7v1.2c0,0,0,0,0,0h0.9c0.2,0,0.4-0.1,0.5-0.2c0.1-0.1,0.2-0.3,0.2-0.5
			c0-0.2-0.1-0.4-0.2-0.5c-0.1-0.1-0.3-0.2-0.5-0.2L142.3,23.7C142.3,23.6,142.3,23.6,142.3,23.7z"/>
		<path d="M150.9,27.7c-0.3-0.1-0.5-0.3-0.7-0.5c-0.2-0.2-0.2-0.5-0.2-0.8v-0.1c0-0.1,0-0.1,0.1-0.1h0.8c0.1,0,0.1,0,0.1,0.1v0.1
			c0,0.2,0.1,0.4,0.3,0.5c0.2,0.1,0.4,0.2,0.7,0.2c0.3,0,0.4-0.1,0.6-0.2c0.1-0.1,0.2-0.2,0.2-0.4c0-0.1,0-0.2-0.1-0.3
			c-0.1-0.1-0.2-0.1-0.3-0.2c-0.1-0.1-0.3-0.1-0.6-0.3c-0.3-0.1-0.6-0.2-0.8-0.3c-0.2-0.1-0.4-0.3-0.6-0.5c-0.2-0.2-0.2-0.4-0.2-0.7
			c0-0.3,0.1-0.5,0.2-0.8c0.1-0.2,0.4-0.4,0.6-0.5c0.3-0.1,0.6-0.2,0.9-0.2c0.4,0,0.7,0.1,1,0.2c0.3,0.1,0.5,0.3,0.7,0.6
			c0.2,0.2,0.2,0.5,0.2,0.8v0.1c0,0.1,0,0.1-0.1,0.1h-0.8c-0.1,0-0.1,0-0.1-0.1v-0.1c0-0.2-0.1-0.4-0.3-0.5
			c-0.2-0.1-0.4-0.2-0.7-0.2c-0.2,0-0.4,0-0.5,0.1c-0.1,0.1-0.2,0.2-0.2,0.4c0,0.1,0,0.2,0.1,0.3c0.1,0.1,0.2,0.2,0.3,0.2
			c0.1,0.1,0.4,0.2,0.7,0.3c0.3,0.1,0.6,0.2,0.8,0.3c0.2,0.1,0.4,0.2,0.5,0.4c0.2,0.2,0.2,0.4,0.2,0.7c0,0.3-0.1,0.6-0.2,0.8
			c-0.2,0.2-0.4,0.4-0.6,0.5c-0.3,0.1-0.6,0.2-1,0.2C151.5,27.9,151.2,27.8,150.9,27.7z"/>
	</g>
	<rect y="15.9" class="st0" width="154" height="1"/>
	<g>
		<path d="M0.1,9.1C0,9.1,0,9.1,0.1,9.1C0,9.1,0,9.1,0.1,9.1L0,8.8c0,0,0,0,0,0c0,0,0,0,0,0h0.1c0.1,0,0.2,0,0.3,0
			c0.1,0,0.3,0,0.4-0.1c0.1,0,0.2-0.1,0.3-0.2C1.3,8.3,1.3,8.2,1.3,8V1.3c0-0.1,0-0.2-0.1-0.3C1.2,0.9,1.1,0.8,1,0.8
			C0.9,0.7,0.9,0.7,0.7,0.7c-0.1,0-0.2,0-0.3,0H0.1c0,0,0,0,0,0c0,0,0,0,0,0V0.3c0,0,0,0,0,0c0,0,0,0,0,0h0.1l2.6,0
			c0.2,0,0.5,0,0.8,0c0.3,0,0.5,0,0.8,0c0.3,0,0.5,0,0.7,0c0.2,0,0.4,0,0.6,0c0.2,0,0.4,0,0.6,0.1c0.2,0,0.4,0.1,0.7,0.1
			C7.4,0.5,7.8,0.7,8.2,1c0.4,0.3,0.7,0.6,1,0.9c0.3,0.4,0.5,0.8,0.7,1.2c0.2,0.4,0.2,0.9,0.2,1.4c0,0.5-0.1,0.9-0.2,1.3
			C9.9,6.2,9.7,6.6,9.5,6.9C9.2,7.3,9,7.6,8.7,7.8C8.4,8.1,8,8.4,7.7,8.5C7.3,8.7,6.9,8.9,6.5,9C6.1,9.1,5.6,9.1,5.2,9.1h-5H0.1z
			 M3.1,8.2c0,0.1,0,0.2,0.1,0.3c0.1,0.1,0.2,0.1,0.3,0.1c0.1,0,0.3,0,0.4,0.1c0.2,0,0.4,0,0.5,0c1.2,0,2.2-0.3,2.8-1
			c0.6-0.7,0.9-1.7,0.9-3C8.3,4,8.2,3.5,8.1,3C7.9,2.5,7.7,2.1,7.4,1.8C7.1,1.4,6.8,1.2,6.3,1C5.9,0.8,5.4,0.7,4.8,0.7H3.3
			c-0.1,0-0.1,0-0.1,0c0,0,0,0.1,0,0.1V8.2L3.1,8.2z"/>
		<path d="M12.1,8.8C12.1,8.8,12.1,8.8,12.1,8.8c0.1-0.1,0.2-0.1,0.3-0.1c0.1,0,0.2-0.1,0.3-0.1c0.1-0.1,0.2-0.2,0.3-0.3
			c0.1-0.1,0.2-0.3,0.3-0.5l2.5-7.3c0,0,0,0,0,0c0,0,0,0,0,0c0,0,0-0.1,0-0.1c0,0,0-0.1,0-0.1s0,0,0,0h1.8c0,0,0,0,0,0c0,0,0,0,0,0
			l2.7,7.5c0,0.1,0.1,0.2,0.1,0.3s0.1,0.2,0.1,0.2c0.1,0.1,0.1,0.1,0.2,0.2c0.1,0.1,0.2,0.1,0.3,0.2c0.1,0,0.1,0.1,0.2,0.1
			s0.2,0.1,0.3,0.1c0,0,0,0,0,0c0,0,0,0,0,0v0.2c0,0,0,0,0,0c0,0,0,0,0,0h-4.4c0,0,0,0,0,0c0,0,0,0,0,0V8.8c0,0,0,0,0,0c0,0,0,0,0,0
			c0,0,0,0,0.1,0c0,0,0,0,0,0c0,0,0.1,0,0.2,0c0.1,0,0.2,0,0.3,0c0.1,0,0.2,0,0.3-0.1c0.1,0,0.2-0.1,0.3-0.1c0.1,0,0.2-0.1,0.2-0.2
			c0.1-0.1,0.1-0.2,0.1-0.3c0,0,0-0.1,0-0.1l-0.8-2.3c0,0,0,0,0-0.1c0,0,0-0.1-0.1-0.1c0,0-0.1-0.1-0.1-0.1c0,0-0.1,0-0.1,0h-2.3
			c-0.1,0-0.1,0-0.1,0S15.1,5.6,15,5.7c0,0,0,0.1-0.1,0.1c0,0,0,0,0,0.1c-0.1,0.4-0.2,0.7-0.3,1c-0.1,0.3-0.2,0.5-0.2,0.7
			c-0.1,0.2-0.1,0.3-0.1,0.4c0,0.1-0.1,0.2-0.1,0.2c0,0,0,0.1,0,0.1c0,0,0,0,0,0c0,0,0,0,0,0c0,0.1,0.1,0.2,0.2,0.3
			c0.1,0.1,0.2,0.1,0.3,0.2c0.1,0,0.2,0.1,0.4,0.1c0.1,0,0.2,0,0.3,0h0.2c0,0,0,0,0,0c0,0,0,0,0,0v0.2c0,0,0,0,0,0c0,0,0,0,0,0h-3.4
			c0,0-0.1,0-0.1-0.1V8.8z M15.4,4.6C15.3,4.6,15.3,4.7,15.4,4.6c0,0.1,0,0.1,0,0.1c0,0,0,0,0,0.1c0,0,0,0,0.1,0h1.9
			c0,0,0.1,0,0.1,0c0,0,0,0,0-0.1c0,0,0,0,0-0.1c0,0,0,0,0-0.1l-0.8-2.3c0-0.1-0.1-0.1-0.1-0.1c0,0-0.1,0-0.1,0c0,0-0.1,0-0.1,0
			c0,0-0.1,0.1-0.1,0.1L15.4,4.6z"/>
		<path d="M24.1,9.1C24,9.1,24,9.1,24.1,9.1l0-0.3c0,0,0-0.1,0.1-0.1c0,0,0.1,0,0.2,0s0.1,0,0.2,0c0.1,0,0.1,0,0.2,0s0.1,0,0.1,0
			c0.1-0.1,0.2-0.1,0.3-0.2c0.1-0.1,0.1-0.2,0.2-0.3c0-0.1,0.1-0.2,0.1-0.4c0-0.1,0-0.3,0-0.4V1.2c0-0.1,0-0.2-0.1-0.3
			c-0.1-0.1-0.2-0.1-0.3-0.2c-0.1,0-0.2-0.1-0.4-0.1c-0.1,0-0.2,0-0.3,0c0,0,0,0,0,0c0,0,0,0,0,0V0.3c0,0,0,0,0,0c0,0,0,0,0,0h2.9
			l5.4,6c0,0,0,0,0,0c0,0,0,0,0,0c0,0,0,0,0,0s0,0,0,0V2.5c0-0.4,0-0.7,0-1c0-0.2-0.1-0.4-0.2-0.6c-0.1-0.1-0.2-0.2-0.3-0.3
			s-0.3-0.1-0.5-0.1h-0.3c0,0,0,0,0,0c0,0,0,0,0,0V0.3c0,0,0,0,0,0c0,0,0,0,0,0h3.5c0,0,0,0,0,0c0,0,0,0,0,0v0.3c0,0,0,0,0,0
			c0,0,0,0,0,0c-0.1,0-0.2,0-0.3,0.1c-0.1,0-0.3,0.1-0.4,0.1S33.6,1,33.5,1.1c-0.1,0.1-0.1,0.2-0.1,0.3v7.4c0,0.1,0,0.1-0.1,0.2
			c0,0-0.1,0.1-0.1,0.1c-0.1,0-0.1,0.1-0.2,0.1c-0.1,0-0.1,0-0.2,0c-0.1,0-0.2,0-0.3-0.1c-0.1,0-0.2-0.1-0.3-0.2l-5.9-6.6
			c0,0-0.1,0-0.1-0.1c0,0,0,0-0.1,0c0,0,0,0,0,0.1V8c0,0.1,0,0.2,0.1,0.3c0.1,0.1,0.1,0.2,0.2,0.2c0.1,0.1,0.2,0.1,0.3,0.1
			c0.1,0,0.2,0.1,0.3,0.1c0.1,0,0.2,0,0.3,0c0.1,0,0.1,0,0.2,0c0,0,0,0,0,0c0,0,0,0,0,0v0.3c0,0,0,0,0,0c0,0,0,0,0,0L24.1,9.1
			C24.1,9.1,24.1,9.1,24.1,9.1z"/>
		<path d="M38.3,1.4c0-0.1,0-0.3-0.1-0.4c-0.1-0.1-0.2-0.2-0.3-0.2c-0.1-0.1-0.3-0.1-0.4-0.1c-0.1,0-0.3,0-0.4-0.1
			c0,0-0.1,0-0.1-0.1V0.3c0,0,0-0.1,0-0.1h4.3c0,0,0,0,0,0c0,0,0,0,0,0v0.2c0,0,0,0-0.1,0c-0.1,0-0.3,0-0.4,0
			c-0.1,0-0.3,0.1-0.4,0.1c-0.1,0.1-0.2,0.1-0.3,0.2c-0.1,0.1-0.1,0.2-0.1,0.4V4c0,0.2,0,0.3,0,0.4c0,0.1,0,0.1,0.1,0.1
			c0,0,0,0,0.1,0c0,0,0,0,0.1,0c0.2-0.1,0.5-0.2,0.6-0.4c0.2-0.2,0.4-0.3,0.5-0.5C41.7,3.4,41.9,3.2,42,3c0.1-0.2,0.3-0.4,0.4-0.6
			c0.1-0.1,0.2-0.2,0.2-0.3c0.1-0.1,0.2-0.2,0.2-0.3C43,1.6,43,1.5,43.1,1.4c0-0.1,0.1-0.2,0.1-0.3c0-0.1,0-0.2-0.1-0.3
			c-0.1-0.1-0.1-0.1-0.2-0.1c-0.1,0-0.2-0.1-0.3-0.1c-0.1,0-0.2,0-0.3,0h-0.1c0,0,0,0,0,0c0,0,0,0,0,0V0.3c0,0,0,0,0,0c0,0,0,0,0,0
			h3.8c0,0,0,0,0,0c0,0,0,0,0,0v0.2c0,0,0,0,0,0c0,0,0,0-0.1,0c-0.3,0-0.5,0-0.7,0.1c-0.2,0-0.4,0.1-0.6,0.2S44.4,1,44.3,1.2
			c-0.1,0.1-0.3,0.3-0.4,0.5c-0.2,0.4-0.4,0.7-0.6,1c-0.2,0.3-0.3,0.5-0.5,0.7c-0.1,0.2-0.3,0.3-0.3,0.4c-0.1,0.1-0.2,0.2-0.2,0.3
			c-0.1,0.1-0.1,0.1-0.2,0.2c0,0-0.1,0.1-0.1,0.1c0,0,0.1,0.1,0.1,0.2c0.1,0.1,0.2,0.2,0.3,0.3c0.1,0.1,0.3,0.3,0.4,0.4
			c0.2,0.2,0.4,0.4,0.6,0.6c0.2,0.2,0.5,0.5,0.7,0.9c0.3,0.3,0.5,0.7,0.9,1.2c0.1,0.2,0.3,0.4,0.6,0.5c0.2,0.1,0.5,0.2,0.7,0.3
			c0.1,0,0.3,0.1,0.3,0.1c0.1,0,0.2,0,0.2,0c0.1,0,0.1,0,0.1,0c0,0,0.1,0,0.1,0c0,0,0,0,0,0c0,0,0,0,0,0v0.2c0,0,0,0.1-0.1,0.1h-4.7
			c0,0-0.1,0-0.1-0.1V8.9c0,0,0,0,0.1-0.1c0.1,0,0.1,0,0.2,0c0.1,0,0.2,0,0.3,0c0.1,0,0.2,0,0.2-0.1c0.1,0,0.1-0.1,0.1-0.2
			c0-0.1-0.1-0.2-0.1-0.3C43.1,8,43,7.9,42.9,7.7c-0.1-0.2-0.3-0.3-0.4-0.5c-0.1-0.2-0.3-0.3-0.4-0.5c-0.1-0.2-0.3-0.3-0.4-0.5
			c-0.1-0.2-0.3-0.3-0.4-0.5c-0.1-0.1-0.3-0.3-0.4-0.3c-0.2-0.1-0.3-0.1-0.5-0.1h-0.1c0,0-0.1,0-0.1,0c0,0,0,0,0,0.1V8
			c0,0.2,0,0.3,0.1,0.4c0.1,0.1,0.2,0.2,0.3,0.2c0.1,0.1,0.3,0.1,0.4,0.1c0.1,0,0.3,0,0.4,0c0,0,0,0,0,0c0,0,0,0,0,0v0.2
			c0,0,0,0,0,0c0,0,0,0,0,0h-4.3c0,0,0,0,0-0.1V8.9c0,0,0-0.1,0.1-0.1c0.1,0,0.3,0,0.4-0.1c0.1,0,0.3-0.1,0.4-0.1
			c0.1-0.1,0.2-0.1,0.3-0.2c0.1-0.1,0.1-0.2,0.1-0.4V1.4z"/>
		<path d="M53.6,9.3c-0.1,0-0.3,0-0.6,0c-0.2,0-0.5-0.1-0.7-0.1C52,9.1,51.8,9,51.5,8.9c-0.3-0.1-0.6-0.2-0.8-0.4
			c-0.3-0.2-0.5-0.4-0.8-0.6c-0.2-0.2-0.5-0.5-0.7-0.8C49,6.7,48.9,6.4,48.8,6c-0.1-0.4-0.2-0.8-0.2-1.3c0-0.4,0.1-0.9,0.2-1.3
			c0.1-0.4,0.3-0.8,0.5-1.1c0.2-0.3,0.5-0.7,0.8-0.9c0.3-0.3,0.7-0.5,1.1-0.7c0.4-0.2,0.8-0.3,1.3-0.5S53.4,0,53.9,0
			c0.4,0,0.9,0.1,1.3,0.2c0.4,0.1,0.8,0.3,1.1,0.5c0.4,0.2,0.7,0.4,1,0.7c0.3,0.3,0.5,0.6,0.8,0.9s0.4,0.7,0.5,1.1
			c0.1,0.4,0.2,0.8,0.2,1.2c0,0.4-0.1,0.8-0.2,1.2c-0.1,0.4-0.3,0.8-0.5,1.1c-0.2,0.4-0.5,0.7-0.8,1c-0.3,0.3-0.6,0.6-1,0.8
			C55.9,8.8,55.5,9,55,9.1S54.1,9.3,53.6,9.3z M50.4,4.4c0,0.3,0,0.7,0.1,1c0.1,0.3,0.2,0.7,0.3,1C51,6.7,51.2,7,51.4,7.3
			C51.6,7.6,51.8,7.8,52,8c0.3,0.2,0.5,0.4,0.8,0.5c0.3,0.1,0.6,0.2,1,0.2c0.5,0,0.9-0.1,1.3-0.3c0.4-0.2,0.7-0.5,0.9-0.9
			c0.2-0.4,0.4-0.8,0.5-1.2c0.1-0.5,0.2-0.9,0.2-1.4c0-0.4,0-0.7-0.1-1.1c-0.1-0.3-0.2-0.7-0.3-1c-0.1-0.3-0.3-0.6-0.5-0.9
			c-0.2-0.3-0.4-0.5-0.7-0.7C55,1,54.7,0.9,54.4,0.8c-0.3-0.1-0.6-0.2-1-0.2c-0.3,0-0.6,0.1-0.9,0.2S52,1,51.8,1.2
			c-0.2,0.2-0.4,0.4-0.6,0.6c-0.2,0.2-0.3,0.5-0.4,0.8c-0.1,0.3-0.2,0.6-0.3,0.9C50.5,3.8,50.4,4.1,50.4,4.4z"/>
		<path d="M66.9,8.8C66.9,8.8,66.9,8.8,66.9,8.8C66.9,8.8,66.9,8.8,66.9,8.8c0.3-0.1,0.5-0.1,0.7-0.1c0.2-0.1,0.3-0.2,0.3-0.3
			C68,8.3,68,8.1,68.1,8s0-0.3,0-0.5c0-0.5,0.1-1.1,0.1-1.6c0-0.5,0.1-1,0.1-1.5c0-0.5,0.1-1,0.1-1.5c0-0.5,0-1,0-1.5V1.2
			c0-0.1,0-0.2-0.1-0.3c-0.1-0.1-0.1-0.1-0.2-0.2c-0.1-0.1-0.2-0.1-0.3-0.1c-0.1,0-0.2,0-0.2,0c0,0-0.1,0-0.1-0.1V0.3c0,0,0,0,0,0
			c0,0,0,0,0,0h2.2c0,0,0.1,0,0.1,0c0,0,0.1,0.1,0.1,0.1l2.7,6.1c0,0.1,0.1,0.1,0.1,0.1c0,0,0.1,0,0.1,0c0,0,0,0,0.1-0.1l2.7-6
			c0-0.1,0.1-0.1,0.1-0.2c0,0,0.1-0.1,0.1-0.1h2.2c0,0,0,0,0,0s0,0,0,0v0.3c0,0,0,0,0,0c0,0,0,0,0,0c0,0-0.1,0-0.1,0
			c-0.1,0-0.2,0-0.3,0.1c-0.1,0-0.2,0.1-0.3,0.2c-0.1,0.1-0.1,0.2-0.1,0.4L77.7,8c0,0.1,0,0.2,0.1,0.3C77.9,8.4,78,8.5,78,8.5
			s0.2,0.1,0.3,0.1c0.1,0,0.2,0,0.3,0.1c0.1,0,0.2,0,0.2,0c0.1,0,0.1,0,0.1,0c0,0,0,0,0,0c0,0,0,0,0,0v0.3c0,0,0,0,0,0c0,0,0,0,0,0
			h-4.1c0,0-0.1,0-0.1-0.1V8.8c0,0,0-0.1,0.1-0.1c0.1,0,0.2,0,0.3,0c0.1,0,0.3,0,0.4-0.1s0.2-0.1,0.3-0.2c0.1-0.1,0.1-0.2,0.1-0.3
			l-0.3-5.1c0,0,0-0.1,0-0.1c0,0,0,0-0.1,0.1l-2.8,6c0,0,0,0.1-0.1,0.1c0,0-0.1,0-0.2,0c-0.2,0-0.3,0-0.3,0c-0.1,0-0.1,0-0.1-0.1
			l-2.7-5.9c0,0,0-0.1,0-0.1c0,0,0,0,0,0c0,0,0,0,0,0.1c0,0.1,0,0.3,0,0.6c0,0.2,0,0.5-0.1,0.8c0,0.3,0,0.6-0.1,1c0,0.3,0,0.7-0.1,1
			c0,0.3,0,0.6-0.1,0.9c0,0.3,0,0.5,0,0.7v0.3c0,0.1,0.1,0.2,0.1,0.2c0.1,0.1,0.2,0.1,0.3,0.2s0.2,0.1,0.3,0.1c0.1,0,0.2,0,0.4,0
			c0,0,0,0,0,0c0,0,0,0,0,0v0.3c0,0,0,0.1,0,0.1h-3.1c0,0-0.1,0-0.1-0.1V8.8z"/>
		<path d="M81.2,8.8C81.2,8.8,81.2,8.8,81.2,8.8C81.2,8.8,81.2,8.8,81.2,8.8l0.2-0.1c0.2,0,0.4,0,0.5,0c0.2,0,0.4,0,0.5-0.1
			c0.2,0,0.3-0.1,0.4-0.2C82.9,8.3,83,8.2,83,7.9V1.5c0-0.2,0-0.3-0.1-0.4c-0.1-0.1-0.2-0.2-0.3-0.2s-0.2-0.1-0.4-0.1
			c-0.1,0-0.3-0.1-0.4-0.1h-0.1c0,0,0,0,0,0c0,0,0,0,0,0V0.3c0,0,0,0,0,0c0,0,0,0,0,0h6.3c0.1,0,0.1,0,0.2,0c0,0,0.1,0.1,0.1,0.2
			l0.1,2c0,0,0,0-0.1,0c0,0-0.1,0-0.1,0c0,0-0.1,0-0.1,0c0,0-0.1,0-0.1,0c0,0-0.1-0.1-0.1-0.2c0-0.1,0-0.2,0-0.3
			c0-0.1,0-0.2-0.1-0.3c0-0.1-0.1-0.2-0.1-0.3c-0.1-0.1-0.1-0.2-0.2-0.2c-0.1-0.1-0.2-0.1-0.4-0.1h-2.2c-0.1,0-0.1,0-0.1,0.1v3
			c0,0,0,0.1,0.1,0.1h1.8c0.1,0,0.2,0,0.3,0c0.1,0,0.2-0.1,0.3-0.1c0.1-0.1,0.1-0.2,0.2-0.3c0-0.1,0.1-0.3,0.1-0.5
			c0,0,0-0.1,0.1-0.1h0.2c0,0,0.1,0,0.1,0.1v2.9c0,0,0,0,0,0c0,0,0,0,0,0h-0.2c0,0,0,0,0,0c0,0,0,0,0,0c0-0.2,0-0.4-0.1-0.6
			c0-0.1-0.1-0.3-0.2-0.3C87.1,5.1,87,5.1,86.9,5c-0.1,0-0.2,0-0.3,0h-1.8c0,0-0.1,0-0.1,0.1v2.7c0,0.1,0,0.2,0.1,0.3
			c0,0.1,0.1,0.1,0.2,0.2c0.1,0,0.1,0.1,0.2,0.1s0.2,0,0.3,0h1.7c0.2,0,0.4-0.1,0.6-0.2c0.2-0.1,0.3-0.2,0.4-0.4
			c0.1-0.2,0.2-0.3,0.2-0.5c0-0.2,0.1-0.3,0.1-0.4c0-0.1,0-0.1,0.1-0.1c0,0,0.1,0,0.2,0c0,0,0,0,0.1,0c0,0,0,0,0,0.1L88.6,9
			c0,0,0,0,0,0.1c0,0,0,0-0.1,0h-7.3c0,0,0,0,0,0c0,0,0,0,0,0V9V8.8z"/>
		<path d="M91.6,8.8C91.6,8.8,91.6,8.8,91.6,8.8C91.6,8.8,91.6,8.8,91.6,8.8c0.1-0.1,0.1-0.1,0.2-0.1c0.1,0,0.1,0,0.2,0s0.1,0,0.2,0
			c0.1,0,0.1,0,0.1,0c0.2-0.1,0.4-0.1,0.5-0.3c0.1-0.1,0.1-0.3,0.1-0.5V1.5c0-0.2,0-0.4-0.1-0.5s-0.2-0.2-0.3-0.3
			c-0.1-0.1-0.2-0.1-0.3-0.1c-0.1,0-0.2,0-0.2,0h-0.2c0,0,0,0,0,0c0,0,0,0,0,0V0.3c0,0,0,0,0,0c0,0,0,0,0,0c0,0,0,0,0,0
			c0,0,0,0,0.1,0c0,0,0.1,0,0.2,0c0.1,0,0.2,0,0.4,0c0.2,0,0.5,0,0.7,0c0.3,0,0.5,0,0.8,0c0.3,0,0.5,0,0.8,0c0.3,0,0.5,0,0.7,0H96
			c0.3,0,0.7,0.1,1,0.2c0.3,0.1,0.7,0.3,0.9,0.5c0.3,0.2,0.5,0.5,0.7,0.8c0.2,0.3,0.3,0.7,0.3,1.1c0,0.3,0,0.5-0.1,0.7
			c-0.1,0.2-0.2,0.4-0.3,0.6c-0.1,0.2-0.3,0.3-0.5,0.4c-0.2,0.1-0.4,0.2-0.6,0.3l1.9,3c0.2,0.3,0.4,0.5,0.6,0.7
			c0.2,0.2,0.5,0.4,0.8,0.4c0,0,0.1,0,0.1,0c0,0,0,0,0,0.1c0,0.1,0,0.1-0.1,0.1c0,0-0.1,0-0.2,0c-0.2,0-0.4,0-0.6,0
			c-0.2,0-0.4-0.1-0.7-0.1C99,9.1,98.8,9,98.6,8.9c-0.2-0.1-0.4-0.2-0.5-0.3c-0.1-0.1-0.3-0.3-0.4-0.4c-0.1-0.2-0.3-0.4-0.4-0.6
			c-0.1-0.2-0.3-0.4-0.4-0.6c-0.1-0.2-0.3-0.4-0.4-0.7c-0.1-0.2-0.3-0.4-0.4-0.6c-0.1-0.2-0.2-0.3-0.3-0.5l-1-0.1c0,0,0,0-0.1,0
			s-0.1,0-0.1,0c0,0,0,0,0,0c0,0,0,0,0,0.1v2.7c0,0.1,0,0.2,0,0.3s0.1,0.2,0.1,0.2c0.1,0.1,0.2,0.1,0.3,0.1c0.1,0,0.2,0.1,0.4,0.1
			c0,0,0.1,0,0.1,0c0,0,0.1,0,0.2,0c0.1,0,0.1,0,0.2,0c0.1,0,0.1,0,0.1,0c0,0,0,0,0,0s0,0,0,0v0.3c0,0,0,0,0,0c0,0,0,0,0,0h-4.4
			c0,0,0,0,0-0.1C91.6,9,91.6,8.9,91.6,8.8L91.6,8.8z M94.7,4.5C94.7,4.6,94.7,4.6,94.7,4.5c0,0.1,0.1,0.1,0.1,0.1c0,0,0.1,0,0.2,0
			c0.1,0,0.2,0,0.3,0c0.4,0,0.7-0.1,0.9-0.2s0.4-0.3,0.6-0.5C96.9,3.9,97,3.7,97,3.4c0.1-0.2,0.1-0.5,0.1-0.8c0-0.3,0-0.5-0.1-0.8
			c-0.1-0.3-0.2-0.5-0.4-0.7c-0.2-0.2-0.3-0.3-0.6-0.4c-0.2-0.1-0.5-0.2-0.7-0.2c-0.1,0-0.1,0-0.1,0c0,0-0.1,0-0.1,0
			c0,0-0.1,0-0.1,0c0,0-0.1,0-0.2,0c0,0-0.1,0-0.1,0c0,0-0.1,0-0.1,0.1v3.6L94.7,4.5z"/>
		<path d="M102.8,8.8C102.8,8.8,102.8,8.8,102.8,8.8C102.8,8.8,102.8,8.8,102.8,8.8l0.2-0.1c0.2,0,0.4,0,0.5,0c0.2,0,0.4,0,0.5-0.1
			c0.2,0,0.3-0.1,0.4-0.2c0.1-0.1,0.1-0.3,0.1-0.5V1.5c0-0.2,0-0.3-0.1-0.4c-0.1-0.1-0.2-0.2-0.3-0.2c-0.1-0.1-0.2-0.1-0.4-0.1
			c-0.1,0-0.3-0.1-0.4-0.1h-0.1c0,0,0,0,0,0c0,0,0,0,0,0V0.3c0,0,0,0,0,0c0,0,0,0,0,0h6.3c0.1,0,0.1,0,0.2,0c0,0,0.1,0.1,0.1,0.2
			l0.1,2c0,0,0,0-0.1,0c0,0-0.1,0-0.1,0c0,0-0.1,0-0.1,0s-0.1,0-0.1,0c0,0-0.1-0.1-0.1-0.2c0-0.1,0-0.2,0-0.3c0-0.1,0-0.2-0.1-0.3
			c0-0.1-0.1-0.2-0.1-0.3c-0.1-0.1-0.1-0.2-0.2-0.2c-0.1-0.1-0.2-0.1-0.4-0.1h-2.2c-0.1,0-0.1,0-0.1,0.1v3c0,0,0,0.1,0.1,0.1h1.8
			c0.1,0,0.2,0,0.3,0c0.1,0,0.2-0.1,0.3-0.1c0.1-0.1,0.1-0.2,0.2-0.3c0-0.1,0.1-0.3,0.1-0.5c0,0,0-0.1,0.1-0.1h0.2
			c0,0,0.1,0,0.1,0.1v2.9c0,0,0,0,0,0c0,0,0,0,0,0h-0.2c0,0,0,0,0,0c0,0,0,0,0,0c0-0.2,0-0.4-0.1-0.6c0-0.1-0.1-0.3-0.2-0.3
			c-0.1-0.1-0.2-0.1-0.3-0.2c-0.1,0-0.2,0-0.3,0h-1.8c0,0-0.1,0-0.1,0.1v2.7c0,0.1,0,0.2,0.1,0.3c0,0.1,0.1,0.1,0.2,0.2
			c0.1,0,0.1,0.1,0.2,0.1c0.1,0,0.2,0,0.3,0h1.7c0.2,0,0.4-0.1,0.6-0.2c0.2-0.1,0.3-0.2,0.4-0.4c0.1-0.2,0.2-0.3,0.2-0.5
			c0-0.2,0.1-0.3,0.1-0.4c0-0.1,0-0.1,0.1-0.1c0,0,0.1,0,0.2,0c0,0,0,0,0.1,0c0,0,0,0,0,0.1L110.2,9c0,0,0,0,0,0.1c0,0,0,0-0.1,0
			h-7.3c0,0,0,0,0,0c0,0,0,0,0,0V9V8.8z"/>
		<path d="M113.3,9.1C113.2,9.1,113.2,9.1,113.3,9.1C113.2,9.1,113.2,9.1,113.3,9.1l-0.1-0.3c0,0,0,0,0,0c0,0,0,0,0,0h0.1
			c0.1,0,0.2,0,0.3,0c0.1,0,0.3,0,0.4-0.1c0.1,0,0.2-0.1,0.3-0.2c0.1-0.1,0.1-0.2,0.1-0.4V1.3c0-0.1,0-0.2-0.1-0.3
			c-0.1-0.1-0.1-0.2-0.2-0.2c-0.1-0.1-0.2-0.1-0.3-0.1c-0.1,0-0.2,0-0.3,0h-0.4c0,0,0,0,0,0c0,0,0,0,0,0V0.3c0,0,0,0,0,0
			c0,0,0,0,0,0h0.1l2.6,0c0.2,0,0.5,0,0.8,0c0.3,0,0.5,0,0.8,0c0.3,0,0.5,0,0.7,0c0.2,0,0.4,0,0.6,0c0.2,0,0.4,0,0.6,0.1
			c0.2,0,0.4,0.1,0.7,0.1c0.5,0.1,0.9,0.3,1.3,0.5c0.4,0.3,0.7,0.6,1,0.9c0.3,0.4,0.5,0.8,0.7,1.2c0.2,0.4,0.2,0.9,0.2,1.4
			c0,0.5-0.1,0.9-0.2,1.3c-0.1,0.4-0.3,0.8-0.5,1.1c-0.2,0.3-0.5,0.6-0.8,0.9c-0.3,0.3-0.6,0.5-1,0.7c-0.4,0.2-0.8,0.3-1.2,0.4
			c-0.4,0.1-0.8,0.2-1.3,0.2h-5H113.3z M116.3,8.2c0,0.1,0,0.2,0.1,0.3c0.1,0.1,0.2,0.1,0.3,0.1c0.1,0,0.3,0,0.4,0.1
			c0.2,0,0.4,0,0.5,0c1.2,0,2.2-0.3,2.8-1c0.6-0.7,0.9-1.7,0.9-3c0-0.6-0.1-1.1-0.2-1.6c-0.1-0.5-0.4-0.9-0.6-1.2
			c-0.3-0.3-0.6-0.6-1.1-0.8c-0.4-0.2-0.9-0.3-1.5-0.3h-1.5c-0.1,0-0.1,0-0.1,0c0,0,0,0.1,0,0.1V8.2L116.3,8.2z"/>
		<path d="M129,8.3c0,0.1,0.1,0.2,0.2,0.2c0.1,0.1,0.2,0.1,0.3,0.1c0.1,0,0.3,0,0.4,0c0,0,0.1,0,0.1,0.1v0.3c0,0,0,0,0,0
			c0,0,0,0,0,0h-3.7c0,0,0,0,0,0c0,0,0,0,0,0V8.7c0,0,0,0,0,0c0,0,0,0,0,0c0.1,0,0.3,0,0.4,0c0.1,0,0.2-0.1,0.3-0.1s0.1-0.2,0.2-0.3
			c0-0.1,0.1-0.3,0.1-0.5V1.5c0-0.1,0-0.3-0.1-0.4c0-0.1-0.1-0.2-0.2-0.2c-0.1-0.1-0.2-0.1-0.3-0.1c-0.1,0-0.3,0-0.4,0
			c0,0-0.1,0-0.1-0.1V0.3c0,0,0-0.1,0.1-0.1h3.7c0,0,0,0,0,0c0,0,0,0,0,0v0.3c0,0,0,0,0,0c0,0,0,0,0,0c-0.1,0-0.3,0-0.4,0
			c-0.1,0-0.2,0.1-0.3,0.1S129,1,129,1.1c0,0.1-0.1,0.3-0.1,0.5v6.3C128.9,8.1,128.9,8.2,129,8.3z"/>
		<path d="M135.8,1.1c0,0-0.1,0-0.1,0h-2.1c-0.2,0-0.3,0.1-0.4,0.2c-0.1,0.1-0.2,0.2-0.2,0.3s-0.1,0.3-0.1,0.4
			c0,0.1-0.1,0.3-0.1,0.4c0,0,0,0.1,0,0.1c0,0.1,0,0.1,0,0.1c0,0,0,0,0,0h-0.2c0,0,0,0,0,0V2.4l0.2-2.2c0,0,0-0.1,0.1-0.1
			s0.1-0.1,0.1-0.1c0,0,0.1,0,0.1,0c0,0,0.1,0,0.1,0.1c0,0,0,0,0.1,0.1c0,0,0,0,0.1,0c0.1,0,0.1,0,0.1,0c0,0,0.1,0,0.1,0h6.6
			c0.1,0,0.1,0,0.1,0c0,0,0.1,0,0.1,0c0,0,0,0,0.1,0c0,0,0,0,0.1-0.1c0,0,0.1,0,0.1-0.1c0,0,0.1,0,0.1,0c0.1,0,0.1,0,0.1,0.1
			s0,0.1,0.1,0.1l0.2,2.2v0.2c0,0,0,0,0,0h-0.2c0,0,0,0,0,0c0,0,0,0,0-0.1c0-0.1,0-0.1,0-0.1c0-0.1-0.1-0.3-0.1-0.4
			c0-0.1-0.1-0.3-0.1-0.4s-0.1-0.2-0.2-0.3c-0.1-0.1-0.2-0.2-0.4-0.2h-2.1c-0.1,0-0.1,0-0.1,0c0,0-0.1,0.1-0.1,0.1v6.7
			c0,0.1,0,0.2,0.1,0.3c0.1,0.1,0.1,0.2,0.3,0.3c0.1,0.1,0.2,0.1,0.4,0.2c0.1,0,0.3,0.1,0.5,0.1c0,0,0.1,0,0.2,0c0.1,0,0.1,0,0.2,0
			c0,0,0,0,0,0c0,0,0,0,0,0v0.2c0,0,0,0,0,0c0,0,0,0,0,0h-4.9c0,0,0,0,0,0c0,0,0,0,0,0V8.8c0,0,0,0,0,0c0,0,0,0,0,0c0,0,0.1,0,0.2,0
			c0.1,0,0.1,0,0.2,0c0.2,0,0.3,0,0.5-0.1c0.1,0,0.3-0.1,0.4-0.2c0.1-0.1,0.2-0.2,0.3-0.3c0.1-0.1,0.1-0.2,0.1-0.3V1.2
			C135.9,1.1,135.8,1.1,135.8,1.1z"/>
		<path d="M143.4,9.1C143.4,9.1,143.4,9.1,143.4,9.1l0-0.4c0,0,0,0,0,0c0,0,0,0,0,0c0.1,0,0.3,0,0.4,0c0.1,0,0.3-0.1,0.4-0.1
			c0.1-0.1,0.2-0.2,0.3-0.3c0.1-0.1,0.1-0.3,0.1-0.5V1.5c0-0.1,0-0.3-0.1-0.4s-0.1-0.2-0.2-0.2c-0.1-0.1-0.2-0.1-0.3-0.1
			c-0.1,0-0.2,0-0.4-0.1c0,0-0.1,0-0.1-0.1V0.3c0,0,0-0.1,0-0.1h3.7c0,0,0,0,0,0c0,0,0,0,0,0v0.3c0,0,0,0-0.1,0c-0.1,0-0.2,0-0.4,0
			c-0.1,0-0.2,0.1-0.3,0.1s-0.2,0.2-0.2,0.3c-0.1,0.1-0.1,0.3-0.1,0.5v2.6c0,0,0,0.1,0,0.1c0,0,0,0,0.1,0h4.4c0,0,0.1,0,0.1,0
			c0,0,0,0,0-0.1V1.5c0-0.1,0-0.3-0.1-0.4c-0.1-0.1-0.2-0.2-0.3-0.2c-0.1-0.1-0.3-0.1-0.5-0.1c-0.2,0-0.3,0-0.5-0.1
			c0,0-0.1,0-0.1-0.1V0.3c0,0,0-0.1,0-0.1h4.2c0,0,0,0,0,0c0,0,0,0,0,0v0.3c0,0,0,0-0.1,0c-0.1,0-0.2,0-0.4,0
			c-0.1,0-0.2,0.1-0.3,0.1c-0.1,0.1-0.2,0.2-0.2,0.3c-0.1,0.1-0.1,0.3-0.1,0.5v6.2c0,0.1,0,0.2,0,0.3c0,0.1,0.1,0.2,0.1,0.3
			c0.1,0.1,0.2,0.2,0.3,0.2c0.2,0.1,0.4,0.1,0.7,0.1c0,0,0.1,0,0.1,0.1v0.3c0,0,0,0.1-0.1,0.1h-4.6c0,0,0,0,0,0c0,0,0,0,0,0V8.7
			c0,0,0,0,0,0c0,0,0,0,0,0c0.1,0,0.3,0,0.5,0c0.2,0,0.4-0.1,0.5-0.1c0.2-0.1,0.3-0.1,0.4-0.2c0.1-0.1,0.2-0.3,0.2-0.4V5.2
			c0,0,0-0.1,0-0.1c0,0,0,0-0.1,0h-4.4c0,0-0.1,0-0.1,0c0,0,0,0,0,0.1v2.8c0,0.1,0,0.3,0.1,0.4c0.1,0.1,0.1,0.2,0.2,0.2
			c0.1,0.1,0.2,0.1,0.4,0.1c0.1,0,0.3,0,0.4,0c0,0,0,0,0,0c0,0,0,0,0,0v0.3c0,0,0,0,0,0c0,0,0,0,0,0L143.4,9.1
			C143.4,9.1,143.4,9.1,143.4,9.1z"/>
	</g>
</g>
</svg>
