<svg version="1.1" id="city" xmlns="http://www.w3.org/2000/svg" xmlns:xlink="http://www.w3.org/1999/xlink"
	 x="0px" y="0px" width="264.6px" height="375.7px" viewBox="0 0 264.6 375.7" style="enable-background:new 0 0 264.6 375.7;"
	 xml:space="preserve">
<style type="text/css">
	.city-st0{fill:#BF8929;}
</style>
<g>
	<g>
		<g>
			<g>
				<path class="city-st0" d="M217.6,292.4v-1.5l0,0v-1.5h3v3C217.6,292.4,220.6,292.4,217.6,292.4z M217.6,286.4v-1.5l0,0v-1.5h3v3
					C217.6,286.4,220.6,286.4,217.6,286.4z M217.6,280.3v-1.5l0,0v-1.5h3v3C217.6,280.3,220.6,280.3,217.6,280.3z M217.6,274.3v-1.5
					l0,0v-1.5h3v3C217.6,274.3,220.6,274.3,217.6,274.3z M217.6,268.3v-1.5l0,0v-1.5h3v3C217.6,268.3,220.6,268.3,217.6,268.3z
					 M217.6,262.3v-1.5l0,0v-1.5h3v3C217.6,262.3,220.6,262.3,217.6,262.3z M217.6,256.3v-1.5l0,0v-1.5h3v3
					C217.6,256.3,220.6,256.3,217.6,256.3z M217.6,250.3v-1.5l0,0v-1.5h3v3C217.6,250.3,220.6,250.3,217.6,250.3z M217.6,244.3v-1.5
					l0,0v-1.5h3v3C217.6,244.3,220.6,244.3,217.6,244.3z M217.6,238.3v-1.5l0,0v-1.5h3v3C217.6,238.3,220.6,238.3,217.6,238.3z
					 M217.6,232.2v-1.5l0,0v-1.5h3v3C217.6,232.2,220.6,232.2,217.6,232.2z M217.6,226.2v-1.5l0,0v-1.5h3v3
					C217.6,226.2,220.6,226.2,217.6,226.2z M217.6,220.2v-3h3v3C217.6,220.2,220.6,220.2,217.6,220.2z M217.6,214.2v-1.5l0,0v-1.5h3
					v3C217.6,214.2,220.6,214.2,217.6,214.2z M217.6,208.2v-1.5l0,0v-1.5h3v3C217.6,208.2,220.6,208.2,217.6,208.2z M217.6,202.2
					v-1.5l0,0v-1.5h3v3C217.6,202.2,220.6,202.2,217.6,202.2z M217.6,196.1v-1.5l0,0v-1.5h3v3C217.6,196.1,220.6,196.1,217.6,196.1z
					 M217.6,190.1v-1.5l0,0v-1.5h3v3C217.6,190.1,220.6,190.1,217.6,190.1z M217.6,184.1v-1.5l0,0v-1.5h3v3
					C217.6,184.1,220.6,184.1,217.6,184.1z M217.6,178.1v-1.5l0,0v-1.5h3v3C217.6,178.1,220.6,178.1,217.6,178.1z M217.6,172.1v-1.5
					l0,0v-1.5h3v3C217.6,172.1,220.6,172.1,217.6,172.1z"/>
			</g>
		</g>
	</g>
	<g>
		<g>
			<g>
				<g>
					<path class="city-st0" d="M14.5,375.3c-0.3,0-0.6-0.1-0.8-0.2c-0.7-0.5-0.9-1.4-0.4-2.1l9.8-15L59.4,1.3C59.5,0.5,60.2-0.1,61,0
						c0.8,0.1,1.4,0.8,1.3,1.6L26,358.7c0,0.2-0.1,0.5-0.2,0.7l-10,15.3C15.5,375.1,15,375.3,14.5,375.3z"/>
				</g>
			</g>
		</g>
		<g>
			<g>
				<g>
					<path class="city-st0" d="M109.2,375.3c-0.5,0-0.9-0.2-1.2-0.6l-11.3-15.3c-0.2-0.2-0.3-0.5-0.3-0.7l-37-357
						c-0.1-0.8,0.5-1.6,1.3-1.6c0.8-0.1,1.6,0.5,1.6,1.3l37,356.6l11.1,15c0.5,0.7,0.4,1.6-0.3,2.1
						C109.8,375.2,109.5,375.3,109.2,375.3z"/>
				</g>
			</g>
		</g>
		<g>
			<g>
				<g>
					<g>
						<polygon class="city-st0" points="44.4,178.4 41.4,178.4 41.4,80.8 53.4,80.8 53.4,83.8 44.4,83.8 						"/>
					</g>
				</g>
			</g>
			<g>
				<g>
					<g>
						<path class="city-st0" d="M44,83.3c-0.5,0-1-0.3-1.3-0.7c-0.4-0.7-0.2-1.6,0.5-2.1l8.7-5.3c0.7-0.4,1.6-0.2,2.1,0.5
							c0.4,0.7,0.2,1.6-0.5,2.1l-8.7,5.3C44.6,83.3,44.3,83.3,44,83.3z"/>
					</g>
				</g>
			</g>
		</g>
		<g>
			<g>
				<g>
					<g>
						<polygon class="city-st0" points="80.9,180.4 77.9,180.4 77.9,83.8 68.9,83.8 68.9,80.8 80.9,80.8 						"/>
					</g>
				</g>
			</g>
			<g>
				<g>
					<g>
						<path class="city-st0" d="M78.2,83.3c-0.3,0-0.5-0.1-0.8-0.2l-8.7-5.3c-0.7-0.4-0.9-1.4-0.5-2.1c0.4-0.7,1.4-0.9,2.1-0.5l8.7,5.3
							c0.7,0.4,0.9,1.4,0.5,2.1C79.2,83.1,78.7,83.3,78.2,83.3z"/>
					</g>
				</g>
			</g>
		</g>
		<g>
			<g>
				<g>
					<path class="city-st0" d="M70.2,375.3C70.2,375.3,70.2,375.3,70.2,375.3c-0.6,0-1-0.3-1.3-0.8l-7.1-12.5L54.1,374
						c-0.3,0.4-0.8,0.7-1.3,0.7c-0.5,0-1-0.3-1.3-0.7l-7.2-12.1l-9.3,12.2c-0.3,0.4-0.8,0.6-1.3,0.6c-0.5,0-0.9-0.3-1.2-0.7
						l-8.7-14.3c-0.4-0.7-0.2-1.5,0.4-2c0.3-0.4,0.7-0.6,1.2-0.6h54.3c0,0,0,0,0,0h17.3c0.5,0,1,0.3,1.3,0.7c0.3,0.5,0.3,1,0,1.5
						l-8,14.7c-0.3,0.5-0.7,0.8-1.3,0.8c-0.6,0-1-0.2-1.3-0.7l-8.1-12.7l-8.4,13.3C71.2,375.1,70.7,375.3,70.2,375.3z M64.1,360
						l6.2,10.9l6.9-10.9H64.1z M27.7,360l6.4,10.5l8-10.5H27.7z M46.8,360l6.1,10.3l6.6-10.3H46.8z M82.6,360l6.5,10.2l5.6-10.2
						H82.6z"/>
				</g>
			</g>
		</g>
		<g>
			<g>
				<g>
					<path class="city-st0" d="M94.4,355H89v-3h5.3V355z M83,355h-9v-3h9V355z M68,355h-9v-3h9V355z M53,355h-9v-3h9V355z M38,355h-9v-3
						h9V355z"/>
				</g>
			</g>
		</g>
		<g>
			<g>
				<g>
					<g>
						<g>
							<path class="city-st0" d="M59.9,105.3v-3h3v3C59.9,105.3,62.9,105.3,59.9,105.3z M54.9,105.3v-3h3v3
								C54.9,105.3,57.9,105.3,54.9,105.3z"/>
						</g>
					</g>
				</g>
			</g>
			<g>
				<g>
					<g>
						<path class="city-st0" d="M55.4,99.8v-3h3v3C55.4,99.8,58.4,99.8,55.4,99.8z"/>
					</g>
				</g>
			</g>
			<g>
				<g>
					<g>
						<path class="city-st0" d="M55.7,94v-3h3v3C55.7,94,58.7,94,55.7,94z"/>
					</g>
				</g>
			</g>
			<g>
				<g>
					<g>
						<g>
							<path class="city-st0" d="M64.4,110.2v-3h3v3C64.4,110.2,67.4,110.2,64.4,110.2z M59.4,110.2v-3h3v3
								C59.4,110.2,62.4,110.2,59.4,110.2z M54.4,110.2v-3h3v3C54.4,110.2,57.4,110.2,54.4,110.2z"/>
						</g>
					</g>
				</g>
			</g>
			<g>
				<g>
					<g>
						<g>
							<path class="city-st0" d="M63.9,115v-3h3v3C63.9,115,66.9,115,63.9,115z M58.9,115v-3h3v3C58.9,115,61.9,115,58.9,115z M53.9,115
								v-3h3v3C53.9,115,56.9,115,53.9,115z"/>
						</g>
					</g>
				</g>
			</g>
			<g>
				<g>
					<g>
						<g>
							<path class="city-st0" d="M63.3,119.9v-3h3v3C63.3,119.9,66.3,119.9,63.3,119.9z M58.3,119.9v-3h3v3
								C58.3,119.9,61.3,119.9,58.3,119.9z M53.3,119.9v-3h3v3C53.3,119.9,56.3,119.9,53.3,119.9z"/>
						</g>
					</g>
				</g>
			</g>
			<g>
				<g>
					<g>
						<g>
							<path class="city-st0" d="M62.8,124.8v-3h3v3C62.8,124.8,65.8,124.8,62.8,124.8z M57.8,124.8v-3h3v3
								C57.8,124.8,60.8,124.8,57.8,124.8z M52.8,124.8v-3h3v3C52.8,124.8,55.8,124.8,52.8,124.8z"/>
						</g>
					</g>
				</g>
			</g>
			<g>
				<g>
					<g>
						<g>
							<path class="city-st0" d="M62.3,129.7v-3h3v3C62.3,129.7,65.3,129.7,62.3,129.7z M57.3,129.7v-3h3v3
								C57.3,129.7,60.3,129.7,57.3,129.7z M52.3,129.7v-3h3v3C52.3,129.7,55.3,129.7,52.3,129.7z"/>
						</g>
					</g>
				</g>
			</g>
			<g>
				<g>
					<g>
						<g>
							<path class="city-st0" d="M66.8,134.5v-3h3v3C66.8,134.5,69.8,134.5,66.8,134.5z M61.8,134.5v-3h3v3
								C61.8,134.5,64.8,134.5,61.8,134.5z M56.8,134.5v-3h3v3C56.8,134.5,59.8,134.5,56.8,134.5z M51.8,134.5v-3h3v3
								C51.8,134.5,54.8,134.5,51.8,134.5z"/>
						</g>
					</g>
				</g>
			</g>
			<g>
				<g>
					<g>
						<g>
							<path class="city-st0" d="M66.2,139.4v-3h3v3C66.2,139.4,69.2,139.4,66.2,139.4z M61.2,139.4v-3h3v3
								C61.2,139.4,64.2,139.4,61.2,139.4z M56.2,139.4v-3h3v3C56.2,139.4,59.2,139.4,56.2,139.4z M51.2,139.4v-3h3v3
								C51.2,139.4,54.2,139.4,51.2,139.4z"/>
						</g>
					</g>
				</g>
			</g>
			<g>
				<g>
					<g>
						<g>
							<path class="city-st0" d="M65.7,144.3v-3h3v3C65.7,144.3,68.7,144.3,65.7,144.3z M60.7,144.3v-3h3v3
								C60.7,144.3,63.7,144.3,60.7,144.3z M55.7,144.3v-3h3v3C55.7,144.3,58.7,144.3,55.7,144.3z M50.7,144.3v-3h3v3
								C50.7,144.3,53.7,144.3,50.7,144.3z"/>
						</g>
					</g>
				</g>
			</g>
			<g>
				<g>
					<g>
						<g>
							<path class="city-st0" d="M65.2,149.2v-3h3v3C65.2,149.2,68.2,149.2,65.2,149.2z M60.2,149.2v-3h3v3
								C60.2,149.2,63.2,149.2,60.2,149.2z M55.2,149.2v-3h3v3C55.2,149.2,58.2,149.2,55.2,149.2z M50.2,149.2v-3h3v3
								C50.2,149.2,53.2,149.2,50.2,149.2z"/>
						</g>
					</g>
				</g>
			</g>
			<g>
				<g>
					<g>
						<g>
							<path class="city-st0" d="M64.7,154v-3h3v3C64.7,154,67.7,154,64.7,154z M59.7,154v-3h3v3C59.7,154,62.7,154,59.7,154z M54.7,154
								v-3h3v3C54.7,154,57.7,154,54.7,154z M49.7,154v-3h3v3C49.7,154,52.7,154,49.7,154z"/>
						</g>
					</g>
				</g>
			</g>
			<g>
				<g>
					<g>
						<g>
							<path class="city-st0" d="M69.1,158.9v-3h3v3C69.1,158.9,72.1,158.9,69.1,158.9z M64.1,158.9v-3h3v3
								C64.1,158.9,67.1,158.9,64.1,158.9z M59.1,158.9v-3h3v3C59.1,158.9,62.1,158.9,59.1,158.9z M54.1,158.9v-3h3v3
								C54.1,158.9,57.1,158.9,54.1,158.9z M49.1,158.9v-3h3v3C49.1,158.9,52.1,158.9,49.1,158.9z"/>
						</g>
					</g>
				</g>
			</g>
			<g>
				<g>
					<g>
						<g>
							<path class="city-st0" d="M68.6,163.8v-3h3v3C68.6,163.8,71.6,163.8,68.6,163.8z M63.6,163.8v-3h3v3
								C63.6,163.8,66.6,163.8,63.6,163.8z M58.6,163.8v-3h3v3C58.6,163.8,61.6,163.8,58.6,163.8z M53.6,163.8v-3h3v3
								C53.6,163.8,56.6,163.8,53.6,163.8z M48.6,163.8v-3h3v3C48.6,163.8,51.6,163.8,48.6,163.8z"/>
						</g>
					</g>
				</g>
			</g>
			<g>
				<g>
					<g>
						<g>
							<path class="city-st0" d="M68.1,168.6v-3h3v3C68.1,168.6,71.1,168.6,68.1,168.6z M63.1,168.6v-3h3v3
								C63.1,168.6,66.1,168.6,63.1,168.6z M58.1,168.6v-3h3v3C58.1,168.6,61.1,168.6,58.1,168.6z M53.1,168.6v-3h3v3
								C53.1,168.6,56.1,168.6,53.1,168.6z M48.1,168.6v-3h3v3C48.1,168.6,51.1,168.6,48.1,168.6z"/>
						</g>
					</g>
				</g>
			</g>
			<g>
				<g>
					<g>
						<g>
							<path class="city-st0" d="M67.6,173.5v-3h3v3C67.6,173.5,70.6,173.5,67.6,173.5z M62.6,173.5v-3h3v3
								C62.6,173.5,65.6,173.5,62.6,173.5z M57.6,173.5v-3h3v3C57.6,173.5,60.6,173.5,57.6,173.5z M52.6,173.5v-3h3v3
								C52.6,173.5,55.6,173.5,52.6,173.5z M47.6,173.5v-3h3v3C47.6,173.5,50.6,173.5,47.6,173.5z"/>
						</g>
					</g>
				</g>
			</g>
			<g>
				<g>
					<g>
						<g>
							<path class="city-st0" d="M67,178.4v-3h3v3C67,178.4,70,178.4,67,178.4z M62,178.4v-3h3v3C62,178.4,65,178.4,62,178.4z M57,178.4
								v-3h3v3C57,178.4,60,178.4,57,178.4z M52,178.4v-3h3v3C52,178.4,55,178.4,52,178.4z M47,178.4v-3h3v3
								C47,178.4,50,178.4,47,178.4z"/>
						</g>
					</g>
				</g>
			</g>
			<g>
				<g>
					<g>
						<g>
							<path class="city-st0" d="M71.5,183.3v-3h3v3C71.5,183.3,74.5,183.3,71.5,183.3z M66.5,183.3v-3h3v3
								C66.5,183.3,69.5,183.3,66.5,183.3z M61.5,183.3v-3h3v3C61.5,183.3,64.5,183.3,61.5,183.3z M56.5,183.3v-3h3v3
								C56.5,183.3,59.5,183.3,56.5,183.3z M51.5,183.3v-3h3v3C51.5,183.3,54.5,183.3,51.5,183.3z M46.5,183.3v-3h3v3
								C46.5,183.3,49.5,183.3,46.5,183.3z"/>
						</g>
					</g>
				</g>
			</g>
			<g>
				<g>
					<g>
						<g>
							<path class="city-st0" d="M71,188.1v-3h3v3C71,188.1,74,188.1,71,188.1z M66,188.1v-3h3v3C66,188.1,69,188.1,66,188.1z M61,188.1
								v-3h3v3C61,188.1,64,188.1,61,188.1z M56,188.1v-3h3v3C56,188.1,59,188.1,56,188.1z M51,188.1v-3h3v3
								C51,188.1,54,188.1,51,188.1z M46,188.1v-3h3v3C46,188.1,49,188.1,46,188.1z"/>
						</g>
					</g>
				</g>
			</g>
			<g>
				<g>
					<g>
						<g>
							<path class="city-st0" d="M70.5,193v-3h3v3C70.5,193,73.5,193,70.5,193z M65.5,193v-3h3v3C65.5,193,68.5,193,65.5,193z M60.5,193
								v-3h3v3C60.5,193,63.5,193,60.5,193z M55.5,193v-3h3v3C55.5,193,58.5,193,55.5,193z M50.5,193v-3h3v3
								C50.5,193,53.5,193,50.5,193z M45.5,193v-3h3v3C45.5,193,48.5,193,45.5,193z"/>
						</g>
					</g>
				</g>
			</g>
			<g>
				<g>
					<g>
						<g>
							<path class="city-st0" d="M69.9,197.9v-3h3v3C69.9,197.9,72.9,197.9,69.9,197.9z M64.9,197.9v-3h3v3
								C64.9,197.9,67.9,197.9,64.9,197.9z M59.9,197.9v-3h3v3C59.9,197.9,62.9,197.9,59.9,197.9z M54.9,197.9v-3h3v3
								C54.9,197.9,57.9,197.9,54.9,197.9z M49.9,197.9v-3h3v3C49.9,197.9,52.9,197.9,49.9,197.9z M44.9,197.9v-3h3v3
								C44.9,197.9,47.9,197.9,44.9,197.9z"/>
						</g>
					</g>
				</g>
			</g>
			<g>
				<g>
					<g>
						<g>
							<path class="city-st0" d="M69.4,202.8v-3h3v3C69.4,202.8,72.4,202.8,69.4,202.8z M64.4,202.8v-3h3v3
								C64.4,202.8,67.4,202.8,64.4,202.8z M59.4,202.8v-3h3v3C59.4,202.8,62.4,202.8,59.4,202.8z M54.4,202.8v-3h3v3
								C54.4,202.8,57.4,202.8,54.4,202.8z M49.4,202.8v-3h3v3C49.4,202.8,52.4,202.8,49.4,202.8z M44.4,202.8v-3h3v3
								C44.4,202.8,47.4,202.8,44.4,202.8z"/>
						</g>
					</g>
				</g>
			</g>
			<g>
				<g>
					<g>
						<g>
							<path class="city-st0" d="M73.9,207.6v-3h3v3C73.9,207.6,76.9,207.6,73.9,207.6z M68.9,207.6v-3h3v3
								C68.9,207.6,71.9,207.6,68.9,207.6z M63.9,207.6v-3h3v3C63.9,207.6,66.9,207.6,63.9,207.6z M58.9,207.6v-3h3v3
								C58.9,207.6,61.9,207.6,58.9,207.6z M53.9,207.6v-3h3v3C53.9,207.6,56.9,207.6,53.9,207.6z M48.9,207.6v-3h3v3
								C48.9,207.6,51.9,207.6,48.9,207.6z M43.9,207.6v-3h3v3C43.9,207.6,46.9,207.6,43.9,207.6z"/>
						</g>
					</g>
				</g>
			</g>
			<g>
				<g>
					<g>
						<g>
							<path class="city-st0" d="M73.4,212.5v-3h3v3C73.4,212.5,76.4,212.5,73.4,212.5z M68.4,212.5v-3h3v3
								C68.4,212.5,71.4,212.5,68.4,212.5z M63.4,212.5v-3h3v3C63.4,212.5,66.4,212.5,63.4,212.5z M58.4,212.5v-3h3v3
								C58.4,212.5,61.4,212.5,58.4,212.5z M53.4,212.5v-3h3v3C53.4,212.5,56.4,212.5,53.4,212.5z M48.4,212.5v-3h3v3
								C48.4,212.5,51.4,212.5,48.4,212.5z M43.4,212.5v-3h3v3C43.4,212.5,46.4,212.5,43.4,212.5z"/>
						</g>
					</g>
				</g>
			</g>
			<g>
				<g>
					<g>
						<g>
							<path class="city-st0" d="M72.8,217.4v-3h3v3C72.8,217.4,75.8,217.4,72.8,217.4z M67.8,217.4v-3h3v3
								C67.8,217.4,70.8,217.4,67.8,217.4z M62.8,217.4v-3h3v3C62.8,217.4,65.8,217.4,62.8,217.4z M57.8,217.4v-3h3v3
								C57.8,217.4,60.8,217.4,57.8,217.4z M52.8,217.4v-3h3v3C52.8,217.4,55.8,217.4,52.8,217.4z M47.8,217.4v-3h3v3
								C47.8,217.4,50.8,217.4,47.8,217.4z M42.8,217.4v-3h3v3C42.8,217.4,45.8,217.4,42.8,217.4z"/>
						</g>
					</g>
				</g>
			</g>
			<g>
				<g>
					<g>
						<g>
							<path class="city-st0" d="M72.3,222.3v-3h3v3C72.3,222.3,75.3,222.3,72.3,222.3z M67.3,222.3v-3h3v3
								C67.3,222.3,70.3,222.3,67.3,222.3z M62.3,222.3v-3h3v3C62.3,222.3,65.3,222.3,62.3,222.3z M57.3,222.3v-3h3v3
								C57.3,222.3,60.3,222.3,57.3,222.3z M52.3,222.3v-3h3v3C52.3,222.3,55.3,222.3,52.3,222.3z M47.3,222.3v-3h3v3
								C47.3,222.3,50.3,222.3,47.3,222.3z M42.3,222.3v-3h3v3C42.3,222.3,45.3,222.3,42.3,222.3z"/>
						</g>
					</g>
				</g>
			</g>
			<g>
				<g>
					<g>
						<g>
							<path class="city-st0" d="M71.8,227.1v-3h3v3C71.8,227.1,74.8,227.1,71.8,227.1z M66.8,227.1v-3h3v3
								C66.8,227.1,69.8,227.1,66.8,227.1z M61.8,227.1v-3h3v3C61.8,227.1,64.8,227.1,61.8,227.1z M56.8,227.1v-3h3v3
								C56.8,227.1,59.8,227.1,56.8,227.1z M51.8,227.1v-3h3v3C51.8,227.1,54.8,227.1,51.8,227.1z M46.8,227.1v-3h3v3
								C46.8,227.1,49.8,227.1,46.8,227.1z M41.8,227.1v-3h3v3C41.8,227.1,44.8,227.1,41.8,227.1z"/>
						</g>
					</g>
				</g>
			</g>
			<g>
				<g>
					<g>
						<g>
							<path class="city-st0" d="M76.3,232v-3h3v3C76.3,232,79.3,232,76.3,232z M71.3,232v-3h3v3C71.3,232,74.3,232,71.3,232z M66.3,232
								v-3h3v3C66.3,232,69.3,232,66.3,232z M61.3,232v-3h3v3C61.3,232,64.3,232,61.3,232z M56.3,232v-3h3v3
								C56.3,232,59.3,232,56.3,232z M51.3,232v-3h3v3C51.3,232,54.3,232,51.3,232z M46.3,232v-3h3v3C46.3,232,49.3,232,46.3,232z
								 M41.3,232v-3h3v3C41.3,232,44.3,232,41.3,232z"/>
						</g>
					</g>
				</g>
			</g>
			<g>
				<g>
					<g>
						<g>
							<path class="city-st0" d="M75.7,236.9v-3h3v3C75.7,236.9,78.7,236.9,75.7,236.9z M70.7,236.9v-3h3v3
								C70.7,236.9,73.7,236.9,70.7,236.9z M65.7,236.9v-3h3v3C65.7,236.9,68.7,236.9,65.7,236.9z M60.7,236.9v-3h3v3
								C60.7,236.9,63.7,236.9,60.7,236.9z M55.7,236.9v-3h3v3C55.7,236.9,58.7,236.9,55.7,236.9z M50.7,236.9v-3h3v3
								C50.7,236.9,53.7,236.9,50.7,236.9z M45.7,236.9v-3h3v3C45.7,236.9,48.7,236.9,45.7,236.9z"/>
						</g>
					</g>
				</g>
			</g>
			<g>
				<g>
					<g>
						<g>
							<path class="city-st0" d="M75.2,241.8v-3h3v3C75.2,241.8,78.2,241.8,75.2,241.8z M70.2,241.8v-3h3v3
								C70.2,241.8,73.2,241.8,70.2,241.8z M65.2,241.8v-3h3v3C65.2,241.8,68.2,241.8,65.2,241.8z M60.2,241.8v-3h3v3
								C60.2,241.8,63.2,241.8,60.2,241.8z M55.2,241.8v-3h3v3C55.2,241.8,58.2,241.8,55.2,241.8z M50.2,241.8v-3h3v3
								C50.2,241.8,53.2,241.8,50.2,241.8z M45.2,241.8v-3h3v3C45.2,241.8,48.2,241.8,45.2,241.8z"/>
						</g>
					</g>
				</g>
			</g>
			<g>
				<g>
					<g>
						<g>
							<path class="city-st0" d="M74.7,246.6v-3h3v3C74.7,246.6,77.7,246.6,74.7,246.6z M69.7,246.6v-3h3v3
								C69.7,246.6,72.7,246.6,69.7,246.6z M64.7,246.6v-3h3v3C64.7,246.6,67.7,246.6,64.7,246.6z M59.7,246.6v-3h3v3
								C59.7,246.6,62.7,246.6,59.7,246.6z M54.7,246.6v-3h3v3C54.7,246.6,57.7,246.6,54.7,246.6z M49.7,246.6v-3h3v3
								C49.7,246.6,52.7,246.6,49.7,246.6z M44.7,246.6v-3h3v3C44.7,246.6,47.7,246.6,44.7,246.6z"/>
						</g>
					</g>
				</g>
			</g>
			<g>
				<g>
					<g>
						<g>
							<path class="city-st0" d="M74.2,251.5v-3h3v3C74.2,251.5,77.2,251.5,74.2,251.5z M69.2,251.5v-3h3v3
								C69.2,251.5,72.2,251.5,69.2,251.5z M64.2,251.5v-3h3v3C64.2,251.5,67.2,251.5,64.2,251.5z M59.2,251.5v-3h3v3
								C59.2,251.5,62.2,251.5,59.2,251.5z M54.2,251.5v-3h3v3C54.2,251.5,57.2,251.5,54.2,251.5z M49.2,251.5v-3h3v3
								C49.2,251.5,52.2,251.5,49.2,251.5z M44.2,251.5v-3h3v3C44.2,251.5,47.2,251.5,44.2,251.5z"/>
						</g>
					</g>
				</g>
			</g>
			<g>
				<g>
					<g>
						<g>
							<path class="city-st0" d="M78.6,256.4v-3h3v3C78.6,256.4,81.6,256.4,78.6,256.4z M73.6,256.4v-3h3v3
								C73.6,256.4,76.6,256.4,73.6,256.4z M68.6,256.4v-3h3v3C68.6,256.4,71.6,256.4,68.6,256.4z M63.6,256.4v-3h3v3
								C63.6,256.4,66.6,256.4,63.6,256.4z M58.6,256.4v-3h3v3C58.6,256.4,61.6,256.4,58.6,256.4z M53.6,256.4v-3h3v3
								C53.6,256.4,56.6,256.4,53.6,256.4z M48.6,256.4v-3h3v3C48.6,256.4,51.6,256.4,48.6,256.4z"/>
						</g>
					</g>
				</g>
			</g>
			<g>
				<g>
					<g>
						<g>
							<path class="city-st0" d="M78.1,261.3v-3h3v3C78.1,261.3,81.1,261.3,78.1,261.3z M73.1,261.3v-3h3v3
								C73.1,261.3,76.1,261.3,73.1,261.3z M68.1,261.3v-3h3v3C68.1,261.3,71.1,261.3,68.1,261.3z M63.1,261.3v-3h3v3
								C63.1,261.3,66.1,261.3,63.1,261.3z M58.1,261.3v-3h3v3C58.1,261.3,61.1,261.3,58.1,261.3z M53.1,261.3v-3h3v3
								C53.1,261.3,56.1,261.3,53.1,261.3z M48.1,261.3v-3h3v3C48.1,261.3,51.1,261.3,48.1,261.3z"/>
						</g>
					</g>
				</g>
			</g>
			<g>
				<g>
					<g>
						<g>
							<path class="city-st0" d="M77.6,266.1v-3h3v3C77.6,266.1,80.6,266.1,77.6,266.1z M72.6,266.1v-3h3v3
								C72.6,266.1,75.6,266.1,72.6,266.1z M67.6,266.1v-3h3v3C67.6,266.1,70.6,266.1,67.6,266.1z M62.6,266.1v-3h3v3
								C62.6,266.1,65.6,266.1,62.6,266.1z M57.6,266.1v-3h3v3C57.6,266.1,60.6,266.1,57.6,266.1z M52.6,266.1v-3h3v3
								C52.6,266.1,55.6,266.1,52.6,266.1z M47.6,266.1v-3h3v3C47.6,266.1,50.6,266.1,47.6,266.1z"/>
						</g>
					</g>
				</g>
			</g>
			<g>
				<g>
					<g>
						<g>
							<path class="city-st0" d="M77.1,271v-3h3v3C77.1,271,80.1,271,77.1,271z M72.1,271v-3h3v3C72.1,271,75.1,271,72.1,271z M67.1,271
								v-3h3v3C67.1,271,70.1,271,67.1,271z M62.1,271v-3h3v3C62.1,271,65.1,271,62.1,271z M57.1,271v-3h3v3
								C57.1,271,60.1,271,57.1,271z M52.1,271v-3h3v3C52.1,271,55.1,271,52.1,271z M47.1,271v-3h3v3C47.1,271,50.1,271,47.1,271z"
								/>
						</g>
					</g>
				</g>
			</g>
			<g>
				<g>
					<g>
						<g>
							<path class="city-st0" d="M76.6,275.9v-3h3v3C76.6,275.9,79.6,275.9,76.6,275.9z M71.6,275.9v-3h3v3
								C71.6,275.9,74.6,275.9,71.6,275.9z M66.6,275.9v-3h3v3C66.6,275.9,69.6,275.9,66.6,275.9z M61.6,275.9v-3h3v3
								C61.6,275.9,64.6,275.9,61.6,275.9z M56.6,275.9v-3h3v3C56.6,275.9,59.6,275.9,56.6,275.9z M51.6,275.9v-3h3v3
								C51.6,275.9,54.6,275.9,51.6,275.9z M46.6,275.9v-3h3v3C46.6,275.9,49.6,275.9,46.6,275.9z"/>
						</g>
					</g>
				</g>
			</g>
			<g>
				<g>
					<g>
						<g>
							<path class="city-st0" d="M81,280.8v-3h3v3C81,280.8,84,280.8,81,280.8z M76,280.8v-3h3v3C76,280.8,79,280.8,76,280.8z M71,280.8
								v-3h3v3C71,280.8,74,280.8,71,280.8z M66,280.8v-3h3v3C66,280.8,69,280.8,66,280.8z M61,280.8v-3h3v3
								C61,280.8,64,280.8,61,280.8z M56,280.8v-3h3v3C56,280.8,59,280.8,56,280.8z M51,280.8v-3h3v3C51,280.8,54,280.8,51,280.8z"
								/>
						</g>
					</g>
				</g>
			</g>
			<g>
				<g>
					<g>
						<g>
							<path class="city-st0" d="M80.5,285.6v-3h3v3C80.5,285.6,83.5,285.6,80.5,285.6z M75.5,285.6v-3h3v3
								C75.5,285.6,78.5,285.6,75.5,285.6z M70.5,285.6v-3h3v3C70.5,285.6,73.5,285.6,70.5,285.6z M65.5,285.6v-3h3v3
								C65.5,285.6,68.5,285.6,65.5,285.6z M60.5,285.6v-3h3v3C60.5,285.6,63.5,285.6,60.5,285.6z M55.5,285.6v-3h3v3
								C55.5,285.6,58.5,285.6,55.5,285.6z M50.5,285.6v-3h3v3C50.5,285.6,53.5,285.6,50.5,285.6z"/>
						</g>
					</g>
				</g>
			</g>
			<g>
				<g>
					<g>
						<g>
							<path class="city-st0" d="M80,290.5v-3h3v3C80,290.5,83,290.5,80,290.5z M75,290.5v-3h3v3C75,290.5,78,290.5,75,290.5z M70,290.5
								v-3h3v3C70,290.5,73,290.5,70,290.5z M65,290.5v-3h3v3C65,290.5,68,290.5,65,290.5z M60,290.5v-3h3v3
								C60,290.5,63,290.5,60,290.5z M55,290.5v-3h3v3C55,290.5,58,290.5,55,290.5z M50,290.5v-3h3v3C50,290.5,53,290.5,50,290.5z"
								/>
						</g>
					</g>
				</g>
			</g>
			<g>
				<g>
					<g>
						<g>
							<path class="city-st0" d="M79.5,295.4v-3h3v3C79.5,295.4,82.5,295.4,79.5,295.4z M74.5,295.4v-3h3v3
								C74.5,295.4,77.5,295.4,74.5,295.4z M69.5,295.4v-3h3v3C69.5,295.4,72.5,295.4,69.5,295.4z M64.5,295.4v-3h3v3
								C64.5,295.4,67.5,295.4,64.5,295.4z M59.5,295.4v-3h3v3C59.5,295.4,62.5,295.4,59.5,295.4z M54.5,295.4v-3h3v3
								C54.5,295.4,57.5,295.4,54.5,295.4z M49.5,295.4v-3h3v3C49.5,295.4,52.5,295.4,49.5,295.4z"/>
						</g>
					</g>
				</g>
			</g>
			<g>
				<g>
					<g>
						<g>
							<path class="city-st0" d="M78.9,300.3v-3h3v3C78.9,300.3,81.9,300.3,78.9,300.3z M73.9,300.3v-3h3v3
								C73.9,300.3,76.9,300.3,73.9,300.3z M68.9,300.3v-3h3v3C68.9,300.3,71.9,300.3,68.9,300.3z M63.9,300.3v-3h3v3
								C63.9,300.3,66.9,300.3,63.9,300.3z M58.9,300.3v-3h3v3C58.9,300.3,61.9,300.3,58.9,300.3z M53.9,300.3v-3h3v3
								C53.9,300.3,56.9,300.3,53.9,300.3z M48.9,300.3v-3h3v3C48.9,300.3,51.9,300.3,48.9,300.3z"/>
						</g>
					</g>
				</g>
			</g>
			<g>
				<g>
					<g>
						<g>
							<path class="city-st0" d="M78.4,305.1v-3h3v3C78.4,305.1,81.4,305.1,78.4,305.1z M73.4,305.1v-3h3v3
								C73.4,305.1,76.4,305.1,73.4,305.1z M68.4,305.1v-3h3v3C68.4,305.1,71.4,305.1,68.4,305.1z M63.4,305.1v-3h3v3
								C63.4,305.1,66.4,305.1,63.4,305.1z M58.4,305.1v-3h3v3C58.4,305.1,61.4,305.1,58.4,305.1z M53.4,305.1v-3h3v3
								C53.4,305.1,56.4,305.1,53.4,305.1z"/>
						</g>
					</g>
				</g>
			</g>
			<g>
				<g>
					<g>
						<g>
							<path class="city-st0" d="M82.9,310v-3h3v3C82.9,310,85.9,310,82.9,310z M77.9,310v-3h3v3C77.9,310,80.9,310,77.9,310z M72.9,310
								v-3h3v3C72.9,310,75.9,310,72.9,310z M67.9,310v-3h3v3C67.9,310,70.9,310,67.9,310z M62.9,310v-3h3v3
								C62.9,310,65.9,310,62.9,310z M57.9,310v-3h3v3C57.9,310,60.9,310,57.9,310z M52.9,310v-3h3v3C52.9,310,55.9,310,52.9,310z"
								/>
						</g>
					</g>
				</g>
			</g>
			<g>
				<g>
					<g>
						<g>
							<path class="city-st0" d="M82.4,314.9v-3h3v3C82.4,314.9,85.4,314.9,82.4,314.9z M77.4,314.9v-3h3v3
								C77.4,314.9,80.4,314.9,77.4,314.9z M72.4,314.9v-3h3v3C72.4,314.9,75.4,314.9,72.4,314.9z M67.4,314.9v-3h3v3
								C67.4,314.9,70.4,314.9,67.4,314.9z M62.4,314.9v-3h3v3C62.4,314.9,65.4,314.9,62.4,314.9z M57.4,314.9v-3h3v3
								C57.4,314.9,60.4,314.9,57.4,314.9z M52.4,314.9v-3h3v3C52.4,314.9,55.4,314.9,52.4,314.9z"/>
						</g>
					</g>
				</g>
			</g>
			<g>
				<g>
					<g>
						<g>
							<path class="city-st0" d="M81.8,319.8v-3h3v3C81.8,319.8,84.8,319.8,81.8,319.8z M76.8,319.8v-3h3v3
								C76.8,319.8,79.8,319.8,76.8,319.8z M71.8,319.8v-3h3v3C71.8,319.8,74.8,319.8,71.8,319.8z M66.8,319.8v-3h3v3
								C66.8,319.8,69.8,319.8,66.8,319.8z M61.8,319.8v-3h3v3C61.8,319.8,64.8,319.8,61.8,319.8z M56.8,319.8v-3h3v3
								C56.8,319.8,59.8,319.8,56.8,319.8z M51.8,319.8v-3h3v3C51.8,319.8,54.8,319.8,51.8,319.8z"/>
						</g>
					</g>
				</g>
			</g>
			<g>
				<g>
					<g>
						<g>
							<path class="city-st0" d="M81.3,324.6v-3h3v3C81.3,324.6,84.3,324.6,81.3,324.6z M76.3,324.6v-3h3v3
								C76.3,324.6,79.3,324.6,76.3,324.6z M71.3,324.6v-3h3v3C71.3,324.6,74.3,324.6,71.3,324.6z M66.3,324.6v-3h3v3
								C66.3,324.6,69.3,324.6,66.3,324.6z M61.3,324.6v-3h3v3C61.3,324.6,64.3,324.6,61.3,324.6z M56.3,324.6v-3h3v3
								C56.3,324.6,59.3,324.6,56.3,324.6z"/>
						</g>
					</g>
				</g>
			</g>
			<g>
				<g>
					<g>
						<g>
							<path class="city-st0" d="M80.8,329.5v-3h3v3C80.8,329.5,83.8,329.5,80.8,329.5z M75.8,329.5v-3h3v3
								C75.8,329.5,78.8,329.5,75.8,329.5z M70.8,329.5v-3h3v3C70.8,329.5,73.8,329.5,70.8,329.5z M65.8,329.5v-3h3v3
								C65.8,329.5,68.8,329.5,65.8,329.5z M60.8,329.5v-3h3v3C60.8,329.5,63.8,329.5,60.8,329.5z M55.8,329.5v-3h3v3
								C55.8,329.5,58.8,329.5,55.8,329.5z"/>
						</g>
					</g>
				</g>
			</g>
			<g>
				<g>
					<g>
						<g>
							<path class="city-st0" d="M85.3,334.4v-3h3v3C85.3,334.4,88.3,334.4,85.3,334.4z M80.3,334.4v-3h3v3
								C80.3,334.4,83.3,334.4,80.3,334.4z M75.3,334.4v-3h3v3C75.3,334.4,78.3,334.4,75.3,334.4z M70.3,334.4v-3h3v3
								C70.3,334.4,73.3,334.4,70.3,334.4z M65.3,334.4v-3h3v3C65.3,334.4,68.3,334.4,65.3,334.4z M60.3,334.4v-3h3v3
								C60.3,334.4,63.3,334.4,60.3,334.4z M55.3,334.4v-3h3v3C55.3,334.4,58.3,334.4,55.3,334.4z"/>
						</g>
					</g>
				</g>
			</g>
			<g>
				<g>
					<g>
						<g>
							<path class="city-st0" d="M84.7,339.2v-3h3v3C84.7,339.2,87.7,339.2,84.7,339.2z M79.7,339.2v-3h3v3
								C79.7,339.2,82.7,339.2,79.7,339.2z M74.7,339.2v-3h3v3C74.7,339.2,77.7,339.2,74.7,339.2z M69.7,339.2v-3h3v3
								C69.7,339.2,72.7,339.2,69.7,339.2z M64.7,339.2v-3h3v3C64.7,339.2,67.7,339.2,64.7,339.2z M59.7,339.2v-3h3v3
								C59.7,339.2,62.7,339.2,59.7,339.2z M54.7,339.2v-3h3v3C54.7,339.2,57.7,339.2,54.7,339.2z"/>
						</g>
					</g>
				</g>
			</g>
			<g>
				<g>
					<g>
						<g>
							<path class="city-st0" d="M84.2,344.1v-3h3v3C84.2,344.1,87.2,344.1,84.2,344.1z M79.2,344.1v-3h3v3
								C79.2,344.1,82.2,344.1,79.2,344.1z M74.2,344.1v-3h3v3C74.2,344.1,77.2,344.1,74.2,344.1z M69.2,344.1v-3h3v3
								C69.2,344.1,72.2,344.1,69.2,344.1z M64.2,344.1v-3h3v3C64.2,344.1,67.2,344.1,64.2,344.1z M59.2,344.1v-3h3v3
								C59.2,344.1,62.2,344.1,59.2,344.1z M54.2,344.1v-3h3v3C54.2,344.1,57.2,344.1,54.2,344.1z"/>
						</g>
					</g>
				</g>
			</g>
			<g>
				<g>
					<g>
						<g>
							<path class="city-st0" d="M83.7,349v-3h3v3C83.7,349,86.7,349,83.7,349z M78.7,349v-3h3v3C78.7,349,81.7,349,78.7,349z M73.7,349
								v-3h3v3C73.7,349,76.7,349,73.7,349z M68.7,349v-3h3v3C68.7,349,71.7,349,68.7,349z M63.7,349v-3h3v3
								C63.7,349,66.7,349,63.7,349z M58.7,349v-3h3v3C58.7,349,61.7,349,58.7,349z M53.7,349v-3h3v3C53.7,349,56.7,349,53.7,349z"
								/>
						</g>
					</g>
				</g>
			</g>
		</g>
		<g>
			<g>
				<g>
					<g>
						<path class="city-st0" d="M30.5,348.7c-0.1,0-0.1,0-0.2,0c-0.8-0.1-1.4-0.8-1.3-1.6l11.8-112.1c0.1-0.8,0.8-1.4,1.6-1.3
							c0.8,0.1,1.4,0.8,1.3,1.6L32,347.3C31.9,348.1,31.3,348.7,30.5,348.7z"/>
					</g>
				</g>
			</g>
			<g>
				<g>
					<g>
						<path class="city-st0" d="M35.7,349c-0.1,0-0.1,0-0.2,0c-0.8-0.1-1.4-0.8-1.3-1.6l9.7-93c0.1-0.8,0.8-1.4,1.6-1.3
							c0.8,0.1,1.4,0.8,1.3,1.6l-9.7,93C37.1,348.4,36.5,349,35.7,349z"/>
					</g>
				</g>
			</g>
			<g>
				<g>
					<g>
						<path class="city-st0" d="M40.4,348.7c-0.1,0-0.1,0-0.2,0c-0.8-0.1-1.4-0.8-1.3-1.7l7.5-68.4c0.1-0.8,0.8-1.4,1.7-1.3
							c0.8,0.1,1.4,0.8,1.3,1.7l-7.5,68.4C41.8,348.1,41.1,348.7,40.4,348.7z"/>
					</g>
				</g>
			</g>
			<g>
				<g>
					<g>
						<path class="city-st0" d="M45.3,348.8c-0.1,0-0.1,0-0.2,0c-0.8-0.1-1.4-0.8-1.3-1.7c2-18.9,4.6-44.1,4.7-44.3
							c0.1-0.8,0.8-1.4,1.6-1.3c0.8,0.1,1.4,0.8,1.3,1.6c0,0.3-2.6,25.4-4.7,44.3C46.7,348.3,46,348.8,45.3,348.8z"/>
					</g>
				</g>
			</g>
			<g>
				<g>
					<g>
						<path class="city-st0" d="M50.2,348.8c-0.1,0-0.1,0-0.2,0c-0.8-0.1-1.4-0.8-1.3-1.6l2.4-22.4c0.1-0.8,0.8-1.4,1.6-1.3
							c0.8,0.1,1.4,0.8,1.3,1.6l-2.4,22.4C51.6,348.2,50.9,348.8,50.2,348.8z"/>
					</g>
				</g>
			</g>
		</g>
	</g>
	<g>
		<g>
			<g>
				<path class="city-st0" d="M248.3,374.5l0-62c0-95.1-0.2-253.8-0.6-275.8c-1.8,0-4.4,0-7.7,0c-27.2,0.1-97.8,0.4-119.1-0.6
					c-0.8,31.8-0.7,171.6-0.6,253.4l0,2l-4,0l0-2c-0.2-83.7-0.3-228.3,0.6-255.6l0.1-2.1l2.1,0.1c18.1,1.1,92.8,0.8,120.8,0.7
					c4.8,0,8.2,0,9.7,0h1.9l0.1,1.9c0.5,11.8,0.6,179.2,0.7,277.9l0,62L248.3,374.5z"/>
			</g>
		</g>
	</g>
	<g>
		<g>
			<g>
				<g>
					<path class="city-st0" d="M121.6,296.3c-0.3,0-0.5-0.1-0.8-0.2c-0.7-0.4-0.9-1.4-0.5-2.1c9.8-15.7,26.6-25,45-25
						c18.3,0,35.1,9.3,44.9,24.8c0.4,0.7,0.2,1.6-0.5,2.1c-0.7,0.4-1.6,0.2-2.1-0.5c-9.2-14.7-25.1-23.4-42.3-23.4
						c-17.4,0-33.3,8.8-42.5,23.6C122.6,296.1,122.1,296.3,121.6,296.3z"/>
				</g>
			</g>
		</g>
		<g>
			<g>
				<g>
					<path class="city-st0" d="M218.4,315.5c-0.8,0-1.5-0.7-1.5-1.5v-16.8h-53.2c-0.8,0-1.5-0.7-1.5-1.5c0-0.8,0.7-1.5,1.5-1.5h54.7
						c0.8,0,1.5,0.7,1.5,1.5V314C219.9,314.8,219.2,315.5,218.4,315.5z"/>
				</g>
			</g>
		</g>
		<g>
			<g>
				<g>
					<path class="city-st0" d="M158.4,297.1H158c-0.8,0-1.5-0.7-1.5-1.5c0-0.8,0.7-1.5,1.5-1.5h0.3c0.8,0,1.5,0.7,1.5,1.5
						C159.9,296.5,159.2,297.1,158.4,297.1z"/>
				</g>
			</g>
		</g>
		<g>
			<g>
				<g>
					<path class="city-st0" d="M111.7,315.1c-0.8,0-1.5-0.7-1.5-1.5v-18c0-0.8,0.7-1.5,1.5-1.5H153c0.8,0,1.5,0.7,1.5,1.5
						c0,0.8-0.7,1.5-1.5,1.5h-39.8v16.5C113.2,314.5,112.5,315.1,111.7,315.1z"/>
				</g>
			</g>
		</g>
		<g>
			<g>
				<g>
					<rect x="208.2" y="314.1" class="city-st0" width="16" height="3"/>
				</g>
			</g>
		</g>
		<g>
			<g>
				<g>
					<rect x="199.7" y="314.1" class="city-st0" width="6.5" height="3"/>
				</g>
			</g>
		</g>
		<g>
			<g>
				<g>
					<rect x="172" y="314.1" class="city-st0" width="25.7" height="3"/>
				</g>
			</g>
		</g>
		<g>
			<g>
				<g>
					<rect x="160.6" y="314.1" class="city-st0" width="9.4" height="3"/>
				</g>
			</g>
		</g>
		<g>
			<g>
				<g>
					<rect x="131.2" y="314.1" class="city-st0" width="26.9" height="3"/>
				</g>
			</g>
		</g>
		<g>
			<g>
				<g>
					<rect x="124.2" y="314.1" class="city-st0" width="5.3" height="3"/>
				</g>
			</g>
		</g>
		<g>
			<g>
				<g>
					<rect x="106.9" y="314.1" class="city-st0" width="15.4" height="3"/>
				</g>
			</g>
		</g>
		<g>
			<g>
				<g>
					<rect x="110.9" y="299.5" class="city-st0" width="107.7" height="3"/>
				</g>
			</g>
		</g>
		<g>
			<g>
				<g>
					<path class="city-st0" d="M204.4,291h-16.5c-0.8,0-1.5-0.7-1.5-1.5c0-0.8,0.7-1.5,1.5-1.5h16.5c0.8,0,1.5,0.7,1.5,1.5
						C205.9,290.3,205.2,291,204.4,291z"/>
				</g>
			</g>
		</g>
		<g>
			<g>
				<g>
					<path class="city-st0" d="M182.6,291c-0.4,0-0.8-0.2-1.1-0.4c-0.3-0.3-0.4-0.7-0.4-1.1c0-0.4,0.2-0.8,0.4-1.1c0.6-0.6,1.6-0.6,2.1,0
						c0.3,0.3,0.4,0.7,0.4,1.1c0,0.4-0.2,0.8-0.4,1.1C183.4,290.8,183,291,182.6,291z"/>
				</g>
			</g>
		</g>
		<g>
			<g>
				<g>
					<g>
						<g>
							<rect x="174.9" y="300" class="city-st0" width="3" height="15.3"/>
						</g>
					</g>
				</g>
				<g>
					<g>
						<g>
							<rect x="192.2" y="300" class="city-st0" width="3" height="15.1"/>
						</g>
					</g>
				</g>
			</g>
			<g>
				<g>
					<g>
						<g>
							<rect x="176.8" y="315.7" class="city-st0" width="3" height="9.5"/>
						</g>
					</g>
				</g>
				<g>
					<g>
						<g>
							<rect x="190.3" y="315.7" class="city-st0" width="3" height="9.5"/>
						</g>
					</g>
				</g>
			</g>
		</g>
		<g>
			<g>
				<g>
					<g>
						<g>
							<rect x="135.9" y="300.5" class="city-st0" width="3" height="15.3"/>
						</g>
					</g>
				</g>
				<g>
					<g>
						<g>
							<rect x="153.3" y="300.5" class="city-st0" width="3" height="15.1"/>
						</g>
					</g>
				</g>
			</g>
			<g>
				<g>
					<g>
						<g>
							<rect x="137.8" y="316.2" class="city-st0" width="3" height="9.5"/>
						</g>
					</g>
				</g>
				<g>
					<g>
						<g>
							<rect x="151.3" y="316.2" class="city-st0" width="3" height="9.5"/>
						</g>
					</g>
				</g>
			</g>
		</g>
		<g>
			<g>
				<g>
					<rect x="107.9" y="323.5" class="city-st0" width="116" height="3"/>
				</g>
			</g>
		</g>
		<g>
			<g>
				<g>
					<g>
						<g>
							<g>
								<path class="city-st0" d="M183.1,331h-5.6c-0.7,0-1.3-0.4-1.4-1.1l-0.9-3.3c-0.2-0.8,0.2-1.6,1-1.8c0.8-0.2,1.6,0.2,1.8,1
									l0.6,2.2h3.2l0.7-2.8c0.2-0.8,1-1.3,1.8-1.1c0.8,0.2,1.3,1,1.1,1.8l-0.9,4C184.4,330.5,183.8,331,183.1,331z"/>
							</g>
						</g>
					</g>
					<g>
						<g>
							<g>
								<g>
									<rect x="176.3" y="328.5" class="city-st0" width="3" height="29"/>
								</g>
							</g>
						</g>
						<g>
							<g>
								<g>
									<rect x="181.3" y="328.5" class="city-st0" width="3" height="29"/>
								</g>
							</g>
						</g>
					</g>
					<g>
						<g>
							<g>
								<path class="city-st0" d="M184.5,363.6c-0.8,0-1.5-0.7-1.5-1.5v-2.5h-5.3v2.5c0,0.8-0.7,1.5-1.5,1.5c-0.8,0-1.5-0.7-1.5-1.5v-4
									c0-0.8,0.7-1.5,1.5-1.5h8.3c0.8,0,1.5,0.7,1.5,1.5v4C186,363,185.3,363.6,184.5,363.6z"/>
							</g>
						</g>
					</g>
				</g>
				<g>
					<g>
						<g>
							<g>
								<path class="city-st0" d="M192.8,331h-5.6c-0.7,0-1.3-0.4-1.4-1.1l-0.9-3.3c-0.2-0.8,0.2-1.6,1-1.8c0.8-0.2,1.6,0.2,1.8,1
									l0.6,2.2h3.2l0.7-2.8c0.2-0.8,1-1.3,1.8-1.1c0.8,0.2,1.3,1,1.1,1.8l-0.9,4C194.1,330.5,193.5,331,192.8,331z"/>
							</g>
						</g>
					</g>
					<g>
						<g>
							<g>
								<g>
									<rect x="186" y="328.5" class="city-st0" width="3" height="29"/>
								</g>
							</g>
						</g>
						<g>
							<g>
								<g>
									<rect x="190.9" y="328.5" class="city-st0" width="3" height="29"/>
								</g>
							</g>
						</g>
					</g>
					<g>
						<g>
							<g>
								<path class="city-st0" d="M194.1,363.6c-0.8,0-1.5-0.7-1.5-1.5v-2.5h-5.3v2.5c0,0.8-0.7,1.5-1.5,1.5c-0.8,0-1.5-0.7-1.5-1.5v-4
									c0-0.8,0.7-1.5,1.5-1.5h8.3c0.8,0,1.5,0.7,1.5,1.5v4C195.6,363,195,363.6,194.1,363.6z"/>
							</g>
						</g>
					</g>
				</g>
			</g>
			<g>
				<g>
					<g>
						<polygon class="city-st0" points="198.6,374 195.6,374 195.6,364.5 173.6,364.5 173.6,374 170.6,374 170.6,361.5 198.6,361.5 
													"/>
					</g>
				</g>
			</g>
		</g>
		<g>
			<g>
				<g>
					<g>
						<g>
							<g>
								<path class="city-st0" d="M144,331h-5.6c-0.7,0-1.3-0.4-1.4-1.1l-0.9-3.3c-0.2-0.8,0.2-1.6,1-1.8c0.8-0.2,1.6,0.2,1.8,1l0.6,2.2
									h3.2l0.7-2.8c0.2-0.8,1-1.3,1.8-1.1c0.8,0.2,1.3,1,1.1,1.8l-0.9,4C145.3,330.5,144.7,331,144,331z"/>
							</g>
						</g>
					</g>
					<g>
						<g>
							<g>
								<g>
									<rect x="137.3" y="328.5" class="city-st0" width="3" height="29"/>
								</g>
							</g>
						</g>
						<g>
							<g>
								<g>
									<rect x="142.2" y="328.5" class="city-st0" width="3" height="29"/>
								</g>
							</g>
						</g>
					</g>
					<g>
						<g>
							<g>
								<path class="city-st0" d="M145.4,363.6c-0.8,0-1.5-0.7-1.5-1.5v-2.5h-5.3v2.5c0,0.8-0.7,1.5-1.5,1.5s-1.5-0.7-1.5-1.5v-4
									c0-0.8,0.7-1.5,1.5-1.5h8.3c0.8,0,1.5,0.7,1.5,1.5v4C146.9,363,146.2,363.6,145.4,363.6z"/>
							</g>
						</g>
					</g>
				</g>
				<g>
					<g>
						<g>
							<g>
								<path class="city-st0" d="M153.7,331h-5.6c-0.7,0-1.3-0.4-1.4-1.1l-0.9-3.3c-0.2-0.8,0.2-1.6,1-1.8c0.8-0.2,1.6,0.2,1.8,1
									l0.6,2.2h3.2l0.7-2.8c0.2-0.8,1-1.3,1.8-1.1c0.8,0.2,1.3,1,1.1,1.8l-0.9,4C155,330.5,154.4,331,153.7,331z"/>
							</g>
						</g>
					</g>
					<g>
						<g>
							<g>
								<g>
									<rect x="146.9" y="328.5" class="city-st0" width="3" height="29"/>
								</g>
							</g>
						</g>
						<g>
							<g>
								<g>
									<rect x="151.9" y="328.5" class="city-st0" width="3" height="29"/>
								</g>
							</g>
						</g>
					</g>
					<g>
						<g>
							<g>
								<path class="city-st0" d="M155.1,363.6c-0.8,0-1.5-0.7-1.5-1.5v-2.5h-5.3v2.5c0,0.8-0.7,1.5-1.5,1.5c-0.8,0-1.5-0.7-1.5-1.5v-4
									c0-0.8,0.7-1.5,1.5-1.5h8.3c0.8,0,1.5,0.7,1.5,1.5v4C156.6,363,155.9,363.6,155.1,363.6z"/>
							</g>
						</g>
					</g>
				</g>
			</g>
			<g>
				<g>
					<g>
						<polygon class="city-st0" points="160.6,374 157.6,374 157.6,364.5 134.6,364.5 134.6,374 131.6,374 131.6,361.5 160.6,361.5 
													"/>
					</g>
				</g>
			</g>
		</g>
		<g>
			<g>
				<g>
					<path class="city-st0" d="M211.6,315c-0.8,0-1.5-0.7-1.5-1.5v-17c0-0.8,0.7-1.5,1.5-1.5c0.8,0,1.5,0.7,1.5,1.5v17
						C213.1,314.3,212.4,315,211.6,315z"/>
				</g>
			</g>
		</g>
		<g>
			<g>
				<g>
					<path class="city-st0" d="M118.6,315.5c-0.8,0-1.5-0.7-1.5-1.5v-17c0-0.8,0.7-1.5,1.5-1.5c0.8,0,1.5,0.7,1.5,1.5v17
						C120.1,314.8,119.4,315.5,118.6,315.5z"/>
				</g>
			</g>
		</g>
		<g>
			<g>
				<g>
					<path class="city-st0" d="M153.4,348.2c-0.8,0-1.5-0.7-1.5-1.5v-3.5c0-7.2,6.1-13,13.7-13c7.5,0,13.7,5.8,13.7,13v1.5
						c0,0.8-0.7,1.5-1.5,1.5s-1.5-0.7-1.5-1.5v-1.5c0-5.5-4.8-10-10.7-10c-5.9,0-10.7,4.5-10.7,10v3.5
						C154.9,347.5,154.3,348.2,153.4,348.2z"/>
				</g>
			</g>
		</g>
		<g>
			<g>
				<g>
					<g>
						<path class="city-st0" d="M214.4,346.2c-0.8,0-1.5-0.7-1.5-1.5v-1.5c0-1.9-0.5-3.8-1.5-5.4c-0.4-0.7-0.2-1.6,0.5-2.1
							c0.7-0.4,1.6-0.2,2.1,0.5c1.3,2.1,1.9,4.5,1.9,7v1.5C215.9,345.5,215.3,346.2,214.4,346.2z"/>
					</g>
				</g>
			</g>
			<g>
				<g>
					<g>
						<path class="city-st0" d="M209.3,335.2c-0.4,0-0.8-0.2-1-0.4c-0.4-0.3-0.6-0.7-0.6-1.2c0-0.8,0.7-1.5,1.5-1.5
							c0.8,0,1.6,0.7,1.6,1.6c0,0,0,0,0,0C210.8,334.5,210.2,335.2,209.3,335.2C209.3,335.2,209.3,335.2,209.3,335.2z"/>
					</g>
				</g>
			</g>
			<g>
				<g>
					<g>
						<path class="city-st0" d="M192.4,348.2c-0.8,0-1.5-0.7-1.5-1.5v-3.5c0-7.2,5.6-13,12.5-13c0.6,0,1.3,0,1.9,0.1
							c0.8,0.1,1.4,0.9,1.2,1.7c-0.1,0.8-0.9,1.4-1.7,1.2c-0.5-0.1-0.9-0.1-1.4-0.1c-5.2,0-9.5,4.5-9.5,10v3.5
							C193.9,347.5,193.3,348.2,192.4,348.2z"/>
					</g>
				</g>
			</g>
		</g>
		<g>
			<g>
				<g>
					<path class="city-st0" d="M138.9,346.1c-0.8,0-1.5-0.7-1.5-1.5v-1.5c0-2.6-0.9-5.1-2.7-7c-0.6-0.6-0.5-1.6,0.1-2.1
						c0.6-0.6,1.6-0.5,2.1,0.1c2.2,2.4,3.5,5.6,3.5,9v1.5C140.4,345.4,139.7,346.1,138.9,346.1z"/>
				</g>
			</g>
		</g>
		<g>
			<g>
				<g>
					<path class="city-st0" d="M132.7,334.7c-0.5,0-0.9-0.2-1.2-0.6c-0.5-0.6-0.5-1.6,0.2-2.1c0.1,0,0.1-0.1,0.2-0.1
						c0.1-0.1,0.2-0.1,0.3-0.2c0.8-0.3,1.6,0.1,2,0.8c0.4,0.9,0,1.6-0.6,1.9C133.2,334.6,133,334.7,132.7,334.7z"/>
				</g>
			</g>
		</g>
		<g>
			<g>
				<g>
					<path class="city-st0" d="M116.9,348.5c-0.8,0-1.5-0.7-1.5-1.5v-3.5c0-7.2,5.6-13,12.4-13c0.2,0,0.4,0,0.6,0c0.8,0,1.5,0.7,1.4,1.6
						c0,0.8-0.7,1.5-1.6,1.4c-0.2,0-0.3,0-0.5,0c-5.2,0-9.4,4.5-9.4,10v3.5C118.4,347.8,117.7,348.5,116.9,348.5z"/>
				</g>
			</g>
		</g>
		<g>
			<g>
				<g>
					<g>
						<g>
							<g>
								<path class="city-st0" d="M219.8,331h-5.6c-0.7,0-1.3-0.4-1.4-1.1l-0.9-3.3c-0.2-0.8,0.2-1.6,1-1.8c0.8-0.2,1.6,0.2,1.8,1
									l0.6,2.2h3.2l0.6-2.7V316c0-0.8,0.7-1.5,1.5-1.5c0.8,0,1.5,0.7,1.5,1.5v9.5c0,0.1,0,0.2,0,0.3l-0.9,4
									C221.1,330.5,220.5,331,219.8,331z"/>
							</g>
						</g>
					</g>
					<g>
						<g>
							<g>
								<g>
									<rect x="213" y="328.5" class="city-st0" width="3" height="29"/>
								</g>
							</g>
						</g>
						<g>
							<g>
								<g>
									<rect x="217.9" y="328.5" class="city-st0" width="3" height="29"/>
								</g>
							</g>
						</g>
					</g>
					<g>
						<g>
							<g>
								<path class="city-st0" d="M221.1,363.6c-0.8,0-1.5-0.7-1.5-1.5v-2.5h-5.3v2.5c0,0.8-0.7,1.5-1.5,1.5c-0.8,0-1.5-0.7-1.5-1.5v-4
									c0-0.8,0.7-1.5,1.5-1.5h8.3c0.8,0,1.5,0.7,1.5,1.5v4C222.6,363,222,363.6,221.1,363.6z"/>
							</g>
						</g>
					</g>
				</g>
				<g>
					<g>
						<g>
							<polygon class="city-st0" points="212.2,374.1 209.2,374.1 209.2,361.5 224.2,361.5 224.2,373.8 221.2,373.8 221.2,364.5 
								212.2,364.5 							"/>
						</g>
					</g>
				</g>
			</g>
			<g>
				<g>
					<g>
						<path class="city-st0" d="M216.1,325.5c-0.8,0-1.5-0.7-1.5-1.5v-7.5c0-0.8,0.7-1.5,1.5-1.5c0.8,0,1.5,0.7,1.5,1.5v7.5
							C217.6,324.8,216.9,325.5,216.1,325.5z"/>
					</g>
				</g>
			</g>
		</g>
		<g>
			<g>
				<g>
					<g>
						<g>
							<g>
								<path class="city-st0" d="M117.2,331.5h-5.6c-0.7,0-1.3-0.5-1.5-1.2l-0.9-4c0-0.1,0-0.2,0-0.3v-9.5c0-0.8,0.7-1.5,1.5-1.5
									c0.8,0,1.5,0.7,1.5,1.5v9.3l0.6,2.7h3.2l0.6-2.2c0.2-0.8,1-1.3,1.8-1c0.8,0.2,1.3,1,1,1.8l-0.9,3.3
									C118.4,331,117.8,331.5,117.2,331.5z"/>
							</g>
						</g>
					</g>
					<g>
						<g>
							<g>
								<g>
									<rect x="115.4" y="329" class="city-st0" width="3" height="29"/>
								</g>
							</g>
						</g>
						<g>
							<g>
								<g>
									<rect x="110.4" y="329" class="city-st0" width="3" height="29"/>
								</g>
							</g>
						</g>
					</g>
					<g>
						<g>
							<g>
								<path class="city-st0" d="M118.6,364.1c-0.8,0-1.5-0.7-1.5-1.5v-2.5h-5.3v2.5c0,0.8-0.7,1.5-1.5,1.5c-0.8,0-1.5-0.7-1.5-1.5v-4
									c0-0.8,0.7-1.5,1.5-1.5h8.3c0.8,0,1.5,0.7,1.5,1.5v4C120.1,363.5,119.4,364.1,118.6,364.1z"/>
							</g>
						</g>
					</g>
				</g>
				<g>
					<g>
						<g>
							<polygon class="city-st0" points="122.2,374.6 119.2,374.6 119.2,365 110.2,365 110.2,374.3 107.2,374.3 107.2,362 122.2,362 
															"/>
						</g>
					</g>
				</g>
			</g>
			<g>
				<g>
					<g>
						<path class="city-st0" d="M115.3,326c-0.8,0-1.5-0.7-1.5-1.5V317c0-0.8,0.7-1.5,1.5-1.5c0.8,0,1.5,0.7,1.5,1.5v7.5
							C116.8,325.3,116.1,326,115.3,326z"/>
					</g>
				</g>
			</g>
		</g>
		<g>
			<g>
				<g>
					<g>
						<rect x="180.4" y="305" class="city-st0" width="3" height="6.3"/>
					</g>
				</g>
			</g>
			<g>
				<g>
					<g>
						<rect x="187" y="305" class="city-st0" width="3" height="6.3"/>
					</g>
				</g>
			</g>
		</g>
		<g>
			<g>
				<g>
					<g>
						<rect x="141.7" y="305.4" class="city-st0" width="3" height="6.3"/>
					</g>
				</g>
			</g>
			<g>
				<g>
					<g>
						<rect x="148.3" y="305.4" class="city-st0" width="3" height="6.3"/>
					</g>
				</g>
			</g>
		</g>
	</g>
	<g>
		<g>
			<g>
				<g>
					<path class="city-st0" d="M172.7,364.5h-2.4c-0.8,0-1.5-0.7-1.5-1.5c0-0.8,0.7-1.5,1.5-1.5h2.4c0.8,0,1.5,0.7,1.5,1.5
						C174.2,363.8,173.5,364.5,172.7,364.5z"/>
				</g>
			</g>
		</g>
		<g>
			<g>
				<g>
					<path class="city-st0" d="M198.7,364.5h-2.4c-0.8,0-1.5-0.7-1.5-1.5c0-0.8,0.7-1.5,1.5-1.5h2.4c0.8,0,1.5,0.7,1.5,1.5
						C200.2,363.8,199.5,364.5,198.7,364.5z"/>
				</g>
			</g>
		</g>
	</g>
	<g>
		<g>
			<g>
				<g>
					<path class="city-st0" d="M134,364.4h-2.4c-0.8,0-1.5-0.7-1.5-1.5c0-0.8,0.7-1.5,1.5-1.5h2.4c0.8,0,1.5,0.7,1.5,1.5
						C135.5,363.8,134.9,364.4,134,364.4z"/>
				</g>
			</g>
		</g>
		<g>
			<g>
				<g>
					<path class="city-st0" d="M160.5,364.4h-2.4c-0.8,0-1.5-0.7-1.5-1.5c0-0.8,0.7-1.5,1.5-1.5h2.4c0.8,0,1.5,0.7,1.5,1.5
						C162,363.8,161.3,364.4,160.5,364.4z"/>
				</g>
			</g>
		</g>
	</g>
	<g>
		<g>
			<g>
				<path class="city-st0" d="M228.4,36c-0.8,0-1.5-0.7-1.5-1.5V19c-8.1,0.4-45.8,1.8-87,0c0.1,6.7,0.1,15,0.1,15.1
					c0,0.8-0.7,1.5-1.5,1.5S137,35,137,34.1c0-0.1,0-9.7-0.2-16.6c0-0.4,0.2-0.8,0.5-1.1c0.3-0.3,0.7-0.4,1.1-0.4
					c46.7,2.1,89.4,0,89.9,0c0.4,0,0.8,0.1,1.1,0.4c0.3,0.3,0.5,0.7,0.5,1.1v17C229.9,35.3,229.2,36,228.4,36z"/>
			</g>
		</g>
	</g>
	<g>
		<g>
			<g>
				<rect x="142.9" y="22.8" class="city-st0" width="4" height="13.5"/>
			</g>
		</g>
		<g>
			<g>
				<rect x="151.3" y="22.8" class="city-st0" width="4" height="13.5"/>
			</g>
		</g>
		<g>
			<g>
				<rect x="159.7" y="22.8" class="city-st0" width="4" height="13.5"/>
			</g>
		</g>
		<g>
			<g>
				<rect x="168.2" y="22.8" class="city-st0" width="4" height="13.5"/>
			</g>
		</g>
		<g>
			<g>
				<rect x="176.6" y="22.8" class="city-st0" width="4" height="13.5"/>
			</g>
		</g>
		<g>
			<g>
				<rect x="185.1" y="22.8" class="city-st0" width="4" height="13.5"/>
			</g>
		</g>
		<g>
			<g>
				<rect x="193.5" y="22.8" class="city-st0" width="4" height="13.5"/>
			</g>
		</g>
		<g>
			<g>
				<rect x="202" y="22.8" class="city-st0" width="4" height="13.5"/>
			</g>
		</g>
		<g>
			<g>
				<rect x="210.4" y="22.8" class="city-st0" width="4" height="13.5"/>
			</g>
		</g>
		<g>
			<g>
				<rect x="218.9" y="22.8" class="city-st0" width="4" height="13.5"/>
			</g>
		</g>
	</g>
	<g>
		<g>
			<g>
				<rect x="236.4" y="33.7" class="city-st0" width="4" height="341.8"/>
			</g>
		</g>
	</g>
	<g>
		<g>
			<g>
				<path class="city-st0" d="M242.4,369.6v-4h4v4C242.4,369.6,246.4,369.6,242.4,369.6z M242.4,362.6v-4h4v4
					C242.4,362.6,246.4,362.6,242.4,362.6z M242.4,355.6v-4h4v4C242.4,355.6,246.4,355.6,242.4,355.6z M242.4,348.6v-4h4v4
					C242.4,348.6,246.4,348.6,242.4,348.6z M242.4,341.6v-4h4v4C242.4,341.6,246.4,341.6,242.4,341.6z M242.4,334.6v-4h4v4
					C242.4,334.6,246.4,334.6,242.4,334.6z M242.4,327.6v-4h4v4C242.4,327.6,246.4,327.6,242.4,327.6z M242.4,320.6v-4h4v4
					C242.4,320.6,246.4,320.6,242.4,320.6z M242.4,313.6v-4h4v4C242.4,313.6,246.4,313.6,242.4,313.6z M242.4,306.6v-4h4v4
					C242.4,306.6,246.4,306.6,242.4,306.6z M242.4,299.6v-4h4v4C242.4,299.6,246.4,299.6,242.4,299.6z M242.4,292.6v-4h4v4
					C242.4,292.6,246.4,292.6,242.4,292.6z M242.4,285.6v-4h4v4C242.4,285.6,246.4,285.6,242.4,285.6z M242.4,278.6v-4h4v4
					C242.4,278.6,246.4,278.6,242.4,278.6z M242.4,271.6v-4h4v4C242.4,271.6,246.4,271.6,242.4,271.6z M242.4,264.6v-4h4v4
					C242.4,264.6,246.4,264.6,242.4,264.6z M242.4,257.6v-4h4v4C242.4,257.6,246.4,257.6,242.4,257.6z M242.4,250.6v-4h4v4
					C242.4,250.6,246.4,250.6,242.4,250.6z M242.4,243.6v-4h4v4C242.4,243.6,246.4,243.6,242.4,243.6z M242.4,236.6v-4h4v4
					C242.4,236.6,246.4,236.6,242.4,236.6z M242.4,229.6v-4h4v4C242.4,229.6,246.4,229.6,242.4,229.6z M242.4,222.6v-4h4v4
					C242.4,222.6,246.4,222.6,242.4,222.6z M242.4,215.6v-4h4v4C242.4,215.6,246.4,215.6,242.4,215.6z M242.4,208.6v-4h4v4
					C242.4,208.6,246.4,208.6,242.4,208.6z M242.4,201.6v-4h4v4C242.4,201.6,246.4,201.6,242.4,201.6z M242.4,194.6v-4h4v4
					C242.4,194.6,246.4,194.6,242.4,194.6z M242.4,187.6v-4h4v4C242.4,187.6,246.4,187.6,242.4,187.6z M242.4,180.6v-4h4v4
					C242.4,180.6,246.4,180.6,242.4,180.6z M242.4,173.6v-4h4v4C242.4,173.6,246.4,173.6,242.4,173.6z M242.4,166.6v-4h4v4
					C242.4,166.6,246.4,166.6,242.4,166.6z M242.4,159.6v-4h4v4C242.4,159.6,246.4,159.6,242.4,159.6z M242.4,152.6v-4h4v4
					C242.4,152.6,246.4,152.6,242.4,152.6z M242.4,145.6v-4h4v4C242.4,145.6,246.4,145.6,242.4,145.6z M242.4,138.6v-4h4v4
					C242.4,138.6,246.4,138.6,242.4,138.6z M242.4,131.6v-4h4v4C242.4,131.6,246.4,131.6,242.4,131.6z M242.4,124.6v-4h4v4
					C242.4,124.6,246.4,124.6,242.4,124.6z M242.4,117.6v-4h4v4C242.4,117.6,246.4,117.6,242.4,117.6z M242.4,110.6v-4h4v4
					C242.4,110.6,246.4,110.6,242.4,110.6z M242.4,103.6v-4h4v4C242.4,103.6,246.4,103.6,242.4,103.6z"/>
			</g>
		</g>
	</g>
	<g>
		<g>
			<g>
				<path class="city-st0" d="M121.4,279.8v-4h4v4C121.4,279.8,125.4,279.8,121.4,279.8z M121.4,272.8v-4h4v4
					C121.4,272.8,125.4,272.8,121.4,272.8z M121.4,265.8v-4h4v4C121.4,265.8,125.4,265.8,121.4,265.8z M121.4,258.8v-4h4v4
					C121.4,258.8,125.4,258.8,121.4,258.8z M121.4,251.8v-4h4v4C121.4,251.8,125.4,251.8,121.4,251.8z M121.4,244.8v-4h4v4
					C121.4,244.8,125.4,244.8,121.4,244.8z M121.4,237.8v-4h4v4C121.4,237.8,125.4,237.8,121.4,237.8z M121.4,230.8v-4h4v4
					C121.4,230.8,125.4,230.8,121.4,230.8z M121.4,223.8v-4h4v4C121.4,223.8,125.4,223.8,121.4,223.8z M121.4,216.8v-4h4v4
					C121.4,216.8,125.4,216.8,121.4,216.8z M121.4,209.8v-4h4v4C121.4,209.8,125.4,209.8,121.4,209.8z M121.4,202.8v-4h4v4
					C121.4,202.8,125.4,202.8,121.4,202.8z M121.4,195.8v-4h4v4C121.4,195.8,125.4,195.8,121.4,195.8z M121.4,188.8v-4h4v4
					C121.4,188.8,125.4,188.8,121.4,188.8z M121.4,181.8v-4h4v4C121.4,181.8,125.4,181.8,121.4,181.8z M121.4,174.8v-4h4v4
					C121.4,174.8,125.4,174.8,121.4,174.8z M121.4,167.8v-4h4v4C121.4,167.8,125.4,167.8,121.4,167.8z M121.4,160.8v-4h4v4
					C121.4,160.8,125.4,160.8,121.4,160.8z M121.4,153.8v-4h4v4C121.4,153.8,125.4,153.8,121.4,153.8z M121.4,146.8v-4h4v4
					C121.4,146.8,125.4,146.8,121.4,146.8z M121.4,139.8v-4h4v4C121.4,139.8,125.4,139.8,121.4,139.8z M121.4,132.8v-4h4v4
					C121.4,132.8,125.4,132.8,121.4,132.8z M121.4,125.8v-4h4v4C121.4,125.8,125.4,125.8,121.4,125.8z M121.4,118.8v-4h4v4
					C121.4,118.8,125.4,118.8,121.4,118.8z M121.4,111.8v-4h4v4C121.4,111.8,125.4,111.8,121.4,111.8z M121.4,104.8v-4h4v4
					C121.4,104.8,125.4,104.8,121.4,104.8z M121.4,97.8v-4h4v4C121.4,97.8,125.4,97.8,121.4,97.8z M121.4,90.8v-4h4v4
					C121.4,90.8,125.4,90.8,121.4,90.8z M121.4,83.8v-4h4v4C121.4,83.8,125.4,83.8,121.4,83.8z M121.4,76.8v-4h4v4
					C121.4,76.8,125.4,76.8,121.4,76.8z M121.4,69.8v-4h4v4C121.4,69.8,125.4,69.8,121.4,69.8z M121.4,62.8v-4h4v4
					C121.4,62.8,125.4,62.8,121.4,62.8z M121.4,55.8v-4h4v4C121.4,55.8,125.4,55.8,121.4,55.8z M121.4,48.8v-4h4v4
					C121.4,48.8,125.4,48.8,121.4,48.8z M121.4,41.8v-4h4v4C121.4,41.8,125.4,41.8,121.4,41.8z"/>
			</g>
		</g>
	</g>
	<g>
		<g>
			<g>
				<rect x="223.4" y="101.5" class="city-st0" width="4" height="208"/>
			</g>
		</g>
	</g>
	<g>
		<g>
			<g>
				<rect x="212.4" y="101.5" class="city-st0" width="4" height="188"/>
			</g>
		</g>
	</g>
	<g>
		<g>
			<g>
				<rect x="201.4" y="101.5" class="city-st0" width="4" height="178"/>
			</g>
		</g>
	</g>
	<g>
		<g>
			<g>
				<rect x="189.4" y="116.5" class="city-st0" width="4" height="157"/>
			</g>
		</g>
	</g>
	<g>
		<g>
			<g>
				<rect x="178.4" y="116.5" class="city-st0" width="4" height="151"/>
			</g>
		</g>
	</g>
	<g>
		<g>
			<g>
				<rect x="166.4" y="81.5" class="city-st0" width="4" height="185"/>
			</g>
		</g>
	</g>
	<g>
		<g>
			<g>
				<rect x="144.4" y="81.5" class="city-st0" width="4" height="188"/>
			</g>
		</g>
	</g>
	<g>
		<g>
			<g>
				<rect x="133.4" y="81.5" class="city-st0" width="4" height="192"/>
			</g>
		</g>
	</g>
	<g>
		<g>
			<g>
				<rect x="155.4" y="81.5" class="city-st0" width="4" height="184"/>
			</g>
		</g>
	</g>
	<g>
		<g>
			<g>
				<rect x="229.7" y="33.7" class="city-st0" width="4" height="66.9"/>
			</g>
		</g>
	</g>
	<g>
		<g>
			<g>
				<rect x="216" y="67.2" class="city-st0" width="4" height="34.7"/>
			</g>
		</g>
	</g>
	<g>
		<g>
			<g>
				<rect x="205" y="67.2" class="city-st0" width="4" height="34.7"/>
			</g>
		</g>
	</g>
	<g>
		<g>
			<g>
				<rect x="195.5" y="67.2" class="city-st0" width="4" height="50.7"/>
			</g>
		</g>
	</g>
	<g>
		<g>
			<g>
				<rect x="183.5" y="67.2" class="city-st0" width="4" height="50.7"/>
			</g>
		</g>
	</g>
	<g>
		<g>
			<g>
				<rect x="173.1" y="67.2" class="city-st0" width="4" height="15"/>
			</g>
		</g>
	</g>
	<g>
		<g>
			<g>
				<rect x="161.8" y="67.2" class="city-st0" width="4" height="15"/>
			</g>
		</g>
	</g>
	<g>
		<g>
			<g>
				<rect x="150.1" y="67.2" class="city-st0" width="4" height="15"/>
			</g>
		</g>
	</g>
	<g>
		<g>
			<g>
				<rect x="144.9" y="34.5" class="city-st0" width="4" height="45.7"/>
			</g>
		</g>
	</g>
	<g>
		<g>
			<g>
				<rect x="155.2" y="33.5" class="city-st0" width="4" height="35"/>
			</g>
		</g>
		<g>
			<g>
				<rect x="166.1" y="33.6" class="city-st0" width="4" height="35"/>
			</g>
		</g>
		<g>
			<g>
				<rect x="177.1" y="33.7" class="city-st0" width="4" height="35"/>
			</g>
		</g>
		<g>
			<g>
				<rect x="188" y="33.8" class="city-st0" width="4" height="35"/>
			</g>
		</g>
		<g>
			<g>
				<rect x="199" y="33.9" class="city-st0" width="4" height="35"/>
			</g>
		</g>
		<g>
			<g>
				<rect x="209.9" y="34" class="city-st0" width="4" height="35"/>
			</g>
		</g>
		<g>
			<g>
				<rect x="220.9" y="34.1" class="city-st0" width="4" height="35"/>
			</g>
		</g>
	</g>
	<g>
		<g>
			<g>
				<rect x="127.4" y="146" class="city-st0" width="4" height="17.3"/>
			</g>
		</g>
		<g>
			<g>
				<rect x="138.7" y="146" class="city-st0" width="4" height="17.3"/>
			</g>
		</g>
		<g>
			<g>
				<rect x="150" y="146" class="city-st0" width="4" height="17.3"/>
			</g>
		</g>
		<g>
			<g>
				<rect x="161.4" y="146" class="city-st0" width="4" height="17.3"/>
			</g>
		</g>
		<g>
			<g>
				<rect x="172.7" y="146" class="city-st0" width="4" height="17.3"/>
			</g>
		</g>
		<g>
			<g>
				<rect x="184" y="146" class="city-st0" width="4" height="17.3"/>
			</g>
		</g>
		<g>
			<g>
				<rect x="195.4" y="146" class="city-st0" width="4" height="17.3"/>
			</g>
		</g>
		<g>
			<g>
				<rect x="206.7" y="146" class="city-st0" width="4" height="17.3"/>
			</g>
		</g>
		<g>
			<g>
				<rect x="218" y="146" class="city-st0" width="4" height="17.3"/>
			</g>
		</g>
		<g>
			<g>
				<rect x="229.4" y="146" class="city-st0" width="4" height="17.3"/>
			</g>
		</g>
	</g>
	<g>
		<g>
			<g>
				<path class="city-st0" d="M173.9,144.8v-3h3v3C173.9,144.8,176.9,144.8,173.9,144.8z M173.9,138.8v-3h3v3
					C173.9,138.8,176.9,138.8,173.9,138.8z M173.9,132.8v-3h3v3C173.9,132.8,176.9,132.8,173.9,132.8z M173.9,126.8v-3h3v3
					C173.9,126.8,176.9,126.8,173.9,126.8z M173.9,120.8v-3h3v3C173.9,120.8,176.9,120.8,173.9,120.8z M173.9,114.8v-3h3v3
					C173.9,114.8,176.9,114.8,173.9,114.8z M173.9,108.8v-3h3v3C173.9,108.8,176.9,108.8,173.9,108.8z M173.9,102.8v-3h3v3
					C173.9,102.8,176.9,102.8,173.9,102.8z M173.9,96.8v-3h3v3C173.9,96.8,176.9,96.8,173.9,96.8z M173.9,90.8v-3h3v3
					C173.9,90.8,176.9,90.8,173.9,90.8z"/>
			</g>
		</g>
	</g>
	<g>
		<g>
			<g>
				<path class="city-st0" d="M138.9,144v-3h3v3C138.9,144,141.9,144,138.9,144z M138.9,138v-3h3v3C138.9,138,141.9,138,138.9,138z
					 M138.9,132v-3h3v3C138.9,132,141.9,132,138.9,132z M138.9,126v-3h3v3C138.9,126,141.9,126,138.9,126z M138.9,120v-3h3v3
					C138.9,120,141.9,120,138.9,120z M138.9,114v-3h3v3C138.9,114,141.9,114,138.9,114z M138.9,108v-3h3v3
					C138.9,108,141.9,108,138.9,108z M138.9,102v-3h3v3C138.9,102,141.9,102,138.9,102z M138.9,96v-3h3v3
					C138.9,96,141.9,96,138.9,96z M138.9,90v-3h3v3C138.9,90,141.9,90,138.9,90z M138.9,84v-3h3v3C138.9,84,141.9,84,138.9,84z
					 M138.9,78v-3h3v3C138.9,78,141.9,78,138.9,78z M138.9,72v-3h3v3C138.9,72,141.9,72,138.9,72z M138.9,66v-3h3v3
					C138.9,66,141.9,66,138.9,66z M138.9,60v-3h3v3C138.9,60,141.9,60,138.9,60z M138.9,54v-3h3v3C138.9,54,141.9,54,138.9,54z
					 M138.9,48v-3h3v3C138.9,48,141.9,48,138.9,48z M138.9,42v-3h3v3C138.9,42,141.9,42,138.9,42z"/>
			</g>
		</g>
	</g>
	<g>
		<g>
			<g>
				<path class="city-st0" d="M127.2,146.5l0-4l4,0l0,4C127.2,146.5,131.2,146.6,127.2,146.5z M127.3,139.5l0-4l4,0l0,4
					C127.3,139.5,131.3,139.6,127.3,139.5z M127.4,132.5l0-4l4,0l0,4C127.4,132.5,131.4,132.6,127.4,132.5z M127.5,125.5l0-4l4,0
					l0,4C127.5,125.5,131.5,125.6,127.5,125.5z M127.6,118.5l0-4l4,0l0,4C127.6,118.5,131.6,118.6,127.6,118.5z M127.7,111.5l0-4
					l4,0l0,4C127.7,111.5,131.7,111.6,127.7,111.5z M127.7,104.5l0-4l4,0l0,4C127.7,104.5,131.7,104.6,127.7,104.5z M127.8,97.5l0-4
					l4,0l0,4C127.8,97.5,131.8,97.6,127.8,97.5z M127.9,90.5l0-4l4,0l0,4C127.9,90.5,131.9,90.6,127.9,90.5z M128,83.5l0-4l4,0l0,4
					C128,83.5,132,83.6,128,83.5z M128.1,76.5l0-4l4,0l0,4C128.1,76.5,132.1,76.6,128.1,76.5z M128.2,69.5l0-4l4,0l0,4
					C128.2,69.5,132.2,69.6,128.2,69.5z M128.2,62.5l0-4l4,0l0,4C128.2,62.5,132.2,62.6,128.2,62.5z M128.3,55.5l0-4l4,0l0,4
					C128.3,55.5,132.3,55.6,128.3,55.5z M128.4,48.5l0-4l4,0l0,4C128.4,48.5,132.4,48.6,128.4,48.5z M128.5,41.5l0-4l4,0l0,4
					C128.5,41.5,132.5,41.6,128.5,41.5z"/>
			</g>
		</g>
	</g>
	<g>
		<g>
			<g>
				<path class="city-st0" d="M242.5,97.4l0-4l4,0l0,4C242.5,97.4,246.5,97.5,242.5,97.4z M242.6,90.4l0-4l4,0l0,4
					C242.6,90.4,246.6,90.5,242.6,90.4z M242.7,83.4l0-4l4,0l0,4C242.7,83.4,246.7,83.5,242.7,83.4z M242.8,76.4l0-4l4,0l0,4
					C242.8,76.4,246.8,76.5,242.8,76.4z M242.8,69.4l0-4l4,0l0,4C242.8,69.4,246.8,69.5,242.8,69.4z M242.9,62.4l0-4l4,0l0,4
					C242.9,62.4,246.9,62.5,242.9,62.4z M243,55.4l0-4l4,0l0,4C243,55.4,247,55.5,243,55.4z M243.1,48.5l0-4l4,0l0,4
					C243.1,48.5,247.1,48.5,243.1,48.5z M243.2,41.5l0-4l4,0l0,4C243.2,41.5,247.2,41.5,243.2,41.5z"/>
			</g>
		</g>
	</g>
	<g>
		<g>
			<g>
				<path class="city-st0" d="M161.9,144.8v-3h3v3C161.9,144.8,164.9,144.8,161.9,144.8z M161.9,138.8v-3h3v3
					C161.9,138.8,164.9,138.8,161.9,138.8z M161.9,132.8v-3h3v3C161.9,132.8,164.9,132.8,161.9,132.8z M161.9,126.8v-3h3v3
					C161.9,126.8,164.9,126.8,161.9,126.8z M161.9,120.8v-3h3v3C161.9,120.8,164.9,120.8,161.9,120.8z M161.9,114.8v-3h3v3
					C161.9,114.8,164.9,114.8,161.9,114.8z M161.9,108.8v-3h3v3C161.9,108.8,164.9,108.8,161.9,108.8z M161.9,102.8v-3h3v3
					C161.9,102.8,164.9,102.8,161.9,102.8z M161.9,96.8v-3h3v3C161.9,96.8,164.9,96.8,161.9,96.8z M161.9,90.8v-3h3v3
					C161.9,90.8,164.9,90.8,161.9,90.8z"/>
			</g>
		</g>
	</g>
	<g>
		<g>
			<g>
				<path class="city-st0" d="M150.4,144.8v-3h3v3C150.4,144.8,153.4,144.8,150.4,144.8z M150.4,138.8v-3h3v3
					C150.4,138.8,153.4,138.8,150.4,138.8z M150.4,132.8v-3h3v3C150.4,132.8,153.4,132.8,150.4,132.8z M150.4,126.8v-3h3v3
					C150.4,126.8,153.4,126.8,150.4,126.8z M150.4,120.8v-3h3v3C150.4,120.8,153.4,120.8,150.4,120.8z M150.4,114.8v-3h3v3
					C150.4,114.8,153.4,114.8,150.4,114.8z M150.4,108.8v-3h3v3C150.4,108.8,153.4,108.8,150.4,108.8z M150.4,102.8v-3h3v3
					C150.4,102.8,153.4,102.8,150.4,102.8z M150.4,96.8v-3h3v3C150.4,96.8,153.4,96.8,150.4,96.8z M150.4,90.8v-3h3v3
					C150.4,90.8,153.4,90.8,150.4,90.8z"/>
			</g>
		</g>
	</g>
	<g>
		<g>
			<g>
				<path class="city-st0" d="M184.4,143.5v-3h3v3C184.4,143.5,187.4,143.5,184.4,143.5z M184.4,137.5v-3h3v3
					C184.4,137.5,187.4,137.5,184.4,137.5z M184.4,131.5v-3h3v3C184.4,131.5,187.4,131.5,184.4,131.5z M184.4,125.5v-3h3v3
					C184.4,125.5,187.4,125.5,184.4,125.5z"/>
			</g>
		</g>
	</g>
	<g>
		<g>
			<g>
				<path class="city-st0" d="M196.1,143.5v-3h3v3C196.1,143.5,199.1,143.5,196.1,143.5z M196.1,137.5v-3h3v3
					C196.1,137.5,199.1,137.5,196.1,137.5z M196.1,131.5v-3h3v3C196.1,131.5,199.1,131.5,196.1,131.5z M196.1,125.5v-3h3v3
					C196.1,125.5,199.1,125.5,196.1,125.5z"/>
			</g>
		</g>
	</g>
	<g>
		<g>
			<g>
				<path class="city-st0" d="M206.6,143.5v-3h3v3C206.6,143.5,209.6,143.5,206.6,143.5z M206.6,137.5v-3h3v3
					C206.6,137.5,209.6,137.5,206.6,137.5z M206.6,131.4v-3h3v3C206.6,131.4,209.6,131.4,206.6,131.4z M206.6,125.4v-3h3v3
					C206.6,125.4,209.6,125.4,206.6,125.4z M206.6,119.4v-3h3v3C206.6,119.4,209.6,119.4,206.6,119.4z M206.6,113.4v-3h3v3
					C206.6,113.4,209.6,113.4,206.6,113.4z M206.6,107.4v-3h3v3C206.6,107.4,209.6,107.4,206.6,107.4z"/>
			</g>
		</g>
	</g>
	<g>
		<g>
			<g>
				<path class="city-st0" d="M217.6,143.5V142l0,0v-1.5h3v3C217.6,143.5,220.6,143.5,217.6,143.5z M217.6,137.5V136l0,0v-1.5h3v3
					C217.6,137.5,220.6,137.5,217.6,137.5z M217.6,131.4v-3h3v3C217.6,131.4,220.6,131.4,217.6,131.4z M217.6,125.4v-1.5l0,0v-1.5h3
					v3C217.6,125.4,220.6,125.4,217.6,125.4z M217.6,119.4v-1.5l0,0v-1.5h3v3C217.6,119.4,220.6,119.4,217.6,119.4z M217.6,113.4
					v-1.5l0,0v-1.5h3v3C217.6,113.4,220.6,113.4,217.6,113.4z M217.6,107.4v-1.5l0,0v-1.5h3v3C217.6,107.4,220.6,107.4,217.6,107.4z
					"/>
			</g>
		</g>
	</g>
	<g>
		<g>
			<g>
				<path class="city-st0" d="M230.6,143.5v-3h3v3C230.6,143.5,233.6,143.5,230.6,143.5z M230.6,137.5v-3h3v3
					C230.6,137.5,233.6,137.5,230.6,137.5z M230.6,131.4v-3h3v3C230.6,131.4,233.6,131.4,230.6,131.4z M230.6,125.4v-3h3v3
					C230.6,125.4,233.6,125.4,230.6,125.4z M230.6,119.4v-3h3v3C230.6,119.4,233.6,119.4,230.6,119.4z M230.6,113.4v-3h3v3
					C230.6,113.4,233.6,113.4,230.6,113.4z M230.6,107.4v-3h3v3C230.6,107.4,233.6,107.4,230.6,107.4z"/>
			</g>
		</g>
	</g>
	<g>
		<g>
			<g>
				<path class="city-st0" d="M230.6,361.9v-3h3v3C230.6,361.9,233.6,361.9,230.6,361.9z M230.6,355.8v-3h3v3
					C230.6,355.8,233.6,355.8,230.6,355.8z M230.6,349.8v-3h3v3C230.6,349.8,233.6,349.8,230.6,349.8z M230.6,343.8v-3h3v3
					C230.6,343.8,233.6,343.8,230.6,343.8z M230.6,337.8v-3h3v3C230.6,337.8,233.6,337.8,230.6,337.8z M230.6,331.7v-3h3v3
					C230.6,331.7,233.6,331.7,230.6,331.7z M230.6,325.7v-3h3v3C230.6,325.7,233.6,325.7,230.6,325.7z M230.6,319.7v-3h3v3
					C230.6,319.7,233.6,319.7,230.6,319.7z M230.6,313.7v-3h3v3C230.6,313.7,233.6,313.7,230.6,313.7z M230.6,307.7v-3h3v3
					C230.6,307.7,233.6,307.7,230.6,307.7z M230.6,301.7v-3h3v3C230.6,301.7,233.6,301.7,230.6,301.7z M230.6,295.7v-3h3v3
					C230.6,295.7,233.6,295.7,230.6,295.7z M230.6,289.7v-3h3v3C230.6,289.7,233.6,289.7,230.6,289.7z M230.6,283.6v-3h3v3
					C230.6,283.6,233.6,283.6,230.6,283.6z M230.6,277.6v-3h3v3C230.6,277.6,233.6,277.6,230.6,277.6z M230.6,271.6v-3h3v3
					C230.6,271.6,233.6,271.6,230.6,271.6z M230.6,265.6v-3h3v3C230.6,265.6,233.6,265.6,230.6,265.6z M230.6,259.6v-3h3v3
					C230.6,259.6,233.6,259.6,230.6,259.6z M230.6,253.6v-3h3v3C230.6,253.6,233.6,253.6,230.6,253.6z M230.6,247.5v-3h3v3
					C230.6,247.5,233.6,247.5,230.6,247.5z M230.6,241.5v-3h3v3C230.6,241.5,233.6,241.5,230.6,241.5z M230.6,235.5v-3h3v3
					C230.6,235.5,233.6,235.5,230.6,235.5z M230.6,229.5v-3h3v3C230.6,229.5,233.6,229.5,230.6,229.5z"/>
			</g>
		</g>
	</g>
	<g>
		<g>
			<g>
				<path class="city-st0" d="M207.6,283.5v-3h3v3C207.6,283.5,210.6,283.5,207.6,283.5z M207.6,277.4v-3h3v3
					C207.6,277.4,210.6,277.4,207.6,277.4z M207.6,271.4v-3h3v3C207.6,271.4,210.6,271.4,207.6,271.4z M207.6,265.4v-3h3v3
					C207.6,265.4,210.6,265.4,207.6,265.4z M207.6,259.4v-3h3v3C207.6,259.4,210.6,259.4,207.6,259.4z M207.6,253.3v-3h3v3
					C207.6,253.3,210.6,253.3,207.6,253.3z M207.6,247.3v-3h3v3C207.6,247.3,210.6,247.3,207.6,247.3z M207.6,241.3v-3h3v3
					C207.6,241.3,210.6,241.3,207.6,241.3z M207.6,235.3v-3h3v3C207.6,235.3,210.6,235.3,207.6,235.3z M207.6,229.3v-3h3v3
					C207.6,229.3,210.6,229.3,207.6,229.3z M207.6,223.3v-3h3v3C207.6,223.3,210.6,223.3,207.6,223.3z M207.6,217.3v-3h3v3
					C207.6,217.3,210.6,217.3,207.6,217.3z M207.6,211.2v-3h3v3C207.6,211.2,210.6,211.2,207.6,211.2z M207.6,205.2v-3h3v3
					C207.6,205.2,210.6,205.2,207.6,205.2z M207.6,199.2v-3h3v3C207.6,199.2,210.6,199.2,207.6,199.2z M207.6,193.2v-1.5l0,0v-1.5h3
					v3C207.6,193.2,210.6,193.2,207.6,193.2z M207.6,187.2v-3h3v3C207.6,187.2,210.6,187.2,207.6,187.2z M207.6,181.2v-3h3v3
					C207.6,181.2,210.6,181.2,207.6,181.2z M207.6,175.1v-3h3v3C207.6,175.1,210.6,175.1,207.6,175.1z"/>
			</g>
		</g>
	</g>
	<g>
		<g>
			<g>
				<path class="city-st0" d="M196.3,275.5v-3h3v3C196.3,275.5,199.3,275.5,196.3,275.5z M196.3,269.5v-3h3v3
					C196.3,269.5,199.3,269.5,196.3,269.5z M196.3,263.5v-3h3v3C196.3,263.5,199.3,263.5,196.3,263.5z M196.3,257.4v-3h3v3
					C196.3,257.4,199.3,257.4,196.3,257.4z M196.3,251.4v-3h3v3C196.3,251.4,199.3,251.4,196.3,251.4z M196.3,245.4v-3h3v3
					C196.3,245.4,199.3,245.4,196.3,245.4z M196.3,239.4v-3h3v3C196.3,239.4,199.3,239.4,196.3,239.4z M196.3,233.4v-3h3v3
					C196.3,233.4,199.3,233.4,196.3,233.4z M196.3,227.4v-3h3v3C196.3,227.4,199.3,227.4,196.3,227.4z M196.3,221.4v-3h3v3
					C196.3,221.4,199.3,221.4,196.3,221.4z M196.3,215.4v-3h3v3C196.3,215.4,199.3,215.4,196.3,215.4z M196.3,209.4v-3h3v3
					C196.3,209.4,199.3,209.4,196.3,209.4z M196.3,203.4v-3h3v3C196.3,203.4,199.3,203.4,196.3,203.4z M196.3,197.4v-1.5l0,0v-1.5h3
					v3C196.3,197.4,199.3,197.4,196.3,197.4z M196.3,191.4v-3h3v3C196.3,191.4,199.3,191.4,196.3,191.4z M196.3,185.4v-3h3v3
					C196.3,185.4,199.3,185.4,196.3,185.4z M196.3,179.4v-3h3v3C196.3,179.4,199.3,179.4,196.3,179.4z"/>
			</g>
		</g>
	</g>
	<g>
		<g>
			<g>
				<path class="city-st0" d="M184.3,269.5V268l0,0v-1.5h3v3C184.3,269.5,187.3,269.5,184.3,269.5z M184.3,263.4v-3h3v3
					C184.3,263.4,187.3,263.4,184.3,263.4z M184.3,257.4v-3h3v3C184.3,257.4,187.3,257.4,184.3,257.4z M184.3,251.4v-3h3v3
					C184.3,251.4,187.3,251.4,184.3,251.4z M184.3,245.4v-3h3v3C184.3,245.4,187.3,245.4,184.3,245.4z M184.3,239.4v-3h3v3
					C184.3,239.4,187.3,239.4,184.3,239.4z M184.3,233.4v-3h3v3C184.3,233.4,187.3,233.4,184.3,233.4z M184.3,227.4v-3h3v3
					C184.3,227.4,187.3,227.4,184.3,227.4z M184.3,221.3v-3h3v3C184.3,221.3,187.3,221.3,184.3,221.3z M184.3,215.3v-3h3v3
					C184.3,215.3,187.3,215.3,184.3,215.3z M184.3,209.3v-3h3v3C184.3,209.3,187.3,209.3,184.3,209.3z M184.3,203.3v-3h3v3
					C184.3,203.3,187.3,203.3,184.3,203.3z M184.3,197.3v-3h3v3C184.3,197.3,187.3,197.3,184.3,197.3z M184.3,191.3v-1.5l0,0v-1.5h3
					v3C184.3,191.3,187.3,191.3,184.3,191.3z"/>
			</g>
		</g>
	</g>
	<g>
		<g>
			<g>
				<path class="city-st0" d="M172.3,266.1v-3h3v3C172.3,266.1,175.3,266.1,172.3,266.1z M172.3,260.1v-3h3v3
					C172.3,260.1,175.3,260.1,172.3,260.1z M172.3,254.1v-3h3v3C172.3,254.1,175.3,254.1,172.3,254.1z M172.3,248.1v-3h3v3
					C172.3,248.1,175.3,248.1,172.3,248.1z M172.3,242.1v-3h3v3C172.3,242.1,175.3,242.1,172.3,242.1z M172.3,236.1v-3h3v3
					C172.3,236.1,175.3,236.1,172.3,236.1z M172.3,230v-3h3v3C172.3,230,175.3,230,172.3,230z M172.3,224v-3h3v3
					C172.3,224,175.3,224,172.3,224z M172.3,218v-1.5l0,0V215h3v3C172.3,218,175.3,218,172.3,218z M172.3,212v-1.5l0,0V209h3v3
					C172.3,212,175.3,212,172.3,212z M172.3,206v-3h3v3C172.3,206,175.3,206,172.3,206z M172.3,200v-3h3v3
					C172.3,200,175.3,200,172.3,200z"/>
			</g>
		</g>
	</g>
	<g>
		<g>
			<g>
				<path class="city-st0" d="M160.9,265.1v-1.5c0,0,0,0,0,0v-1.5h3v3C160.9,265.1,163.9,265.1,160.9,265.1z M160.9,259.1v-1.5
					c0,0,0,0,0,0v-1.5h3v3C160.9,259.1,163.9,259.1,160.9,259.1z M160.9,253.1v-3h3v3C160.9,253.1,163.9,253.1,160.9,253.1z
					 M160.9,247.1v-3h3v3C160.9,247.1,163.9,247.1,160.9,247.1z M160.9,241.1v-3h3v3C160.9,241.1,163.9,241.1,160.9,241.1z
					 M160.9,235.1v-3h3v3C160.9,235.1,163.9,235.1,160.9,235.1z M160.9,229v-3h3v3C160.9,229,163.9,229,160.9,229z M160.9,223v-3h3
					v3C160.9,223,163.9,223,160.9,223z M160.9,217v-3h3v3C160.9,217,163.9,217,160.9,217z M160.9,211v-3h3v3
					C160.9,211,163.9,211,160.9,211z"/>
			</g>
		</g>
	</g>
	<g>
		<g>
			<g>
				<path class="city-st0" d="M150.3,265.8v-1.5c0,0,0,0,0,0v-1.5h3v3C150.3,265.8,153.3,265.8,150.3,265.8z M150.3,259.8v-1.5
					c0,0,0,0,0,0v-1.5h3v3C150.3,259.8,153.3,259.8,150.3,259.8z M150.3,253.8v-3h3v3C150.3,253.8,153.3,253.8,150.3,253.8z
					 M150.3,247.7v-1.5c0,0,0,0,0,0v-1.5h3v3C150.3,247.7,153.3,247.7,150.3,247.7z M150.3,241.7v-1.5c0,0,0,0,0,0v-1.5h3v3
					C150.3,241.7,153.3,241.7,150.3,241.7z M150.3,235.7v-1.5c0,0,0,0,0,0v-1.5h3v3C150.3,235.7,153.3,235.7,150.3,235.7z
					 M150.3,229.7v-1.5c0,0,0,0,0,0v-1.5h3v3C150.3,229.7,153.3,229.7,150.3,229.7z M150.3,223.7v-1.5c0,0,0,0,0,0v-1.5h3v3
					C150.3,223.7,153.3,223.7,150.3,223.7z M150.3,217.7v-1.5c0,0,0,0,0,0v-1.5h3v3C150.3,217.7,153.3,217.7,150.3,217.7z
					 M150.3,211.7v-1.5c0,0,0,0,0,0v-1.5h3v3C150.3,211.7,153.3,211.7,150.3,211.7z"/>
			</g>
		</g>
	</g>
	<g>
		<g>
			<g>
				<path class="city-st0" d="M138.9,270.8v-1.5l0,0v-1.5h3v3C138.9,270.8,141.9,270.8,138.9,270.8z M138.9,264.8v-1.5l0,0v-1.5h3v3
					C138.9,264.8,141.9,264.8,138.9,264.8z M138.9,258.8v-1.5l0,0v-1.5h3v3C138.9,258.8,141.9,258.8,138.9,258.8z M138.9,252.8v-1.5
					l0,0v-1.5h3v3C138.9,252.8,141.9,252.8,138.9,252.8z M138.9,246.7v-1.5l0,0v-1.5h3v3C138.9,246.7,141.9,246.7,138.9,246.7z
					 M138.9,240.7v-1.5l0,0v-1.5h3v3C138.9,240.7,141.9,240.7,138.9,240.7z M138.9,234.7v-1.5l0,0v-1.5h3v3
					C138.9,234.7,141.9,234.7,138.9,234.7z M138.9,228.7v-1.5l0,0v-1.5h3v3C138.9,228.7,141.9,228.7,138.9,228.7z M138.9,222.7v-1.5
					l0,0v-1.5h3v3C138.9,222.7,141.9,222.7,138.9,222.7z"/>
			</g>
		</g>
	</g>
	<g>
		<g>
			<g>
				<path class="city-st0" d="M230.6,223.3v-1.5l0,0v-1.5h3v3C230.6,223.3,233.6,223.3,230.6,223.3z M230.6,217.2v-1.5l0,0v-1.5h3v3
					C230.6,217.2,233.6,217.2,230.6,217.2z M230.6,211.2v-1.5l0,0v-1.5h3v3C230.6,211.2,233.6,211.2,230.6,211.2z M230.6,205.2v-1.5
					l0,0v-1.5h3v3C230.6,205.2,233.6,205.2,230.6,205.2z M230.6,199.2v-1.5l0,0v-1.5h3v3C230.6,199.2,233.6,199.2,230.6,199.2z
					 M230.6,193.2v-1.5l0,0v-1.5h3v3C230.6,193.2,233.6,193.2,230.6,193.2z M230.6,187.2v-1.5l0,0v-1.5h3v3
					C230.6,187.2,233.6,187.2,230.6,187.2z M230.6,181.2v-1.5l0,0v-1.5h3v3C230.6,181.2,233.6,181.2,230.6,181.2z M230.6,175.2v-1.5
					l0,0v-1.5h3v3C230.6,175.2,233.6,175.2,230.6,175.2z"/>
			</g>
		</g>
	</g>
	<g>
		<g>
			<g>
				<path class="city-st0" d="M128.3,278.5v-3h3v3C128.3,278.5,131.3,278.5,128.3,278.5z M128.3,272.4v-3h3v3
					C128.3,272.4,131.3,272.4,128.3,272.4z M128.3,266.4v-3h3v3C128.3,266.4,131.3,266.4,128.3,266.4z M128.3,260.4v-3h3v3
					C128.3,260.4,131.3,260.4,128.3,260.4z M128.3,254.4v-3h3v3C128.3,254.4,131.3,254.4,128.3,254.4z M128.3,248.4v-3h3v3
					C128.3,248.4,131.3,248.4,128.3,248.4z M128.3,242.4v-3h3v3C128.3,242.4,131.3,242.4,128.3,242.4z M128.3,236.4v-3h3v3
					C128.3,236.4,131.3,236.4,128.3,236.4z M128.3,230.4v-3h3v3C128.3,230.4,131.3,230.4,128.3,230.4z"/>
			</g>
		</g>
	</g>
	<g>
		<g>
			<g>
				<path class="city-st0" d="M264.2,375.7H0.4c-0.2,0-0.4-0.5-0.4-1c0-0.6,0.2-1,0.4-1h263.9c0.2,0,0.4,0.5,0.4,1
					C264.6,375.2,264.4,375.7,264.2,375.7z"/>
			</g>
		</g>
	</g>
</g>
</svg>
