<?xml version="1.0" encoding="utf-8"?>
<!-- Generator: Adobe Illustrator 23.0.2, SVG Export Plug-In . SVG Version: 6.00 Build 0)  -->
<svg version="1.1" id="Isolation_Mode" xmlns="http://www.w3.org/2000/svg" xmlns:xlink="http://www.w3.org/1999/xlink" x="0px"
	 y="0px" width="132.1px" height="108.1px" viewBox="0 0 132.1 108.1" style="enable-background:new 0 0 132.1 108.1;"
	 xml:space="preserve">
<style type="text/css">
	.st0{fill:#BF8929;}
</style>
<g>
	<g>
		<path class="st0" d="M64.2,55.4c-0.6,0-1.2-0.5-1.2-1.2l-0.5-38c0-0.6,0.5-1.2,1.2-1.2c0.6,0,1.2,0.5,1.2,1.2l0.5,38
			C65.4,54.9,64.8,55.4,64.2,55.4C64.2,55.4,64.2,55.4,64.2,55.4z"/>
	</g>
	<g>
		<path class="st0" d="M64.4,73.1c-0.6,0-1.2-0.5-1.2-1.2l-0.1-5.8c0-0.6,0.5-1.2,1.2-1.2c0.7,0,1.2,0.5,1.2,1.2l0.1,5.8
			C65.6,72.6,65.1,73.1,64.4,73.1C64.4,73.1,64.4,73.1,64.4,73.1z"/>
	</g>
	<g>
		<path class="st0" d="M66.5,86.8c-0.6,0-1.2-0.5-1.2-1.2l0-3c0-0.6,0.5-1.2,1.2-1.2c0.6,0,1.2,0.5,1.2,1.2l0,3
			C67.7,86.3,67.2,86.8,66.5,86.8C66.6,86.8,66.6,86.8,66.5,86.8z"/>
	</g>
	<g>
		<path class="st0" d="M66.5,100.6c-0.6,0-1.2-0.5-1.2-1.2l0-3c0-0.6,0.5-1.2,1.2-1.2c0.6,0,1.2,0.5,1.2,1.2l0,3
			C67.7,100.1,67.2,100.6,66.5,100.6C66.6,100.6,66.6,100.6,66.5,100.6z"/>
	</g>
	<g>
		<path class="st0" d="M67.7,73.1C67.7,73.1,67.7,73.1,67.7,73.1c-0.7,0-1.2-0.5-1.2-1.2l0.1-5.8c0-0.6,0.5-1.1,1.2-1.2
			c0.6,0,1.2,0.5,1.2,1.2L68.9,72C68.9,72.6,68.3,73.1,67.7,73.1z"/>
	</g>
	<g>
		<path class="st0" d="M67.9,55.4C67.9,55.4,67.9,55.4,67.9,55.4c-0.7,0-1.2-0.5-1.2-1.2l0.5-38c0-0.6,0.5-1.1,1.2-1.2
			c0.6,0,1.2,0.5,1.2,1.2l-0.5,38C69.1,54.9,68.6,55.4,67.9,55.4z"/>
	</g>
	<g>
		<path class="st0" d="M66.1,18c-3.8,0-6.9-3.1-6.9-6.9c0-3.8,3.1-6.9,6.9-6.9c3.8,0,6.9,3.1,6.9,6.9C73,14.9,69.9,18,66.1,18z
			 M66.1,6.5c-2.5,0-4.6,2.1-4.6,4.6c0,2.5,2.1,4.6,4.6,4.6c2.5,0,4.6-2.1,4.6-4.6C70.6,8.5,68.6,6.5,66.1,6.5z"/>
	</g>
	<g>
		<g>
			<g>
				<path class="st0" d="M81.1,37.4c-6.4,0-13.2-6.5-13.5-6.8c-0.5-0.5-0.5-1.2,0-1.7c0.5-0.5,1.2-0.5,1.7,0c0.1,0.1,6.5,6.3,12,6.1
					c1.7-0.1,3.1-0.7,4.3-2l0.6-0.7l0.8,0.5c1.4,0.8,2.8,1,3.9,0.5c0.9-0.4,1.5-1.2,1.8-2.2l0.3-1.3l1.3,0.5
					c1.5,0.6,2.7,0.7,3.7,0.2c1.5-0.7,2.1-2.5,2.1-2.5l0.3-1l1,0.2c0,0,2.3,0.5,3.7-0.7c0.7-0.6,1.1-1.5,1.1-2.9l0-1.3l1.3,0.2
					c1.3,0.2,2.3,0,3-0.6c1.1-0.9,1.4-2.4,1.4-3c0.1-0.8,0.8-1.5,1.6-1.5c0.6,0,2.2-0.1,3.1-1.1c0.7-0.7,0.9-1.7,0.9-3.1l-0.1-1.2
					h1.2c0.3,0,0.5,0,0.8,0c1.9-0.1,3.2-0.7,4.1-1.7c0.6-0.7,0.9-1.6,1.1-2.3H96c-6.2,0-13.2,4.7-15.3,10.2
					c-2.8,7.5-10.8,8.1-11.2,8.2c-0.6,0-1.2-0.4-1.2-1.1c0-0.6,0.4-1.2,1.1-1.2l0,0c0.3,0,6.8-0.5,9.1-6.6
					C80.9,10.9,88.7,5.7,96,5.7h31.3l0.1,1.1c0,0.1,0.2,2.9-1.7,5.1c-1.3,1.5-3.1,2.3-5.5,2.5c-0.1,1.5-0.6,2.7-1.5,3.6
					c-1.3,1.4-3,1.7-4.2,1.8c-0.2,1.2-0.8,2.8-2.2,4c-1,0.7-2.1,1.1-3.5,1.2c-0.2,1.5-0.9,2.6-1.9,3.5c-1.5,1.2-3.5,1.3-4.7,1.2
					c-0.5,0.9-1.4,2.3-3,3c-1.3,0.6-2.8,0.7-4.5,0.2C94,34.1,93,35,91.9,35.5c-1.5,0.7-3.3,0.6-5.2-0.2c-1.5,1.4-3.3,2.1-5.3,2.1
					C81.3,37.4,81.2,37.4,81.1,37.4z"/>
			</g>
			<g>
				<path class="st0" d="M101.3,29.6c-0.1,0-0.1,0-0.2,0c-0.1,0-2.4-0.4-4.7-1.6c-0.6-0.3-0.8-1-0.5-1.6c0.3-0.6,1-0.8,1.6-0.5
					c2,1,4.1,1.4,4.1,1.4c0.6,0.1,1.1,0.7,1,1.4C102.4,29.2,101.9,29.6,101.3,29.6z"/>
			</g>
			<g>
				<path class="st0" d="M113.7,19.8C113.7,19.8,113.7,19.8,113.7,19.8l-7-0.4c-0.6,0-1.1-0.6-1.1-1.2c0-0.6,0.6-1.2,1.2-1.1l7,0.4
					c0.6,0,1.1,0.6,1.1,1.2C114.9,19.4,114.4,19.8,113.7,19.8z"/>
			</g>
			<g>
				<path class="st0" d="M119.8,14.4h-7.6c-0.6,0-1.2-0.5-1.2-1.2c0-0.6,0.5-1.2,1.2-1.2h7.6c0.6,0,1.2,0.5,1.2,1.2
					C120.9,13.9,120.4,14.4,119.8,14.4z"/>
			</g>
			<g>
				<path class="st0" d="M107.9,24.9c0,0-0.1,0-0.1,0c0,0-0.1,0-5.7-0.8c-0.6-0.1-1.1-0.7-1-1.3c0.1-0.6,0.7-1.1,1.3-1
					c5,0.7,5.5,0.8,5.6,0.8c0.6,0.1,1.1,0.7,1,1.3C109,24.5,108.5,24.9,107.9,24.9z"/>
			</g>
		</g>
		<g>
			<g>
				<path class="st0" d="M51,37.4c-0.1,0-0.2,0-0.3,0c-2-0.1-3.8-0.8-5.3-2.1c-1.8,0.8-3.6,0.9-5.2,0.2c-1.2-0.5-2.1-1.4-2.7-2.6
					c-1.7,0.5-3.2,0.4-4.5-0.2c-1.6-0.7-2.5-2.1-3-3c-1.2,0.1-3.2,0-4.7-1.2c-1-0.8-1.7-2-1.9-3.5c-1.4,0-2.5-0.4-3.5-1.2
					c-1.5-1.1-2-2.8-2.2-4c-1.2-0.1-2.9-0.5-4.2-1.8c-0.9-0.9-1.4-2.1-1.5-3.6c-2.4-0.2-4.2-1-5.5-2.5c-1.9-2.2-1.7-5-1.7-5.1
					l0.1-1.1h31.3c7.2,0,15,5.3,17.5,11.7c2.3,6.1,9.1,6.6,9.1,6.6c0.6,0,1.1,0.6,1.1,1.2c0,0.6-0.6,1.1-1.2,1.1
					c-0.3,0-8.3-0.6-11.2-8.2C49.4,12.7,42.4,8,36.2,8h-29c0.3,1.4,1.3,3.7,5.2,4c0.2,0,0.5,0,0.8,0h1.2l-0.1,1.2
					c-0.1,1.4,0.2,2.4,0.9,3.1c1,1,2.5,1.1,3.1,1.1c0.8,0,1.5,0.6,1.6,1.5c0.1,0.6,0.4,2.1,1.4,3c0.7,0.6,1.7,0.8,3,0.6l1.3-0.2
					l0,1.3c0,1.3,0.4,2.3,1.1,2.9c1.4,1.1,3.7,0.7,3.7,0.7l1-0.2l0.3,1c0,0,0.6,1.8,2.1,2.5c1,0.5,2.3,0.4,3.7-0.2l1.3-0.5l0.3,1.3
					c0.3,1.1,0.9,1.9,1.8,2.2c1.1,0.5,2.5,0.3,3.9-0.5l0.8-0.5l0.6,0.7c1.2,1.3,2.6,2,4.3,2c5.5,0.2,12-6.1,12-6.1
					c0.5-0.5,1.2-0.4,1.7,0c0.5,0.5,0.4,1.2,0,1.7C64.2,30.9,57.4,37.4,51,37.4z"/>
			</g>
			<g>
				<path class="st0" d="M30.8,29.6c-0.6,0-1.1-0.4-1.2-1c-0.1-0.6,0.3-1.2,1-1.4c0,0,2.1-0.4,4.1-1.4c0.6-0.3,1.3,0,1.6,0.5
					c0.3,0.6,0,1.3-0.5,1.6c-2.3,1.1-4.6,1.5-4.7,1.6C30.9,29.6,30.9,29.6,30.8,29.6z"/>
			</g>
			<g>
				<path class="st0" d="M18.4,19.8c-0.6,0-1.1-0.5-1.2-1.1c0-0.6,0.5-1.2,1.1-1.2l7-0.4c0.6,0,1.2,0.5,1.2,1.1
					c0,0.6-0.5,1.2-1.1,1.2L18.4,19.8C18.4,19.8,18.4,19.8,18.4,19.8z"/>
			</g>
			<g>
				<path class="st0" d="M20,14.4h-7.6c-0.6,0-1.2-0.5-1.2-1.2c0-0.6,0.5-1.2,1.2-1.2H20c0.6,0,1.2,0.5,1.2,1.2
					C21.2,13.9,20.7,14.4,20,14.4z"/>
			</g>
			<g>
				<path class="st0" d="M24.3,24.9c-0.6,0-1.1-0.5-1.2-1.1c-0.1-0.6,0.4-1.2,1-1.3c0.1,0,0.7-0.1,5.6-0.8c0.6-0.1,1.2,0.4,1.3,1
					c0.1,0.6-0.4,1.2-1,1.3c-5.5,0.8-5.6,0.8-5.7,0.8C24.3,24.9,24.3,24.9,24.3,24.9z"/>
			</g>
		</g>
	</g>
	<g>
		<path class="st0" d="M63.2,88.7c-0.3,0-0.5-0.1-0.7-0.2c-1.4-1.1-2.1-2.3-2.1-3.7c-0.1-5.4,5.8-7,8.9-7.8c0.4-0.1,0.8-0.2,1.2-0.3
			c4.1-1.3,6.8-3.4,7.9-6.1c0.8-2,0.6-4.2-0.5-6c-0.3-0.7-0.7-1.2-1.2-1.7c-0.5-0.5-0.5-1.2,0-1.7c0.5-0.5,1.2-0.5,1.7,0
			c0.7,0.7,1.2,1.4,1.6,2.2c1.4,2.4,1.7,5.3,0.7,8c-0.9,2.4-3.3,5.6-9.4,7.5c-0.3,0.1-0.8,0.2-1.3,0.4c-3.7,1-7.3,2.2-7.2,5.5
			c0,0.4,0.1,1.1,1.2,1.9c0.5,0.4,0.6,1.1,0.2,1.6C63.9,88.5,63.6,88.7,63.2,88.7z"/>
	</g>
	<g>
		<path class="st0" d="M53.6,60.2c-0.2,0-0.3,0-0.5-0.1c-12.6-5.3-10.3-12.6-9.3-15.7l0.1-0.3c1.1-2.4,4.1-5.3,9-5.3
			c5.7,0,7.5,2.7,8,3.9c0.7,1.7,0.4,3.7-0.8,5c-1.2,1.3-3,1.6-4.9,0.9L55,48.5c-0.4-0.3-0.8-0.3-1-0.4c-0.4,0-0.6,0.2-0.8,0.3
			c-0.2,0.3-0.3,0.6-0.3,1c0.4,2.3,2.8,3.8,8.4,5.3c0.6,0.2,1,0.8,0.8,1.4c-0.2,0.6-0.8,1-1.4,0.8c-4.8-1.3-9.4-3.1-10.1-7.2
			c-0.2-1.1,0.1-2.1,0.9-2.9c0.7-0.8,1.6-1.1,2.7-1.1c0.8,0,1.5,0.3,2.2,0.7c0.9,0.3,1.7,0.2,2.2-0.4c0.6-0.6,0.7-1.6,0.3-2.4
			c-0.7-1.6-2.8-2.5-5.9-2.5c-4.8,0-6.6,3.2-6.9,3.8l0,0c-1,3.1-2.6,8.4,8,12.9c0.6,0.3,0.9,0.9,0.6,1.5
			C54.5,59.9,54.1,60.2,53.6,60.2z"/>
	</g>
	<g>
		<path class="st0" d="M60.5,90.6c-0.3,0-0.5-0.1-0.8-0.3c-2-1.6-2.9-3.5-3-5.7c-0.1-8.3,7.2-10.4,11.6-11.6
			c0.8-0.2,1.5-0.4,2.1-0.6c2.3-0.8,3.7-2.1,3.9-3.6c0.1-1.2-0.6-2.5-1.9-3.3c-0.4-0.3-0.9-0.5-1.4-0.7c-0.6-0.2-0.9-0.9-0.7-1.5
			c0.2-0.6,0.9-0.9,1.5-0.7c0.6,0.2,1.3,0.5,1.8,0.9c2.1,1.3,3.2,3.4,3,5.6c-0.3,2.4-2.2,4.5-5.4,5.6c-0.6,0.2-1.4,0.4-2.2,0.7
			c-5.5,1.5-10,3.2-9.9,9.3c0,1.5,0.7,2.7,2.1,3.9c0.5,0.4,0.6,1.2,0.1,1.7C61.2,90.5,60.8,90.6,60.5,90.6z"/>
	</g>
	<g>
		<path class="st0" d="M64.6,104c-0.1,0-0.2,0-0.3,0c-2.1-0.5-6.2-3-5.8-8.5c0.3-3.8,3.8-5.6,6.6-7.1c2.6-1.3,4.1-2.3,4.2-3.6
			c0-0.8-0.2-1.6-0.6-2.2c-0.4-0.5-0.2-1.3,0.3-1.6c0.5-0.4,1.3-0.2,1.6,0.3c0.7,1,1.1,2.2,1.1,3.6c0,2.9-2.8,4.3-5.4,5.7
			c-2.6,1.4-5.1,2.7-5.3,5.1c-0.3,4.9,3.8,6,4,6.1c0.6,0.1,1,0.8,0.9,1.4C65.7,103.6,65.2,104,64.6,104z"/>
	</g>
	<g>
		<path class="st0" d="M58.5,77.8c-0.2,0-0.4,0-0.5-0.1c-3.4-1.7-5.7-4.3-6.6-7.4c-0.7-2.4-0.4-5,0.8-7c2.1-4.5,8.6-6,14.9-7.5
			c5.9-1.4,11.5-2.8,12.1-6.2c0.1-0.4,0-0.7-0.3-1c-0.1-0.2-0.4-0.3-0.8-0.3c-0.4,0-0.8,0.1-1,0.4l-0.3,0.2
			c-1.9,0.7-3.7,0.3-4.9-0.9c-1.2-1.3-1.5-3.2-0.8-5c0.5-1.2,2.3-3.9,8-3.9c4.9,0,7.9,2.8,9,5.3l0.1,0.3c0.6,2.1,1.7,5.5-0.6,9.2
			c-3.1,5-11.1,8.5-24.6,10.8c-1.3,0.2-2.5,0.6-3.4,1.2c-1.3,0.8-2.1,2.1-1.9,3.3c0.2,1.5,1.6,2.8,3.9,3.6c0.2,0.1,0.4,0.1,0.5,0.2
			c0.6,0.2,1,0.8,0.8,1.5c-0.2,0.6-0.9,1-1.5,0.8c-0.2-0.1-0.4-0.1-0.6-0.2c-3.2-1.1-5.1-3.2-5.4-5.6c-0.2-2.1,0.9-4.2,3-5.6
			c1.2-0.7,2.6-1.3,4.3-1.5c12.6-2.1,20.3-5.4,23-9.7c1.7-2.8,0.9-5.5,0.3-7.2l0,0c-0.3-0.6-2-3.8-6.9-3.8c-3,0-5.2,0.9-5.9,2.5
			c-0.4,0.9-0.2,1.8,0.3,2.4c0.5,0.6,1.3,0.7,2.2,0.4c0.6-0.4,1.4-0.7,2.2-0.7c1,0,2,0.3,2.6,1.1c0.7,0.8,1,1.9,0.9,2.9
			c-0.8,5-7.1,6.6-13.9,8.2c-5.7,1.4-11.7,2.8-13.3,6.3c-0.9,1.6-1.1,3.5-0.6,5.3c0.7,2.4,2.6,4.5,5.4,5.9c0.6,0.3,0.8,1,0.5,1.6
			C59.4,77.6,59,77.8,58.5,77.8z"/>
	</g>
	<g>
		<path class="st0" d="M64.4,103.9c-0.2,0-0.4-0.1-0.6-0.2c-2-1.2-3.5-4.9-3.2-7.3c0.3-2.2,3.1-3.8,5.7-5.2c3.2-1.7,6.5-3.4,6.5-6.6
			c0-1.7-0.3-3.2-1.1-4.4c-0.3-0.5-0.2-1.3,0.4-1.6c0.6-0.3,1.3-0.2,1.6,0.4c1,1.6,1.5,3.5,1.5,5.7c-0.1,4.6-4.3,6.9-7.8,8.7
			c-1.9,1-3.9,2.1-4.1,3.1c-0.1,0.8,0,4.3,1.6,5.3c0.6,0.3,0.8,1,0.4,1.6C65.2,103.7,64.8,103.9,64.4,103.9z"/>
	</g>
</g>
</svg>
