<svg version="1.1" id="result_two" xmlns="http://www.w3.org/2000/svg" xmlns:xlink="http://www.w3.org/1999/xlink" x="0px"
	 y="0px" width="132.1px" height="108.1px" viewBox="0 0 132.1 108.1" style="enable-background:new 0 0 132.1 108.1;"
	 xml:space="preserve">
<style type="text/css">
	.result_two-st0{fill:#BF8929;}
</style>
<g>
	<path class="result_two-st0" d="M74,89.5c3.6,0,6.5-2.9,6.5-6.5v-5.8c0-3.6-2.9-6.5-6.5-6.5c-3.6,0-6.5,2.9-6.5,6.5V83
		C67.5,86.6,70.4,89.5,74,89.5z M70.7,83v-5.8c0-1.8,1.5-3.3,3.3-3.3c1.8,0,3.3,1.5,3.3,3.3V83c0,1.8-1.5,3.3-3.3,3.3
		C72.2,86.3,70.7,84.8,70.7,83z"/>
	<path class="result_two-st0" d="M80.9,70.2h12.4V67h-4.7l2.9-3c1.1-1,1.7-2.3,1.7-3.7c0-2.7-2.2-4.9-4.9-4.9h-2.7c-2.6,0-4.8,1.9-5.2,4.5
		l-0.1,0.6h3.2l0.1-0.4c0.2-0.9,1-1.5,2-1.5h2.7c1,0,1.7,0.8,1.7,1.7c0,0.5-0.2,1-0.7,1.4L80.9,70.2z"/>
	<path class="result_two-st0" d="M59.7,73.9h3.8v-3.2h-3.8c-4.1,0-7.5,3.3-7.5,7.5V82c0,4.1,3.3,7.5,7.5,7.5h3.8v-3.2h-3.8
		c-2.4,0-4.3-1.9-4.3-4.3v-3.9C55.4,75.8,57.3,73.9,59.7,73.9z"/>
	<path class="result_two-st0" d="M38,78.8c0-0.2,0-0.5,0-0.7l0-0.3c0.2-5.6,1.9-11,5-15.6c1.4-2,4.7-7.2,4.3-13.3c-0.2-2.7-0.6-5-1.3-7
		l-0.1-0.3l0.3,0.1c4.4,1.6,8,4.5,10,8.1l2.8,5.2l0.2-5.9c0.5-13.9,6.3-26.8,16.3-36.4l0.4-0.4l-0.1,0.5c-0.8,3.4-1.3,7-1.3,10.6
		c0,7.7,2,15.3,5.7,21.9l1,1.8l1.5-1.4c1.9-1.8,4.2-3.2,6.8-4.2l0.3-0.1l-0.1,0.3c-0.8,2.3-1.2,4.7-1.2,7.1c0,0.3,0,0.6,0,0.9l0,0.5
		l3.2-0.2l0-0.5c0-0.2,0-0.5,0-0.7c0-3.2,0.8-6.3,2.4-9l1.7-3l-3.4,0.6c-3.7,0.7-7.3,2.2-10.2,4.5L82.1,42L82,41.8
		c-2.8-5.7-4.3-12.1-4.3-18.5c0-5.3,1-10.4,2.9-15.3l2.1-5.3l-4.5,3.4c-12.2,9.3-20,22.8-21.8,38l0,0.3l-0.2-0.2
		c-3.3-3.4-7.8-5.8-12.7-6.7L40,37l1.7,3c1.4,2.4,2.2,5.4,2.4,9.1c0.3,4.9-2.2,9.2-3.8,11.4c-3.4,5.1-5.3,11-5.5,17.2l0,0.4
		c0,0.3,0,0.5,0,0.8c0,7.5,2.4,14.6,7.1,20.5l0.2,0.3h-8.9v3.2h16.3l-2.7-2.7C41.1,94.3,38,86.8,38,78.8z"/>
	<path class="result_two-st0" d="M101.1,78.8c0-0.2,0-4.1,0-5.7l0-0.5l-3.2,0.1l0,0.5c0,1.6,0,5.5,0,5.7c0,8-3.1,15.5-8.7,21.2l-2.7,2.7h12.9
		v-3.2h-5.5l0.2-0.3C98.6,93.4,101.1,86.3,101.1,78.8z"/>
	<rect x="103" y="99.5" class="result_two-st0" width="3.2" height="3.2"/>
	<rect x="26" y="99.5" class="result_two-st0" width="3.2" height="3.2"/>
	<path class="result_two-st0" d="M76.2,57.5l0.5,0.2l1.2-2.9l-0.5-0.2c-4.2-1.6-8.9-2.2-13.4-1.5l-0.5,0.1l0.5,3.1l0.5-0.1
		C68.4,55.6,72.6,56.1,76.2,57.5z"/>
	<path class="result_two-st0" d="M93.7,74.3l-0.1-0.5l-3.1,0.7l0.1,0.5c0.2,1.3,0.4,2.7,0.4,4.1c0,12.7-10.4,23.1-23.1,23.1S44.7,91.7,44.7,79
		c0-8.2,4.4-15.8,11.5-20l0.4-0.2L55.1,56l-0.4,0.3C46.6,60.9,41.6,69.6,41.6,79c0,14.5,11.8,26.3,26.3,26.3
		c14.5,0,26.3-11.8,26.3-26.3C94.1,77.4,94,75.8,93.7,74.3z"/>
</g>
</svg>
