<svg version="1.1" id="result_three" xmlns="http://www.w3.org/2000/svg" xmlns:xlink="http://www.w3.org/1999/xlink" x="0px"
	 y="0px" width="132.1px" height="108.1px" viewBox="0 0 132.1 108.1" style="enable-background:new 0 0 132.1 108.1;"
	 xml:space="preserve">
<style type="text/css">
	.result_three-st0{fill:#BF8929;}
</style>
<g>
	<path class="result_three-st0" d="M117.5,10.9c0.5-2.1-0.1-4.2-1.6-5.7c-1.5-1.5-3.6-2.1-5.7-1.6c-7.7,2-14.7,5.9-20.3,11.6l-7.5,7.5l-14-3.4
		l0.3-0.3c1.1-1.2,1.6-2.8,1.4-4.4c-0.2-1.6-1-3.1-2.4-4.1c-1.3-0.9-3-1.3-4.5-1c-1.6,0.3-2.9,1.3-3.8,2.7l-2.5,4.3l-27.1-6.5
		c-1.9-0.5-3.9,0.1-5.3,1.5L22.1,14c-1.3,1.3-1.9,3.1-1.6,4.9s1.4,3.3,3,4.1l39.1,20.3c-7.1,7.8-14.1,15.7-20.7,23.5l-17-4.3
		c-2-0.5-4.2,0.1-5.7,1.6l-3,3c-1.3,1.3-1.9,3.2-1.7,5c0.3,1.9,1.3,3.5,3,4.4L28.6,83c-1.4,2.7-0.9,6.1,1.3,8.3
		c1.3,1.3,3.1,2.1,5,2.1c1.7,0,3.3-0.6,4.6-1.7l0.7-0.6l5.8,10.7c0.9,1.5,2.3,2.5,4,2.7c0.2,0,0.5,0,0.7,0c1.5,0,2.8-0.6,3.9-1.6
		l2.6-2.6c1.4-1.4,1.9-3.4,1.4-5.2l-4.1-16c13.9-11.7,27.6-24.1,40.6-37l12.1,50.2c0.1,0.6,0,1.1-0.4,1.6l-2.4,2.4
		c-0.4,0.4-0.9,0.5-1.4,0.5c-0.5-0.1-1-0.4-1.2-0.8L82.9,59.1l-3.6,1.8l18.8,36.8c0.8,1.6,2.3,2.7,4.1,3c1.8,0.3,3.6-0.3,4.9-1.6
		l2.4-2.4c1.4-1.4,2-3.4,1.5-5.3l-6.5-27.2l4.1-2.4c1.4-0.8,2.4-2.2,2.7-3.8c0.3-1.6,0-3.2-1-4.6c-0.9-1.3-2.4-2.1-4-2.3
		c-1.6-0.2-3.2,0.3-4.4,1.4l-0.2,0.1l-3.3-13.8l7.5-7.5C111.5,25.7,115.5,18.6,117.5,10.9z M102.8,57l1.8-1.6l0,0
		c0.4-0.3,0.8-0.5,1.3-0.4c0.5,0.1,0.9,0.3,1.2,0.8c0.3,0.4,0.4,0.9,0.3,1.4c-0.1,0.5-0.4,0.9-0.8,1.1l-3.1,1.8L102.8,57z M61,17.6
		l1.9-3.2c0.2-0.4,0.6-0.7,1.1-0.8c0.5-0.1,1,0,1.4,0.3c0.4,0.3,0.6,0.7,0.7,1.2c0.1,0.5-0.1,1-0.4,1.3L64,18.3L61,17.6z M28.9,14
		l50.2,12.1c-1,1-1.9,1.9-2.9,2.9L65.1,40.2L25.4,19.5h0c-0.5-0.2-0.8-0.7-0.9-1.2c-0.1-0.5,0.1-1,0.5-1.4l2.4-2.4
		C27.8,14.1,28.4,13.9,28.9,14z M111.7,7.5c0.5,0,1,0.2,1.4,0.6c0.5,0.5,0.7,1.2,0.5,1.9c-1.8,7-5.4,13.4-10.5,18.5l-8,8
		C81.1,50.5,66.2,64.1,51,76.8L36.9,88.6c-1.1,1-3.1,0.9-4.2-0.2c-1.1-1.1-1.2-2.9-0.2-4.2l11.8-14.1c11-13.1,22.7-26,34.7-38.3
		l5.7-5.8l8-8c5.1-5.1,11.5-8.7,18.5-10.5C111.4,7.5,111.5,7.5,111.7,7.5z M39,70.3l-7.9,9.5l-11.6-6.7l0,0c-0.5-0.3-0.9-0.8-1-1.5
		c-0.1-0.6,0.1-1.2,0.6-1.7l3-3c0.4-0.4,0.9-0.6,1.4-0.6c0.2,0,0.3,0,0.5,0.1L39,70.3z M54.4,97.5l-2.6,2.6
		c-0.3,0.3-0.8,0.5-1.3,0.4c-0.5-0.1-0.9-0.3-1.1-0.7l-6.2-11.4l7.8-6.6l3.6,14.2C54.9,96.6,54.7,97.2,54.4,97.5z"/>
	<polygon class="result_three-st0" points="92.6,35.9 95.4,33 93.3,30.9 90.5,33.8 	"/>
	<path class="result_three-st0" d="M87.3,36.9c-0.7,0.7-1.4,1.4-2.1,2.1l-0.4,0.3l2.1,2.1l0.4-0.3c0.7-0.7,1.4-1.4,2.1-2.1l0.4-0.4l-2.1-2.1
		L87.3,36.9z"/>
	<rect x="96.6" y="26.2" transform="matrix(0.7071 -0.7071 0.7071 0.7071 9.2662 77.86)" class="result_three-st0" width="4" height="3"/>
	<path class="result_three-st0" d="M64,58.8c-0.7,0.7-1.5,1.3-2.2,2l-0.4,0.3l2,2.2l0.4-0.3c0.7-0.7,1.5-1.3,2.2-2l0.4-0.3l-2-2.2L64,58.8z"/>
	<path class="result_three-st0" d="M58.1,64.1c-0.8,0.7-1.5,1.3-2.3,2l-0.4,0.3l2,2.3l0.4-0.3c0.8-0.7,1.5-1.3,2.3-2l0.4-0.3l-2-2.3L58.1,64.1z"
		/>
	<path class="result_three-st0" d="M52,69.3c-0.8,0.6-1.5,1.3-2.3,1.9l-0.4,0.3l1.9,2.3l0.4-0.3c0.8-0.6,1.5-1.3,2.3-1.9l0.4-0.3l-2-2.3L52,69.3z
		"/>
	<path class="result_three-st0" d="M75.8,48c-0.7,0.7-1.5,1.4-2.2,2l-0.4,0.3l2,2.2l0.4-0.3c0.7-0.7,1.5-1.4,2.2-2.1l0.4-0.3l-2.1-2.2L75.8,48z"
		/>
	<path class="result_three-st0" d="M81.6,42.5c-0.7,0.7-1.4,1.4-2.2,2.1l-0.4,0.3l2.1,2.2l0.4-0.3c0.7-0.7,1.5-1.4,2.2-2.1l0.4-0.3l-2.1-2.2
		L81.6,42.5z"/>
	<path class="result_three-st0" d="M69.9,53.4c-0.7,0.7-1.5,1.3-2.2,2l-0.4,0.3l2,2.2l0.4-0.3c0.7-0.7,1.5-1.4,2.2-2l0.4-0.3l-2-2.2L69.9,53.4z"
		/>
</g>
</svg>
