<?xml version="1.0" encoding="utf-8"?>
<!-- Generator: Adobe Illustrator 23.0.2, SVG Export Plug-In . SVG Version: 6.00 Build 0)  -->
<svg version="1.1" id="Isolation_Mode" xmlns="http://www.w3.org/2000/svg" xmlns:xlink="http://www.w3.org/1999/xlink" x="0px"
	 y="0px" width="132.1px" height="108.1px" viewBox="0 0 132.1 108.1" style="enable-background:new 0 0 132.1 108.1;"
	 xml:space="preserve">
<style type="text/css">
	.st0{fill:#BF8929;}
</style>
<g>
	<path class="st0" d="M73.5,93.6L70.8,94l1.6,10.4H59.8l2.6-16.9h1.6v-2.8h-2.8c-0.7,0-1.3,0.5-1.4,1.2l-3,19.7
		c-0.1,0.4,0.1,0.8,0.3,1.1c0.3,0.3,0.6,0.5,1.1,0.5H74c0.4,0,0.8-0.2,1.1-0.5c0.3-0.3,0.4-0.7,0.3-1.1L73.5,93.6z"/>
	<path class="st0" d="M115.4,104.9L97.8,85.2c-0.3-0.3-0.6-0.5-1-0.5h-9.9c-0.5,0-1,0.3-1.2,0.7c-0.2,0.4-0.2,1,0,1.4l11.7,19.7
		c0.2,0.4,0.7,0.7,1.2,0.7h15.8c0.5,0,1-0.3,1.3-0.8C115.9,105.9,115.8,105.3,115.4,104.9z M99.4,104.4l-10-16.9h6.8l15.1,16.9H99.4
		z"/>
	<path class="st0" d="M73.9,49l1.1-6.4c0.7,0.6,1.7,1.3,3,1.7c3.4,1.1,14.4,4.5,14.9,4.6C93.2,49,93.6,49,94,49
		c1.6,0,3.2-0.9,4.1-3.3c1.2-3.2-0.8-5.1-2-5.7l-12.3-6.4l-7.9-8c-0.3-0.6-0.7-1.2-1.2-1.7c-1.5-1.6-3.7-2.3-6-2.1
		c-3.5,0.3-18.7,5.1-20.9,6c-2.4,0.9-3,2.8-3.3,4.6L42.9,47c-0.1,0.4-0.3,1.8,0.6,3.2c0.7,1,1.8,1.7,3.3,2c2.7,0.5,5-0.8,5.7-3.3
		L55.7,38l1.7-0.5l-2,10.5c-0.4,2.5,0.3,5.1,1.8,7.3l-9.8,25.9c0,0.1-0.1,0.2-0.1,0.3c-0.2,1.4,0.4,4.4,4.1,5.4
		c0.8,0.2,1.6,0.3,2.2,0.3c2.6,0,3.9-1.6,4.3-2.7l9.6-18c0.6,0.7,1.2,1.3,1.5,1.7l-2.7,15.4c-0.2,1.4,0.3,4.5,3.8,6
		c0.9,0.4,1.8,0.6,2.7,0.6c2,0,3.7-1,4.5-2.8c0,0,0,0,0,0c2.3-5.3,5.8-19.2,6-20.1c0.5-1.7,0.4-3.2-0.4-4.3L73.9,49z M82.4,36
		l12.5,6.6c0.1,0.1,1.2,0.6,0.6,2.2c-0.6,1.6-1.4,1.6-1.9,1.4c-0.1,0-11.4-3.5-14.8-4.6c-2-0.7-2.7-1.8-3.3-2.7c0,0,0,0,0,0l1.3-7.8
		c0-0.2,0-0.4,0-0.6l5.2,5.2C82.2,35.9,82.3,35.9,82.4,36z M55.5,83.4c0,0.1-0.1,0.1-0.1,0.2c-0.1,0.2-0.7,1.4-3.1,0.7
		c-2-0.6-2.2-1.9-2.2-2.3l9.2-24.3c1.6,1.6,4.1,4.3,6.3,6.7L55.5,83.4z M80.7,66.6C80.7,66.6,80.7,66.7,80.7,66.6
		c-0.1,0.2-3.7,14.6-5.9,19.8c-0.5,1.3-2.2,1.3-3.6,0.7c-2.2-0.9-2.1-2.7-2.1-3l2.8-16c0.1-0.4-0.1-0.9-0.3-1.2
		c-0.3-0.4-8.2-8.9-10.9-11.7c-2-2-2.8-4.4-2.5-6.7l2.4-12.6c0.1-0.5-0.1-0.9-0.4-1.3c-0.3-0.3-0.8-0.4-1.3-0.3l-4.6,1.2
		c-0.5,0.1-0.8,0.5-1,1l-3.4,11.7c-0.3,1.1-1.2,1.6-2.5,1.3c-0.7-0.1-1.2-0.4-1.5-0.8c-0.3-0.5-0.2-1.1-0.2-1.1c0,0,0,0,0,0
		c0-0.1,0-0.1,0-0.2l1.6-14.7c0.2-1.6,0.7-2,1.5-2.3c2.6-0.9,17.2-5.5,20.2-5.8c1.5-0.1,2.9,0.3,3.8,1.3c1.1,1.2,1.6,3,1.4,4.9
		l-3,18.3c-0.1,0.3,0,0.7,0.2,1l9.4,14.6c0,0,0,0,0,0.1C81,65,81,65.8,80.7,66.6z"/>
	<path class="st0" d="M78,21.5c5.7,0,10.3-4.6,10.3-10.3c0-5.7-4.6-10.3-10.3-10.3c-5.7,0-10.3,4.6-10.3,10.3
		C67.7,16.8,72.3,21.5,78,21.5z M78,3.6c4.2,0,7.5,3.4,7.5,7.5c0,4.2-3.4,7.5-7.5,7.5c-4.1,0-7.5-3.4-7.5-7.5
		C70.5,7,73.9,3.6,78,3.6z"/>
	<path class="st0" d="M45.2,84.8h-9.9c-0.4,0-0.8,0.2-1,0.5l-17.6,19.7c-0.4,0.4-0.5,1-0.2,1.5c0.2,0.5,0.7,0.8,1.3,0.8h15.8
		c0.5,0,0.9-0.3,1.2-0.7l11.7-19.7c0.3-0.4,0.3-1,0-1.4C46.2,85,45.7,84.8,45.2,84.8z M32.7,104.4H20.8L36,87.5h6.8L32.7,104.4z"/>
</g>
</svg>
